<svg xmlns="http://www.w3.org/2000/svg" width="21.536" height="20.663" viewBox="0 0 21.536 20.663">
  <path id="filter_alt_FILL0_wght400_GRAD0_opsz48" d="M21.043,19.623v7.749a1.237,1.237,0,0,1-.378.92,1.287,1.287,0,0,1-.938.371H17.093a1.287,1.287,0,0,1-.938-.371,1.237,1.237,0,0,1-.378-.92V19.623L7.91,9.776a.963.963,0,0,1-.132-1.162A1.084,1.084,0,0,1,8.8,8H28.02a1.084,1.084,0,0,1,1.02.613.963.963,0,0,1-.132,1.162Zm-2.633.129,7.9-9.815h-15.8ZM18.41,19.752Z" transform="translate(-7.642 -8)" fill="#fff"/>
</svg>
