<svg id="Componente_87_19" data-name="Componente 87 – 19" xmlns="http://www.w3.org/2000/svg" width="20.02" height="18.742" viewBox="0 0 20.02 18.742">
  <g id="Elipse_64" data-name="Elipse 64" transform="matrix(0.809, 0.588, -0.588, 0.809, 13.408, 0)" fill="none" stroke="#ffc107" stroke-width="0.6">
    <ellipse cx="4.087" cy="7.977" rx="4.087" ry="7.977" stroke="none"/>
    <ellipse cx="4.087" cy="7.977" rx="3.787" ry="7.677" fill="none"/>
  </g>
  <path id="Caminho_23205" data-name="Caminho 23205" d="M-7863.384-4017.084s1.707-1.653,1.707-1.756a12.27,12.27,0,0,1,.278-1.481,26.134,26.134,0,0,1,2.646-1.033l.523-.31.766-1.687.313-2.273.314.207.766-1s1.567-1.274.558-2.445l-.836.173-1.114-1.137h-.976l-.627-.413-.382.413-.139-.654-1.429-.413-.661.413.661-.757h-1.185l.523-.655-.766-.31-.174-.964-.627,1.1-.7-.138h-.731l.174.31-.558-.172-1.044.379a.965.965,0,0,1-.209-1.206l-.312-.585-1.776.792.418.792-1.324.414-.487-.585-1.185.172.279,1.412-.279,1.205a3.322,3.322,0,0,0-1.393,1.1l.21,1.205.765.275.417-.275v.758h1.185l1.08-.758s-.035.964.522,1.343l1.567.414v1.067h1.08l.313.792-.313.826.139.861h.905l.174.654.522.138-.139.757.418.241-.279.378-1.254,1.343Z" transform="translate(7873.682 4035.526)" fill="#8bd6f7" stroke="#49c3f2" stroke-linecap="round" stroke-linejoin="round" stroke-width="0.6"/>
  <g id="Caminho_23213" data-name="Caminho 23213" transform="translate(7831.928 4033.296)" fill="#78909c">
    <path d="M -7830.314453125 -4028.53857421875 L -7830.10498046875 -4029.763427734375 L -7829.9990234375 -4029.763427734375 L -7829.62060546875 -4028.57080078125 L -7830.314453125 -4028.53857421875 Z" stroke="none"/>
    <path d="M -7830.5263671875 -4030.263427734375 L -7829.63330078125 -4030.263427734375 L -7828.7900390625 -4027.607177734375 L -7828.2216796875 -4030.263427734375 L -7827.33935546875 -4030.263427734375 L -7828.2216796875 -4025.74609375 L -7829.1630859375 -4025.74609375 L -7829.9765625 -4028.431396484375 L -7830.5263671875 -4025.74609375 L -7831.30029296875 -4025.74609375 L -7830.5263671875 -4030.263427734375 Z" stroke="none" fill="#78909c"/>
  </g>
  <g id="Caminho_23206" data-name="Caminho 23206" transform="translate(7831.3 4032.819)" fill="#eceff1">
    <path d="M -7830.314453125 -4028.53857421875 L -7830.10498046875 -4029.763427734375 L -7829.9990234375 -4029.763427734375 L -7829.62060546875 -4028.57080078125 L -7830.314453125 -4028.53857421875 Z" stroke="none"/>
    <path d="M -7830.5263671875 -4030.263427734375 L -7829.63330078125 -4030.263427734375 L -7828.7900390625 -4027.607177734375 L -7828.2216796875 -4030.263427734375 L -7827.33935546875 -4030.263427734375 L -7828.2216796875 -4025.74609375 L -7829.1630859375 -4025.74609375 L -7829.9765625 -4028.431396484375 L -7830.5263671875 -4025.74609375 L -7831.30029296875 -4025.74609375 L -7830.5263671875 -4030.263427734375 Z" stroke="none" fill="#eceff1"/>
  </g>
  <g id="Caminho_23212" data-name="Caminho 23212" transform="translate(7827.61 4033.338)" fill="#78909c">
    <path d="M-7822.02-4025.788l.353-1.813h1.755l.186-.94h-1.755l.2-.911h1.843l.187-.892-2.765.077-.933,4.479Z" stroke="none"/>
    <path d="M -7822.02001953125 -4025.788330078125 L -7822.95263671875 -4025.788330078125 L -7822.02001953125 -4030.26708984375 L -7819.25537109375 -4030.34423828125 L -7819.4423828125 -4029.4521484375 L -7821.28564453125 -4029.4521484375 L -7821.4814453125 -4028.54150390625 L -7819.7265625 -4028.54150390625 L -7819.91259765625 -4027.601318359375 L -7821.66748046875 -4027.601318359375 L -7822.02001953125 -4025.788330078125 Z" stroke="none" fill="#78909c"/>
  </g>
  <g id="Caminho_23207" data-name="Caminho 23207" transform="translate(7826.982 4032.861)" fill="#eceff1">
    <path d="M-7822.02-4025.788l.353-1.813h1.755l.186-.94h-1.755l.2-.911h1.843l.187-.892-2.765.077-.933,4.479Z" stroke="none"/>
    <path d="M -7822.02001953125 -4025.788330078125 L -7822.95263671875 -4025.788330078125 L -7822.02001953125 -4030.26708984375 L -7819.25537109375 -4030.34423828125 L -7819.4423828125 -4029.4521484375 L -7821.28564453125 -4029.4521484375 L -7821.4814453125 -4028.54150390625 L -7819.7265625 -4028.54150390625 L -7819.91259765625 -4027.601318359375 L -7821.66748046875 -4027.601318359375 L -7822.02001953125 -4025.788330078125 Z" stroke="none" fill="#eceff1"/>
  </g>
  <g id="Subtração_2" data-name="Subtração 2" transform="translate(7.754 5.64)" fill="#78909c">
    <path d="M 1.789700746536255 6.799500942230225 L 1.772001624107361 6.799500942230225 C 1.210954070091248 6.783124923706055 0.8679981231689453 6.576511383056641 0.6029236912727356 6.090979099273682 C 0.2695516347885132 4.574206829071045 0.8138877749443054 3.306557893753052 1.333690762519836 2.506181001663208 C 1.968080759048462 1.529660940170288 2.716750860214233 0.9978509545326233 2.86103081703186 0.9424709677696228 L 2.967730760574341 0.9066709280014038 L 3.030701875686646 0.8447824120521545 C 3.205754041671753 0.7391961216926575 3.987619161605835 0.5000009536743164 4.759810924530029 0.5000009536743164 C 5.924530982971191 0.5000009536743164 5.970970630645752 1.000670909881592 5.986230850219727 1.16520094871521 L 5.986650943756104 1.169790983200073 L 5.987160682678223 1.174380898475647 C 6.100823879241943 2.194670438766479 5.74250602722168 3.174239873886108 5.543498992919922 3.623740911483765 L 1.650170803070068 3.623740911483765 L 1.291150808334351 3.623740911483765 L 1.176400780677795 3.96393084526062 C 1.113090753555298 4.151610851287842 0.819570779800415 5.118190765380859 1.259080767631531 5.718141078948975 C 1.39888072013855 5.909221172332764 1.66658079624176 6.137280941009521 2.147000789642334 6.137280941009521 C 2.594386339187622 6.137280941009521 3.164208889007568 5.930758476257324 3.886199951171875 5.506461143493652 L 4.404141426086426 5.506461143493652 C 4.324251174926758 5.60116720199585 4.234792709350586 5.699163913726807 4.135830879211426 5.796481132507324 C 3.670730829238892 6.254110813140869 2.886260747909546 6.799500942230225 1.789700746536255 6.799500942230225 Z M 4.468970775604248 0.903550922870636 C 3.908700704574585 0.903550922870636 2.821730852127075 1.10335099697113 1.836720705032349 2.441480875015259 L 1.250480771064758 3.237890958786011 L 2.239390850067139 3.237890958786011 L 4.858800888061523 3.237890958786011 L 5.179460525512695 3.237890958786011 L 5.313220977783203 2.946460962295532 C 5.383906841278076 2.793291568756104 5.61198616027832 2.263689279556274 5.594367504119873 1.851044416427612 C 5.588283061981201 1.463072180747986 5.337230682373047 0.9287761449813843 4.78748083114624 0.9273242354393005 C 4.717267036437988 0.9159429669380188 4.608720302581787 0.903550922870636 4.468970775604248 0.903550922870636 Z" stroke="none"/>
    <path d="M 1.789700746536255 7.299500942230225 L 1.765190720558167 7.299500942230225 C 1.00109076499939 7.279231071472168 0.4816407561302185 6.950881004333496 0.1300007551908493 6.266241073608398 C -0.2720792591571808 4.550890922546387 0.3345707654953003 3.126590967178345 0.9143607616424561 2.233850955963135 C 1.59031081199646 1.193360924720764 2.423690795898438 0.5618409514427185 2.699440717697144 0.4693309366703033 C 2.870550870895386 0.3045709431171417 3.835920810699463 9.479522873334645e-07 4.759810924530029 9.479522873334645e-07 C 5.498920917510986 9.479522873334645e-07 6.398300647735596 0.1941209435462952 6.484090805053711 1.119020938873291 C 6.658020973205566 2.680341005325317 5.864700794219971 4.10952091217041 5.856690883636475 4.123741149902344 L 1.650170803070068 4.123741149902344 C 1.647340774536133 4.132131099700928 1.358390808105469 5.007630825042725 1.662430763244629 5.422660827636719 C 1.766600728034973 5.565041065216064 1.929220795631409 5.637280941009521 2.147000789642334 5.637280941009521 C 2.519850730895996 5.637280941009521 3.058630704879761 5.424991130828857 3.748250722885132 5.006461143493652 L 5.346200942993164 5.006461143493652 C 5.346670627593994 5.007400989532471 5.345720767974854 5.008790969848633 5.344310760498047 5.011361122131348 C 5.292930603027344 5.111791133880615 5.009640693664551 5.638451099395752 4.486410617828369 6.152980804443359 C 3.954710721969604 6.676140785217285 3.054860830307007 7.299500942230225 1.789700746536255 7.299500942230225 Z M 4.468970775604248 1.403550982475281 C 4.003260612487793 1.403550982475281 3.09398078918457 1.576930999755859 2.239390850067139 2.737890958786011 L 4.858800888061523 2.737890958786011 C 4.861150741577148 2.732770919799805 5.112870693206787 2.190500974655151 5.094480514526367 1.865420937538147 C 5.094480514526367 1.86099100112915 5.076100826263428 1.427320957183838 4.785260677337646 1.427320957183838 C 4.77254056930542 1.427320957183838 4.761700630187988 1.42802095413208 4.750850677490234 1.429190993309021 C 4.749910831451416 1.428950905799866 4.645740985870361 1.403550982475281 4.468970775604248 1.403550982475281 Z" stroke="none" fill="#78909c"/>
  </g>
  <g id="Subtração_1" data-name="Subtração 1" transform="translate(7.271 5.163)" fill="#fff">
    <path d="M 1.789700746536255 6.799500942230225 L 1.772001624107361 6.799500942230225 C 1.210954070091248 6.783124923706055 0.8679981231689453 6.576511383056641 0.6029236912727356 6.090979099273682 C 0.2695516347885132 4.574206829071045 0.8138877749443054 3.306557893753052 1.333690762519836 2.506181001663208 C 1.968080759048462 1.529660940170288 2.716750860214233 0.9978509545326233 2.86103081703186 0.9424709677696228 L 2.967730760574341 0.9066709280014038 L 3.030701875686646 0.8447824120521545 C 3.205754041671753 0.7391961216926575 3.987619161605835 0.5000009536743164 4.759810924530029 0.5000009536743164 C 5.924530982971191 0.5000009536743164 5.970970630645752 1.000670909881592 5.986230850219727 1.16520094871521 L 5.986650943756104 1.169790983200073 L 5.987160682678223 1.174380898475647 C 6.100823879241943 2.194670438766479 5.74250602722168 3.174239873886108 5.543498992919922 3.623740911483765 L 1.650170803070068 3.623740911483765 L 1.291150808334351 3.623740911483765 L 1.176400780677795 3.96393084526062 C 1.113090753555298 4.151610851287842 0.819570779800415 5.118190765380859 1.259080767631531 5.718141078948975 C 1.39888072013855 5.909221172332764 1.66658079624176 6.137280941009521 2.147000789642334 6.137280941009521 C 2.594386339187622 6.137280941009521 3.164208889007568 5.930758476257324 3.886199951171875 5.506461143493652 L 4.404141426086426 5.506461143493652 C 4.324251174926758 5.60116720199585 4.234792709350586 5.699163913726807 4.135830879211426 5.796481132507324 C 3.670730829238892 6.254110813140869 2.886260747909546 6.799500942230225 1.789700746536255 6.799500942230225 Z M 4.468970775604248 0.903550922870636 C 3.908700704574585 0.903550922870636 2.821730852127075 1.10335099697113 1.836720705032349 2.441480875015259 L 1.250480771064758 3.237890958786011 L 2.239390850067139 3.237890958786011 L 4.858800888061523 3.237890958786011 L 5.179460525512695 3.237890958786011 L 5.313220977783203 2.946460962295532 C 5.383906841278076 2.793291568756104 5.61198616027832 2.263689279556274 5.594367504119873 1.851044416427612 C 5.588283061981201 1.463072180747986 5.337230682373047 0.9287761449813843 4.78748083114624 0.9273242354393005 C 4.717267036437988 0.9159429669380188 4.608720302581787 0.903550922870636 4.468970775604248 0.903550922870636 Z" stroke="none"/>
    <path d="M 1.789700746536255 7.299500942230225 L 1.765190720558167 7.299500942230225 C 1.00109076499939 7.279231071472168 0.4816407561302185 6.950881004333496 0.1300007551908493 6.266241073608398 C -0.2720792591571808 4.550890922546387 0.3345707654953003 3.126590967178345 0.9143607616424561 2.233850955963135 C 1.59031081199646 1.193360924720764 2.423690795898438 0.5618409514427185 2.699440717697144 0.4693309366703033 C 2.870550870895386 0.3045709431171417 3.835920810699463 9.479522873334645e-07 4.759810924530029 9.479522873334645e-07 C 5.498920917510986 9.479522873334645e-07 6.398300647735596 0.1941209435462952 6.484090805053711 1.119020938873291 C 6.658020973205566 2.680341005325317 5.864700794219971 4.10952091217041 5.856690883636475 4.123741149902344 L 1.650170803070068 4.123741149902344 C 1.647340774536133 4.132131099700928 1.358390808105469 5.007630825042725 1.662430763244629 5.422660827636719 C 1.766600728034973 5.565041065216064 1.929220795631409 5.637280941009521 2.147000789642334 5.637280941009521 C 2.519850730895996 5.637280941009521 3.058630704879761 5.424991130828857 3.748250722885132 5.006461143493652 L 5.346200942993164 5.006461143493652 C 5.346670627593994 5.007400989532471 5.345720767974854 5.008790969848633 5.344310760498047 5.011361122131348 C 5.292930603027344 5.111791133880615 5.009640693664551 5.638451099395752 4.486410617828369 6.152980804443359 C 3.954710721969604 6.676140785217285 3.054860830307007 7.299500942230225 1.789700746536255 7.299500942230225 Z M 4.468970775604248 1.403550982475281 C 4.003260612487793 1.403550982475281 3.09398078918457 1.576930999755859 2.239390850067139 2.737890958786011 L 4.858800888061523 2.737890958786011 C 4.861150741577148 2.732770919799805 5.112870693206787 2.190500974655151 5.094480514526367 1.865420937538147 C 5.094480514526367 1.86099100112915 5.076100826263428 1.427320957183838 4.785260677337646 1.427320957183838 C 4.77254056930542 1.427320957183838 4.761700630187988 1.42802095413208 4.750850677490234 1.429190993309021 C 4.749910831451416 1.428950905799866 4.645740985870361 1.403550982475281 4.468970775604248 1.403550982475281 Z" stroke="none" fill="#fff"/>
  </g>
  <g id="Elipse_63" data-name="Elipse 63" transform="matrix(0.809, 0.588, -0.588, 0.809, 12.463, 0)" fill="none" stroke="#388e3c" stroke-width="0.6">
    <ellipse cx="4.087" cy="7.977" rx="4.087" ry="7.977" stroke="none"/>
    <ellipse cx="4.087" cy="7.977" rx="3.787" ry="7.677" fill="none"/>
  </g>
</svg>
