<svg xmlns="http://www.w3.org/2000/svg" width="21.748" height="21.771" viewBox="0 0 21.748 21.771">
  <g id="Componente_78_5" data-name="Componente 78 – 5" transform="translate(0.5 0.5)">
    <path id="Caminho_23003" data-name="Caminho 23003" d="M-1808.145-7964.392v-14.056l-5.516-5.6h-14.366c-.533,0-.865.353-.865,1.125v18.434c0,.744.219,1.212.865,1.212h18.953A1.009,1.009,0,0,0-1808.145-7964.392Z" transform="translate(1828.893 7984.049)" fill="#0087b1" stroke="#0087b1" stroke-linecap="round" stroke-linejoin="round" stroke-width="1"/>
    <path id="Caminho_23004" data-name="Caminho 23004" d="M-1809.7-7960.463v-6.7h-14.333v6.7Z" transform="translate(1827.16 7978.023)" fill="#fff" stroke="#fff" stroke-linecap="round" stroke-linejoin="round" stroke-width="1"/>
    <path id="Caminho_23006" data-name="Caminho 23006" d="M-1820.361-7960.47h10.393" transform="translate(1825.364 7973.706)" fill="#2f2f2f" stroke="#2f2f2f" stroke-linecap="round" stroke-width="1.5"/>
    <path id="Caminho_23009" data-name="Caminho 23009" d="M-1820.361-7960.47h10.393" transform="translate(1825.364 7975.636)" fill="#2f2f2f" stroke="#2f2f2f" stroke-linecap="round" stroke-width="1.5"/>
    <path id="Caminho_23007" data-name="Caminho 23007" d="M-1812.983-7977.916v-5.969h-11.242v5.969Z" transform="translate(1827.227 7984.316)" fill="#fff" stroke="#fff" stroke-linecap="round" stroke-linejoin="round" stroke-width="1"/>
    <path id="Caminho_23008" data-name="Caminho 23008" d="M-1814.1-7978.9v-3.758h1.758v3.758Z" transform="translate(1824.256 7984.197)" stroke="#000" stroke-linecap="round" stroke-linejoin="round" stroke-width="1"/>
  </g>
</svg>
