<svg xmlns="http://www.w3.org/2000/svg" width="147" height="87" viewBox="0 0 147 87">
  <g id="Grupo_4511" data-name="Grupo 4511" transform="translate(-63 -315)">
    <g id="Retângulo_762" data-name="Retângulo 762" transform="translate(72 315)" stroke="#000" stroke-width="1">
      <rect width="2" height="83" stroke="none"/>
      <rect x="0.5" y="0.5" width="1" height="82" fill="none"/>
    </g>
    <g id="Retângulo_774" data-name="Retângulo 774" transform="translate(129 315)" stroke="#000" stroke-width="1">
      <rect width="2" height="72" stroke="none"/>
      <rect x="0.5" y="0.5" width="1" height="71" fill="none"/>
    </g>
    <g id="Retângulo_763" data-name="Retângulo 763" transform="translate(76 315)" stroke="#000" stroke-width="1">
      <rect width="1" height="83" stroke="none"/>
      <rect x="0.5" y="0.5" height="82" fill="none"/>
    </g>
    <g id="Retângulo_777" data-name="Retângulo 777" transform="translate(142 315)" stroke="#000" stroke-width="1">
      <rect width="1" height="83" stroke="none"/>
      <rect x="0.5" y="0.5" height="82" fill="none"/>
    </g>
    <g id="Retângulo_776" data-name="Retângulo 776" transform="translate(139 315)" stroke="#000" stroke-width="1">
      <rect width="1" height="83" stroke="none"/>
      <rect x="0.5" y="0.5" height="82" fill="none"/>
    </g>
    <g id="Retângulo_764" data-name="Retângulo 764" transform="translate(79 315)" stroke="#000" stroke-width="1">
      <rect width="3" height="72" stroke="none"/>
      <rect x="0.5" y="0.5" width="2" height="71" fill="none"/>
    </g>
    <g id="Retângulo_771" data-name="Retângulo 771" transform="translate(114 315)" stroke="#000" stroke-width="1">
      <rect width="3" height="72" stroke="none"/>
      <rect x="0.5" y="0.5" width="2" height="71" fill="none"/>
    </g>
    <g id="Retângulo_772" data-name="Retângulo 772" transform="translate(121 315)" stroke="#000" stroke-width="1">
      <rect width="3" height="72" stroke="none"/>
      <rect x="0.5" y="0.5" width="2" height="71" fill="none"/>
    </g>
    <g id="Retângulo_765" data-name="Retângulo 765" transform="translate(84 315)" stroke="#000" stroke-width="1">
      <rect width="4" height="72" stroke="none"/>
      <rect x="0.5" y="0.5" width="3" height="71" fill="none"/>
    </g>
    <g id="Retângulo_775" data-name="Retângulo 775" transform="translate(133 315)" stroke="#000" stroke-width="1">
      <rect width="4" height="72" stroke="none"/>
      <rect x="0.5" y="0.5" width="3" height="71" fill="none"/>
    </g>
    <g id="Retângulo_766" data-name="Retângulo 766" transform="translate(95 315)" stroke="#000" stroke-width="1">
      <rect width="3" height="72" stroke="none"/>
      <rect x="0.5" y="0.5" width="2" height="71" fill="none"/>
    </g>
    <g id="Retângulo_767" data-name="Retângulo 767" transform="translate(92 315)" stroke="#000" stroke-width="1">
      <rect width="1" height="72" stroke="none"/>
      <rect x="0.5" y="0.5" height="71" fill="none"/>
    </g>
    <g id="Retângulo_769" data-name="Retângulo 769" transform="translate(106 315)" stroke="#000" stroke-width="1">
      <rect width="1" height="72" stroke="none"/>
      <rect x="0.5" y="0.5" height="71" fill="none"/>
    </g>
    <g id="Retângulo_770" data-name="Retângulo 770" transform="translate(109 315)" stroke="#000" stroke-width="1">
      <rect width="1" height="72" stroke="none"/>
      <rect x="0.5" y="0.5" height="71" fill="none"/>
    </g>
    <g id="Retângulo_773" data-name="Retângulo 773" transform="translate(126 315)" stroke="#000" stroke-width="1">
      <rect width="1" height="72" stroke="none"/>
      <rect x="0.5" y="0.5" height="71" fill="none"/>
    </g>
    <g id="Retângulo_768" data-name="Retângulo 768" transform="translate(102 315)" stroke="#000" stroke-width="1">
      <rect width="2" height="72" stroke="none"/>
      <rect x="0.5" y="0.5" width="1" height="71" fill="none"/>
    </g>
    <g id="Retângulo_789" data-name="Retângulo 789" transform="translate(208 315)">
      <path d="M2,0H0V83H2Z" stroke="none"/>
      <path d="M 1 82 L 1 1 L 1 82 M 0 83 L 2 83 L 2 0 L 0 1.270571258449622e-17 L 0 83 Z" stroke="none" fill="#000"/>
    </g>
    <g id="Retângulo_778" data-name="Retângulo 778" transform="translate(151 315)">
      <path d="M2,0H0V72H2Z" stroke="none"/>
      <path d="M 1 71 L 1 1 L 1 71 M 0 72 L 2 72 L 2 0 L 0 1.270571258449622e-17 L 0 72 Z" stroke="none" fill="#000"/>
    </g>
    <g id="Retângulo_790" data-name="Retângulo 790" transform="translate(205 315)">
      <path d="M1,0H0V83H1Z" stroke="none"/>
      <path d="M 0 83 L 1 83 L 1 0 L 0 6.35285629224811e-18 L 0 83 Z" stroke="none" fill="#000"/>
    </g>
    <g id="Retângulo_791" data-name="Retângulo 791" transform="translate(200 315)">
      <path d="M3,0H0V72H3Z" stroke="none"/>
      <path d="M 1 71 L 1 1 L 2 1 L 2 71 L 1 71 M 0 72 L 3 72 L 3 -1.410617465557731e-33 L 0 1.905856887674433e-17 L 0 72 Z" stroke="none" fill="#000"/>
    </g>
    <g id="Retângulo_779" data-name="Retângulo 779" transform="translate(165 315)">
      <path d="M3,0H0V72H3Z" stroke="none"/>
      <path d="M 1 71 L 1 1 L 2 1 L 2 71 L 1 71 M 0 72 L 3 72 L 3 -1.410617465557731e-33 L 0 1.905856887674433e-17 L 0 72 Z" stroke="none" fill="#000"/>
    </g>
    <g id="Retângulo_780" data-name="Retângulo 780" transform="translate(158 315)">
      <path d="M3,0H0V72H3Z" stroke="none"/>
      <path d="M 1 71 L 1 1 L 2 1 L 2 71 L 1 71 M 0 72 L 3 72 L 3 -1.410617465557731e-33 L 0 1.905856887674433e-17 L 0 72 Z" stroke="none" fill="#000"/>
    </g>
    <g id="Retângulo_781" data-name="Retângulo 781" transform="translate(194 315)">
      <path d="M4,0H0V72H4Z" stroke="none"/>
      <path d="M 1 71 L 1 1 L 3 1 L 3 71 L 1 71 M 0 72 L 4 72 L 4 0 L 0 2.541142516899244e-17 L 0 72 Z" stroke="none" fill="#000"/>
    </g>
    <g id="Retângulo_782" data-name="Retângulo 782" transform="translate(145 315)">
      <path d="M4,0H0V72H4Z" stroke="none"/>
      <path d="M 1 71 L 1 1 L 3 1 L 3 71 L 1 71 M 0 72 L 4 72 L 4 0 L 0 2.541142516899244e-17 L 0 72 Z" stroke="none" fill="#000"/>
    </g>
    <g id="Retângulo_783" data-name="Retângulo 783" transform="translate(184 315)">
      <path d="M3,0H0V72H3Z" stroke="none"/>
      <path d="M 1 71 L 1 1 L 2 1 L 2 71 L 1 71 M 0 72 L 3 72 L 3 -1.410617465557731e-33 L 0 1.905856887674433e-17 L 0 72 Z" stroke="none" fill="#000"/>
    </g>
    <g id="Retângulo_784" data-name="Retângulo 784" transform="translate(189 315)">
      <path d="M1,0H0V72H1Z" stroke="none"/>
      <path d="M 0 72 L 1 72 L 1 0 L 0 6.35285629224811e-18 L 0 72 Z" stroke="none" fill="#000"/>
    </g>
    <g id="Retângulo_785" data-name="Retângulo 785" transform="translate(175 315)">
      <path d="M1,0H0V72H1Z" stroke="none"/>
      <path d="M 0 72 L 1 72 L 1 0 L 0 6.35285629224811e-18 L 0 72 Z" stroke="none" fill="#000"/>
    </g>
    <g id="Retângulo_786" data-name="Retângulo 786" transform="translate(172 315)">
      <path d="M1,0H0V72H1Z" stroke="none"/>
      <path d="M 0 72 L 1 72 L 1 0 L 0 6.35285629224811e-18 L 0 72 Z" stroke="none" fill="#000"/>
    </g>
    <g id="Retângulo_787" data-name="Retângulo 787" transform="translate(155 315)">
      <path d="M1,0H0V72H1Z" stroke="none"/>
      <path d="M 0 72 L 1 72 L 1 0 L 0 6.35285629224811e-18 L 0 72 Z" stroke="none" fill="#000"/>
    </g>
    <g id="Retângulo_788" data-name="Retângulo 788" transform="translate(178 315)">
      <path d="M2,0H0V72H2Z" stroke="none"/>
      <path d="M 1 71 L 1 1 L 1 71 M 0 72 L 2 72 L 2 0 L 0 1.270571258449622e-17 L 0 72 Z" stroke="none" fill="#000"/>
    </g>
    <text id="_8" data-name="8" transform="translate(82 399)" font-size="13" font-family="SegoeUI, Segoe UI" letter-spacing="0.001em"><tspan x="-3.504" y="0">8</tspan></text>
    <text id="_0" data-name="0" transform="translate(148 399)" font-size="13" font-family="SegoeUI, Segoe UI" letter-spacing="0.001em"><tspan x="-3.504" y="0">0</tspan></text>
    <text id="_9" data-name="9" transform="translate(92 399)" font-size="13" font-family="SegoeUI, Segoe UI" letter-spacing="0.001em"><tspan x="-3.504" y="0">9</tspan></text>
    <text id="_0-2" data-name="0" transform="translate(158 399)" font-size="13" font-family="SegoeUI, Segoe UI" letter-spacing="0.001em"><tspan x="-3.504" y="0">0</tspan></text>
    <text id="_0-3" data-name="0" transform="translate(103 399)" font-size="13" font-family="SegoeUI, Segoe UI" letter-spacing="0.001em"><tspan x="-3.504" y="0">0</tspan></text>
    <text id="_0-4" data-name="0" transform="translate(169 399)" font-size="13" font-family="SegoeUI, Segoe UI" letter-spacing="0.001em"><tspan x="-3.504" y="0">0</tspan></text>
    <text id="_0-5" data-name="0" transform="translate(113 399)" font-size="13" font-family="SegoeUI, Segoe UI" letter-spacing="0.001em"><tspan x="-3.504" y="0">0</tspan></text>
    <text id="_0-6" data-name="0" transform="translate(179 399)" font-size="13" font-family="SegoeUI, Segoe UI" letter-spacing="0.001em"><tspan x="-3.504" y="0">0</tspan></text>
    <text id="_0-7" data-name="0" transform="translate(124 399)" font-size="13" font-family="SegoeUI, Segoe UI" letter-spacing="0.001em"><tspan x="-3.504" y="0">0</tspan></text>
    <text id="_0-8" data-name="0" transform="translate(190 399)" font-size="13" font-family="SegoeUI, Segoe UI" letter-spacing="0.001em"><tspan x="-3.504" y="0">0</tspan></text>
    <text id="_0-9" data-name="0" transform="translate(134 399)" font-size="13" font-family="SegoeUI, Segoe UI" letter-spacing="0.001em"><tspan x="-3.504" y="0">0</tspan></text>
    <text id="_0-10" data-name="0" transform="translate(200 399)" font-size="13" font-family="SegoeUI, Segoe UI" letter-spacing="0.001em"><tspan x="-3.504" y="0">0</tspan></text>
    <text id="_7" data-name="7" transform="translate(67 399)" font-size="13" font-family="SegoeUI, Segoe UI" letter-spacing="0.001em"><tspan x="-3.504" y="0">7</tspan></text>
  </g>
</svg>
