<svg xmlns="http://www.w3.org/2000/svg" width="25.104" height="25.104" viewBox="0 0 25.104 25.104">
  <g id="Consultar_pedido" data-name="Consultar pedido" transform="translate(0.5 0.5)">
    <path id="Caminho_23082" data-name="Caminho 23082" d="M-7270.459-4210.511v3.74h16.689v-3.74Z" transform="translate(7270.459 4210.511)" fill="#0676b7" stroke="#0676b7" stroke-linecap="round" stroke-linejoin="round" stroke-width="1"/>
    <path id="Caminho_23084" data-name="Caminho 23084" d="M-7270.459-4210.511v3.74h16.689v-3.74Z" transform="translate(7270.459 4216.505)" fill="#35404d" stroke="#35404d" stroke-linecap="round" stroke-linejoin="round" stroke-width="1"/>
    <path id="Caminho_23086" data-name="Caminho 23086" d="M-7270.459-4210.511v3.74h16.689v-3.74Z" transform="translate(7270.459 4222.5)" fill="#0676b7" stroke="#0676b7" stroke-linecap="round" stroke-linejoin="round" stroke-width="1"/>
    <path id="Caminho_23083" data-name="Caminho 23083" d="M-7269.486-4209.538v1.086" transform="translate(7271.852 4210.865)" fill="none" stroke="#f5f5f5" stroke-linecap="round" stroke-width="1"/>
    <path id="Caminho_23085" data-name="Caminho 23085" d="M-7269.486-4209.538v1.086" transform="translate(7271.852 4216.859)" fill="none" stroke="#f5f5f5" stroke-linecap="round" stroke-width="1"/>
    <path id="Caminho_23087" data-name="Caminho 23087" d="M-7269.486-4209.538v1.086" transform="translate(7271.852 4222.854)" fill="none" stroke="#f5f5f5" stroke-linecap="round" stroke-width="1"/>
    <g id="Elipse_54" data-name="Elipse 54" transform="translate(8.943 7.806)" fill="none" stroke="#0ade19" stroke-width="1">
      <circle cx="5.995" cy="5.995" r="5.995" stroke="none"/>
      <circle cx="5.995" cy="5.995" r="5.495" fill="none"/>
    </g>
    <path id="Caminho_23088" data-name="Caminho 23088" d="M-7255.515-4194.718l4.664,5.391,1.012-.656.512-1.054-4.888-4.794Z" transform="translate(7273.433 4213.432)" fill="#00dd10" stroke="#00dd10" stroke-linecap="round" stroke-linejoin="round" stroke-width="1"/>
  </g>
</svg>
