<svg xmlns="http://www.w3.org/2000/svg" width="20.27" height="21.353" viewBox="0 0 20.27 21.353">
  <g id="Grupo_4789" data-name="Grupo 4789" transform="translate(0.5 0.5)">
    <g id="Grupo_4775" data-name="Grupo 4775">
      <path id="Caminho_23062" data-name="Caminho 23062" d="M-5013.485-2515.428v20.353h14.537v-14.488l-5.867-5.864Z" transform="translate(5013.485 2515.428)" fill="#157efb" stroke="#157efb" stroke-width="1"/>
      <path id="Caminho_23063" data-name="Caminho 23063" d="M-5007.547-2515.5v4.765l1.253,1.2,4.68-.085Z" transform="translate(5016.22 2515.505)" fill="#80b8fd" stroke="#80b8fd" stroke-linejoin="round" stroke-width="1"/>
    </g>
    <g id="Grupo_4776" data-name="Grupo 4776" transform="translate(3.757 2.311)">
      <path id="Caminho_23061" data-name="Caminho 23061" d="M-5003.17-2503.6s-1.247,2.252-.524,2.852,2.761-.844,2.761-.844l12.777-12.5-2.1-2.236-5.478,5.4Z" transform="translate(5003.919 2516.328)" fill="#e1e1e1" stroke="#9fcafd" stroke-linecap="round" stroke-linejoin="round" stroke-width="0.5"/>
      <path id="Caminho_23064" data-name="Caminho 23064" d="M-5034.852-2508.781a6.4,6.4,0,0,0-.41.936,3.555,3.555,0,0,0-.16.844,3.463,3.463,0,0,0,.844-.205,4.481,4.481,0,0,0,.822-.457Z" transform="translate(5036.139 2522.017)" fill="#5f6266" stroke="#5f6266" stroke-linejoin="round" stroke-width="0.5"/>
    </g>
  </g>
</svg>
