<svg xmlns="http://www.w3.org/2000/svg" width="21" height="20" viewBox="0 0 21 20">
  <g id="Grupo_4788" data-name="Grupo 4788" transform="translate(-0.311)">
    <g id="Caminho_23065" data-name="Caminho 23065" transform="translate(0.311)" fill="#c01a18" stroke-linecap="round" stroke-linejoin="round">
      <path d="M 14.63653469085693 19.45487022399902 L 10.4837703704834 18.72388076782227 L 10.39498996734619 18.70825004577637 L 10.30634021759033 18.724609375 L 6.368015289306641 19.45145606994629 L 4.048319816589355 16.29704093933105 L 3.996740102767944 16.22690963745117 L 3.924499988555908 16.17832946777344 L 0.5643704533576965 13.91908073425293 L 1.46382999420166 10.00920963287354 L 1.490280032157898 9.894260406494141 L 1.462560057640076 9.779609680175781 L 0.5720898509025574 6.096445083618164 L 3.904010057449341 4.084000110626221 L 3.996730089187622 4.027999877929688 L 4.05797004699707 3.938640117645264 L 6.383494853973389 0.544910192489624 L 10.31606960296631 1.190659999847412 L 10.39521980285645 1.203660011291504 L 10.47445011138916 1.191249966621399 L 14.62123584747314 0.5418044328689575 L 17.04534912109375 3.946039915084839 L 17.10360908508301 4.027860164642334 L 17.18894958496094 4.080830097198486 L 20.43640899658203 6.096540451049805 L 19.63299942016602 9.790860176086426 L 19.61045074462891 9.894530296325684 L 19.63195037841797 9.998430252075195 L 20.4432487487793 13.91909408569336 L 17.16840934753418 16.18190956115723 L 17.10337066650391 16.22685050964355 L 17.05536079406738 16.28965950012207 L 14.63653469085693 19.45487022399902 Z" stroke="none"/>
      <path d="M 14.39323806762695 1.083608627319336 L 10.55181980133057 1.685230255126953 C 10.44683933258057 1.70167350769043 10.33990955352783 1.701271057128906 10.23505020141602 1.684049606323242 L 6.616220474243164 1.089818954467773 L 4.470420837402344 4.221269607543945 C 4.389720916748047 4.33905029296875 4.284730911254883 4.438179969787598 4.162509918212891 4.511989593505859 L 1.144180297851562 6.335029602050781 L 1.94856071472168 9.662110328674316 C 1.985010147094727 9.812910079956055 1.985889434814453 9.970109939575195 1.951099395751953 10.12129974365234 L 1.128738403320312 13.69603729248047 L 4.203479766845703 15.76340007781982 C 4.299089431762695 15.82769012451172 4.382869720458984 15.90801048278809 4.451129913330078 16.00082015991211 L 6.585278511047363 18.90292167663574 L 10.21560001373291 18.23291969299316 C 10.33284950256348 18.21128082275391 10.45302104949951 18.21077919006348 10.57044982910156 18.23144912719727 L 14.42383575439453 18.90974235534668 L 16.6580810546875 15.98607063293457 C 16.7216911315918 15.90283012390137 16.79798889160156 15.83011054992676 16.88417053222656 15.77054977416992 L 19.88650321960449 13.69602680206299 L 19.14233016967773 10.09974956512451 C 19.11397933959961 9.962739944458008 19.11469078063965 9.821319580078125 19.1444206237793 9.684610366821289 L 19.87282180786133 6.335197448730469 L 16.92527008056641 4.505640029907227 C 16.8126106262207 4.435709953308105 16.71498107910156 4.344079971313477 16.63805961608887 4.23606014251709 L 14.39323806762695 1.083608627319336 M 6.150759696960449 0 L 10.39708995819092 0.6972694396972656 L 14.84923934936523 0 L 17.45264053344727 3.656009674072266 L 21 5.857870101928711 L 20.12158012390137 9.897109985351562 L 21 14.14213943481445 L 17.45264053344727 16.59325981140137 L 14.84923934936523 20 L 10.39708995819092 19.21631050109863 L 6.150759696960449 20 L 3.645509719848633 16.59325981140137 L 0 14.14212989807129 L 0.9765605926513672 9.897109985351562 L 0 5.85785961151123 L 3.645509719848633 3.656009674072266 L 6.150759696960449 0 Z" stroke="none" fill="#c01a18"/>
    </g>
    <text id="_" data-name="%" transform="translate(4.311 16)" fill="#fff" font-size="16" font-family="Roboto-Regular, Roboto" letter-spacing="0.001em"><tspan x="0" y="0">%</tspan></text>
  </g>
</svg>
