<svg xmlns="http://www.w3.org/2000/svg" width="19.572" height="20.412" viewBox="0 0 19.572 20.412">
  <g id="Componente_79_3" data-name="Componente 79 – 3" transform="translate(0.5 0.5)">
    <path id="Caminho_23073" data-name="Caminho 23073" d="M-7633.24-5569.414v17.033h16.872v-17.033Z" transform="translate(7633.24 5569.414)" fill="none" stroke="#4f4f4f" stroke-linecap="round" stroke-linejoin="round" stroke-width="1"/>
    <path id="Caminho_23074" data-name="Caminho 23074" d="M-7633.24-5567.251h16.922v-2.083h-16.922Z" transform="translate(7633.24 5569.397)" fill="#4f4f4f" stroke="#4f4f4f" stroke-linecap="round" stroke-linejoin="round" stroke-width="1"/>
    <path id="Caminho_23075" data-name="Caminho 23075" d="M-7632.2-5565.665v13.164h15.3v-13.164Z" transform="translate(7633.022 5568.631)" fill="none" stroke="#b2b2b2" stroke-width="1"/>
    <path id="Caminho_23076" data-name="Caminho 23076" d="M-7630.759-5561.352h4.341" transform="translate(7632.166 5567.731)" fill="none" stroke="#707070" stroke-width="1"/>
    <path id="Caminho_23078" data-name="Caminho 23078" d="M-7630.759-5561.352h4.341" transform="translate(7632.166 5574.062)" fill="none" stroke="#707070" stroke-width="1"/>
    <path id="Caminho_23077" data-name="Caminho 23077" d="M-7630.759-5561.352h4.341" transform="translate(7632.166 5566.667)" fill="none" stroke="#bdbdbd" stroke-width="1"/>
    <path id="Caminho_23079" data-name="Caminho 23079" d="M-7630.759-5561.352h4.341" transform="translate(7632.166 5572.997)" fill="none" stroke="#bdbdbd" stroke-width="1"/>
    <path id="Caminho_23080" data-name="Caminho 23080" d="M-7624.539-5563.523v2.67h6.562v-2.67Z" transform="translate(7632.216 5568.184)" fill="none" stroke="#0ade19" stroke-linecap="round" stroke-linejoin="round" stroke-width="2"/>
    <g id="Grupo_4800" data-name="Grupo 4800" transform="translate(7.677 8.517)">
      <circle id="Elipse_53" data-name="Elipse 53" cx="5.698" cy="5.698" r="5.698" transform="translate(0 0)" fill="#00dd10"/>
      <g id="Grupo_4768" data-name="Grupo 4768" transform="translate(2.532 2.532)">
        <line id="Linha_430" data-name="Linha 430" y2="6.331" transform="translate(3.165)" fill="none" stroke="#fff" stroke-linecap="round" stroke-width="1"/>
        <line id="Linha_431" data-name="Linha 431" y2="6.331" transform="translate(6.331 3.165) rotate(90)" fill="none" stroke="#fff" stroke-linecap="round" stroke-width="1"/>
      </g>
    </g>
  </g>
</svg>
