<svg xmlns="http://www.w3.org/2000/svg" width="26.644" height="18.035" viewBox="0 0 26.644 18.035">
  <g id="Grupo_4784" data-name="Grupo 4784" transform="translate(0.1 0.1)">
    <g id="Grupo_4783" data-name="Grupo 4783">
      <g id="Grupo_4767" data-name="Grupo 4767">
        <path id="Caminho_23055" data-name="Caminho 23055" d="M-5297.342-2448.974c5.293,1.361,9.981,2.722,10.132,2.117s.023-16.637.023-16.637l-1.714.307-8.441,1.51v12.7" transform="translate(5299.796 2464.102)" fill="#35404d" stroke="#35404d" stroke-linecap="round" stroke-linejoin="round" stroke-width="1"/>
        <path id="Caminho_23056" data-name="Caminho 23056" d="M-5290-2446.71l9.164-1.391v-13.6l-9.164-1.79Z" transform="translate(5302.671 2464.102)" fill="#fff" stroke="#35404d" stroke-linecap="square" stroke-linejoin="round" stroke-width="1"/>
        <path id="Caminho_23058" data-name="Caminho 23058" d="M-5289.547-2463.4l3,5.8,8.986.716-3.536-5.208Z" transform="translate(5302.829 2464.138)" fill="#35404d" stroke="#35404d" stroke-linecap="round" stroke-linejoin="round" stroke-width="0.3"/>
        <g id="Grupo_4762" data-name="Grupo 4762">
          <path id="Caminho_23059" data-name="Caminho 23059" d="M-5289.488-2456.924l2.6-6.685-10.744,1.758-1.93,5.339Z" transform="translate(5299.558 2463.609)" fill="#35404d" stroke="#fff" stroke-linecap="round" stroke-linejoin="round" stroke-width="0.2"/>
        </g>
      </g>
      <g id="Grupo_4769" data-name="Grupo 4769" transform="translate(14.042 5.434)">
        <circle id="Elipse_53" data-name="Elipse 53" cx="6.251" cy="6.251" r="6.251" fill="#00dd10"/>
        <g id="Grupo_4768" data-name="Grupo 4768" transform="translate(2.778 2.778)">
          <line id="Linha_430" data-name="Linha 430" y2="6.946" transform="translate(3.473)" fill="none" stroke="#fff" stroke-linecap="round" stroke-width="1"/>
          <line id="Linha_431" data-name="Linha 431" y2="6.946" transform="translate(6.946 3.473) rotate(90)" fill="none" stroke="#fff" stroke-linecap="round" stroke-width="1"/>
        </g>
      </g>
    </g>
  </g>
</svg>
