<svg id="Relatório" xmlns="http://www.w3.org/2000/svg" width="20" height="25" viewBox="0 0 20 25">
  <g id="Retângulo_689" data-name="Retângulo 689" fill="none" stroke="#707070" stroke-width="1">
    <rect width="20" height="25" rx="3" stroke="none"/>
    <rect x="0.5" y="0.5" width="19" height="24" rx="2.5" fill="none"/>
  </g>
  <g id="Grupo_4334" data-name="Grupo 4334" transform="translate(2.949 3.261)">
    <path id="Caminho_22776" data-name="Caminho 22776" d="M83.1-1302.03l1.476,1.524L87.127-1303" transform="translate(-83.102 1303)" fill="none" stroke="#2af1ff" stroke-linecap="round" stroke-linejoin="round" stroke-width="1"/>
    <path id="Caminho_22777" data-name="Caminho 22777" d="M89.249,244.147h8.632" transform="translate(-83.832 -242.9)" fill="none" stroke="#707070" stroke-linecap="round" stroke-width="1"/>
  </g>
  <g id="Grupo_4335" data-name="Grupo 4335" transform="translate(2.949 7.609)">
    <path id="Caminho_22776-2" data-name="Caminho 22776" d="M83.1-1302.03l1.476,1.524L87.127-1303" transform="translate(-83.102 1303)" fill="none" stroke="#2af1ff" stroke-linecap="round" stroke-linejoin="round" stroke-width="1"/>
    <path id="Caminho_22777-2" data-name="Caminho 22777" d="M89.249,244.147h8.632" transform="translate(-83.832 -242.9)" fill="none" stroke="#707070" stroke-linecap="round" stroke-width="1"/>
  </g>
  <g id="Grupo_4336" data-name="Grupo 4336" transform="translate(2.949 11.957)">
    <path id="Caminho_22776-3" data-name="Caminho 22776" d="M83.1-1302.03l1.476,1.524L87.127-1303" transform="translate(-83.102 1303)" fill="none" stroke="#2af1ff" stroke-linecap="round" stroke-linejoin="round" stroke-width="1"/>
    <path id="Caminho_22777-3" data-name="Caminho 22777" d="M89.249,244.147h8.632" transform="translate(-83.832 -242.9)" fill="none" stroke="#707070" stroke-linecap="round" stroke-width="1"/>
  </g>
  <g id="Grupo_4337" data-name="Grupo 4337" transform="translate(2.975 16.304)">
    <path id="Caminho_22776-4" data-name="Caminho 22776" d="M83.1-1302.03l1.476,1.524L87.127-1303" transform="translate(-83.102 1303)" fill="none" stroke="#2af1ff" stroke-linecap="round" stroke-linejoin="round" stroke-width="1"/>
    <path id="Caminho_22777-4" data-name="Caminho 22777" d="M89.249,244.147h8.632" transform="translate(-83.832 -242.9)" fill="none" stroke="#707070" stroke-linecap="round" stroke-width="1"/>
  </g>
  <path id="Caminho_22778" data-name="Caminho 22778" d="M83.8-1286.643H98.122" transform="translate(-80.962 1308.77)" fill="none" stroke="#707070" stroke-linecap="round" stroke-width="1"/>
</svg>
