<svg xmlns="http://www.w3.org/2000/svg" width="25.393" height="29.982" viewBox="0 0 25.393 29.982">
  <g id="Solicitar_Autorização" data-name="Solicitar Autorização" transform="translate(0.5 0.5)">
    <g id="Relatório" transform="translate(5.893 6.482)">
      <g id="Retângulo_689" data-name="Retângulo 689" fill="none" stroke="#707070" stroke-width="1">
        <rect width="19" height="23" rx="3" stroke="none"/>
        <rect x="0.5" y="0.5" width="18" height="22" rx="2.5" fill="none"/>
      </g>
      <g id="Grupo_4334" data-name="Grupo 4334" transform="translate(-81.301 -240)">
        <path id="Caminho_22776" data-name="Caminho 22776" d="M83.1-1302.108l1.4,1.4L86.926-1303" transform="translate(1 1546)" fill="none" stroke="#2af1ff" stroke-linecap="round" stroke-linejoin="round" stroke-width="1"/>
        <path id="Caminho_22777" data-name="Caminho 22777" d="M89.249,244.147h8.2" transform="translate(0 0)" fill="none" stroke="#707070" stroke-linecap="round" stroke-width="1"/>
      </g>
      <g id="Grupo_4335" data-name="Grupo 4335" transform="translate(-81.301 -236)">
        <path id="Caminho_22776-2" data-name="Caminho 22776" d="M83.1-1302.108l1.4,1.4L86.926-1303" transform="translate(1 1546)" fill="none" stroke="#2af1ff" stroke-linecap="round" stroke-linejoin="round" stroke-width="1"/>
        <path id="Caminho_22777-2" data-name="Caminho 22777" d="M89.249,244.147h8.2" transform="translate(0 0)" fill="none" stroke="#707070" stroke-linecap="round" stroke-width="1"/>
      </g>
      <g id="Grupo_4336" data-name="Grupo 4336" transform="translate(-81.301 -232)">
        <path id="Caminho_22776-3" data-name="Caminho 22776" d="M83.1-1302.108l1.4,1.4L86.926-1303" transform="translate(1 1546)" fill="none" stroke="#2af1ff" stroke-linecap="round" stroke-linejoin="round" stroke-width="1"/>
        <path id="Caminho_22777-3" data-name="Caminho 22777" d="M89.249,244.147h8.2" transform="translate(0 0)" fill="none" stroke="#707070" stroke-linecap="round" stroke-width="1"/>
      </g>
      <g id="Grupo_4337" data-name="Grupo 4337" transform="translate(-81.276 -228)">
        <path id="Caminho_22776-4" data-name="Caminho 22776" d="M83.1-1302.108l1.4,1.4L86.926-1303" transform="translate(1 1546)" fill="none" stroke="#2af1ff" stroke-linecap="round" stroke-linejoin="round" stroke-width="1"/>
        <path id="Caminho_22777-4" data-name="Caminho 22777" d="M89.249,244.147h8.2" transform="translate(0 0)" fill="none" stroke="#707070" stroke-linecap="round" stroke-width="1"/>
      </g>
      <path id="Caminho_22778" data-name="Caminho 22778" d="M83.8-1286.643h13.6" transform="translate(-81.104 1307)" fill="none" stroke="#707070" stroke-linecap="round" stroke-width="1"/>
    </g>
    <path id="Caminho_23116" data-name="Caminho 23116" d="M-7802.393-4344.5h-3.257v-10.571h-3.115l4.98-7.412,4.806,7.412h-3.413Z" transform="translate(7808.766 4362.482)" fill="#00a3ff" stroke="#707070" stroke-linecap="round" stroke-linejoin="round" stroke-width="1"/>
  </g>
</svg>
