<svg xmlns="http://www.w3.org/2000/svg" width="18.728" height="25.536" viewBox="0 0 18.728 25.536">
  <g id="Componente_95_10" data-name="Componente 95 – 10" transform="translate(0 0.5)">
    <g id="Retângulo_863" data-name="Retângulo 863" transform="translate(0 3.632)" fill="#fff" stroke="#555" stroke-width="1">
      <rect width="18.728" height="21.404" rx="2" stroke="none"/>
      <rect x="0.5" y="0.5" width="17.728" height="20.404" rx="1.5" fill="none"/>
    </g>
    <path id="Caminho_23233" data-name="Caminho 23233" d="M-5512.723-5340.52c.478.557,1.871,2.308,1.871,2.308l3.3-3.144" transform="translate(5515.646 5350.022)" fill="none" stroke="#ff1919" stroke-linecap="round" stroke-linejoin="round" stroke-width="1"/>
    <path id="Caminho_23242" data-name="Caminho 23242" d="M-5512.723-5340.52c.478.557,1.871,2.308,1.871,2.308l3.3-3.144" transform="translate(5515.646 5354.404)" fill="none" stroke="#ff1919" stroke-linecap="round" stroke-linejoin="round" stroke-width="1"/>
    <path id="Caminho_23243" data-name="Caminho 23243" d="M-5512.723-5340.52c.478.557,1.871,2.308,1.871,2.308l3.3-3.144" transform="translate(5515.646 5358.863)" fill="none" stroke="#ff1919" stroke-linecap="round" stroke-linejoin="round" stroke-width="1"/>
    <path id="Caminho_23236" data-name="Caminho 23236" d="M-5504.33-5339.592h1.393v1.412h2.349v-1.412h1.433" transform="translate(5514.735 5349.913)" fill="none" stroke="#2f6977" stroke-linecap="round" stroke-linejoin="round" stroke-width="1"/>
    <path id="Caminho_23238" data-name="Caminho 23238" d="M-5504.33-5339.592h1.393v1.412h2.349v-1.412h1.433" transform="translate(5514.735 5354.372)" fill="none" stroke="#2f6977" stroke-linecap="round" stroke-linejoin="round" stroke-width="1"/>
    <path id="Caminho_23240" data-name="Caminho 23240" d="M-5504.33-5339.592h1.393v1.412h2.349v-1.412h1.433" transform="translate(5514.755 5358.749)" fill="none" stroke="#2f6977" stroke-linecap="round" stroke-linejoin="round" stroke-width="1"/>
    <path id="Caminho_23237" data-name="Caminho 23237" d="M-5502.727-5339.391h2.348" transform="translate(5514.565 5349.712)" fill="none" stroke="#2f6977" stroke-width="1"/>
    <path id="Caminho_23239" data-name="Caminho 23239" d="M-5502.727-5339.391h2.348" transform="translate(5514.565 5354.171)" fill="none" stroke="#2f6977" stroke-width="1"/>
    <path id="Caminho_23241" data-name="Caminho 23241" d="M-5502.727-5339.391h2.348" transform="translate(5514.585 5358.548)" fill="none" stroke="#2f6977" stroke-width="1"/>
    <path id="Subtração_5" data-name="Subtração 5" d="M10.042,6.459H0V2.633l3.37-.061V0H6.492V2.572l3.55.061V6.458ZM4.9.065A1.338,1.338,0,1,0,6.243,1.4,1.34,1.34,0,0,0,4.9.065Z" transform="translate(4.343)" fill="#00cfff" stroke="#00cfff" stroke-linecap="round" stroke-linejoin="round" stroke-width="1"/>
  </g>
</svg>
