<svg xmlns="http://www.w3.org/2000/svg" width="21.102" height="25.431" viewBox="0 0 21.102 25.431">
  <g id="Estornar" transform="translate(0.5)">
    <g id="Retângulo_695" data-name="Retângulo 695" transform="translate(5.874 7.693)" fill="#54584c" stroke="#53574b" stroke-width="1">
      <rect width="14.367" height="17.738" rx="2" stroke="none"/>
      <rect x="0.5" y="0.5" width="13.367" height="16.738" rx="1.5" fill="none"/>
    </g>
    <g id="Grupo_4349" data-name="Grupo 4349" transform="translate(9.182 11.019)">
      <line id="Linha_4" data-name="Linha 4" y2="11.086" transform="translate(3.781)" fill="none" stroke="#fff" stroke-linecap="round" stroke-width="2"/>
      <line id="Linha_5" data-name="Linha 5" y2="11.086" transform="translate(7.562)" fill="none" stroke="#fff" stroke-linecap="round" stroke-width="2"/>
      <line id="Linha_6" data-name="Linha 6" y2="11.086" fill="none" stroke="#fff" stroke-linecap="round" stroke-width="2"/>
    </g>
    <g id="Grupo_4350" data-name="Grupo 4350" transform="translate(7.717 0.062) rotate(20)">
      <path id="Caminho_22788" data-name="Caminho 22788" d="M13.58,1.106l-13.589.1L0,0,6.757-.049,13.589-.1Z" transform="translate(-0.012 1.602)" fill="#54584c" stroke="#54584c" stroke-linejoin="round" stroke-width="1"/>
      <path id="Caminho_22789" data-name="Caminho 22789" d="M-.012,1.6,0,0,2.3-.017l-.012,1.6" transform="translate(5.691 -0.041)" fill="#54584c" stroke="#54584c" stroke-linejoin="round" stroke-width="1"/>
    </g>
    <path id="Caminho_22788-2" data-name="Caminho 22788" d="M6.162.047C.88-.48,1.194,3.588,1.194,3.588H0l1.874,2,1.959-2H2.491A4.059,4.059,0,0,1,5.738.086,2.969,2.969,0,0,1,6.162.047" transform="translate(0 5.942)" fill="#0da03f" stroke="#0da03f" stroke-linecap="round" stroke-linejoin="round" stroke-width="1"/>
  </g>
</svg>
