<svg id="Componente_89_2" data-name="Componente 89 – 2" xmlns="http://www.w3.org/2000/svg" width="24.388" height="21.719" viewBox="0 0 24.388 21.719">
  <g id="Componente_87_2" data-name="Componente 87 – 2">
    <g id="Elipse_64" data-name="Elipse 64" transform="matrix(0.809, 0.588, -0.588, 0.809, 15.349, 0)" fill="none" stroke="#ffc107" stroke-width="0.6">
      <ellipse cx="4.702" cy="9.218" rx="4.702" ry="9.218" stroke="none"/>
      <ellipse cx="4.702" cy="9.218" rx="4.402" ry="8.918" fill="none"/>
    </g>
    <path id="Caminho_23205" data-name="Caminho 23205" d="M-7862.083-4014.439s1.954-1.919,1.954-2.04a14.4,14.4,0,0,1,.319-1.719,29.673,29.673,0,0,1,3.029-1.2l.6-.36.877-1.959.358-2.64.36.24.877-1.159s1.794-1.48.638-2.84l-.957.2-1.276-1.32h-1.117l-.718-.48-.438.48-.158-.76-1.636-.479-.757.479.757-.879h-1.356l.6-.76-.877-.36-.2-1.119-.718,1.28-.8-.161h-.837l.2.36-.639-.2-1.2.44a1.13,1.13,0,0,1-.239-1.4l-.358-.68-2.033.92.478.919-1.516.48-.557-.68-1.356.2.319,1.64-.319,1.4a3.8,3.8,0,0,0-1.594,1.279l.24,1.4.876.32.478-.32v.88h1.356l1.236-.88s-.04,1.119.6,1.559l1.794.48v1.239h1.236l.359.92-.359.959.159,1h1.037l.2.76.6.16-.16.879.479.28-.32.439-1.436,1.56Z" transform="translate(7873.872 4035.858)" fill="#8bd6f7" stroke="#49c3f2" stroke-linecap="round" stroke-linejoin="round" stroke-width="0.6"/>
    <g id="Caminho_23213" data-name="Caminho 23213" transform="translate(7832.019 4033.785)" fill="#78909c">
      <path d="M -7828.189453125 -4025.51708984375 L -7828.26611328125 -4025.51708984375 L -7827.9375 -4027.0751953125 L -7827.3798828125 -4029.7197265625 L -7828.189453125 -4025.51708984375 Z M -7828.4306640625 -4025.51708984375 L -7828.4814453125 -4025.51708984375 L -7829.30615234375 -4028.27880859375 L -7830.25 -4028.23583984375 L -7829.99169921875 -4029.763427734375 L -7829.759765625 -4029.763427734375 L -7828.90380859375 -4027.029052734375 L -7828.4306640625 -4025.51708984375 Z" stroke="none"/>
      <path d="M -7830.41455078125 -4030.263427734375 L -7829.392578125 -4030.263427734375 L -7828.4267578125 -4027.178466796875 L -7827.7763671875 -4030.263427734375 L -7826.76611328125 -4030.263427734375 L -7827.7763671875 -4025.01708984375 L -7828.85400390625 -4025.01708984375 L -7829.78515625 -4028.1357421875 L -7830.41455078125 -4025.01708984375 L -7831.30029296875 -4025.01708984375 L -7830.41455078125 -4030.263427734375 Z" stroke="none" fill="#78909c"/>
    </g>
    <g id="Caminho_23206" data-name="Caminho 23206" transform="translate(7831.3 4033.231)" fill="#eceff1">
      <path d="M -7828.189453125 -4025.51708984375 L -7828.26611328125 -4025.51708984375 L -7827.9375 -4027.0751953125 L -7827.3798828125 -4029.7197265625 L -7828.189453125 -4025.51708984375 Z M -7828.4306640625 -4025.51708984375 L -7828.4814453125 -4025.51708984375 L -7829.30615234375 -4028.27880859375 L -7830.25 -4028.23583984375 L -7829.99169921875 -4029.763427734375 L -7829.759765625 -4029.763427734375 L -7828.90380859375 -4027.029052734375 L -7828.4306640625 -4025.51708984375 Z" stroke="none"/>
      <path d="M -7830.41455078125 -4030.263427734375 L -7829.392578125 -4030.263427734375 L -7828.4267578125 -4027.178466796875 L -7827.7763671875 -4030.263427734375 L -7826.76611328125 -4030.263427734375 L -7827.7763671875 -4025.01708984375 L -7828.85400390625 -4025.01708984375 L -7829.78515625 -4028.1357421875 L -7830.41455078125 -4025.01708984375 L -7831.30029296875 -4025.01708984375 L -7830.41455078125 -4030.263427734375 Z" stroke="none" fill="#eceff1"/>
    </g>
    <g id="Caminho_23212" data-name="Caminho 23212" transform="translate(7828.285 4033.821)" fill="#78909c">
      <path d="M -7822.29833984375 -4025.55322265625 L -7822.33984375 -4025.55322265625 L -7821.47509765625 -4029.766357421875 L -7821.45849609375 -4029.766845703125 L -7821.53369140625 -4029.412109375 L -7821.75830078125 -4028.354248046875 L -7821.88623046875 -4027.75048828125 L -7821.26904296875 -4027.75048828125 L -7819.86669921875 -4027.75048828125 L -7819.884765625 -4027.65869140625 L -7821.48193359375 -4027.65869140625 L -7821.89501953125 -4027.65869140625 L -7821.97314453125 -4027.252685546875 L -7822.29833984375 -4025.55322265625 Z M -7819.34130859375 -4029.808349609375 L -7819.984375 -4029.808349609375 L -7819.33740234375 -4029.82666015625 L -7819.34130859375 -4029.808349609375 Z" stroke="none"/>
      <path d="M -7821.88525390625 -4025.05322265625 L -7822.95263671875 -4025.05322265625 L -7821.88525390625 -4030.2548828125 L -7818.72021484375 -4030.34423828125 L -7818.93408203125 -4029.308349609375 L -7821.04443359375 -4029.308349609375 L -7821.26904296875 -4028.25048828125 L -7819.259765625 -4028.25048828125 L -7819.47265625 -4027.15869140625 L -7821.48193359375 -4027.15869140625 L -7821.88525390625 -4025.05322265625 Z" stroke="none" fill="#78909c"/>
    </g>
    <g id="Caminho_23207" data-name="Caminho 23207" transform="translate(7827.566 4033.267)" fill="#eceff1">
      <path d="M -7822.29833984375 -4025.55322265625 L -7822.33984375 -4025.55322265625 L -7821.47509765625 -4029.766357421875 L -7821.45849609375 -4029.766845703125 L -7821.53369140625 -4029.412109375 L -7821.75830078125 -4028.354248046875 L -7821.88623046875 -4027.75048828125 L -7821.26904296875 -4027.75048828125 L -7819.86669921875 -4027.75048828125 L -7819.884765625 -4027.65869140625 L -7821.48193359375 -4027.65869140625 L -7821.89501953125 -4027.65869140625 L -7821.97314453125 -4027.252685546875 L -7822.29833984375 -4025.55322265625 Z M -7819.34130859375 -4029.808349609375 L -7819.984375 -4029.808349609375 L -7819.33740234375 -4029.82666015625 L -7819.34130859375 -4029.808349609375 Z" stroke="none"/>
      <path d="M -7821.88525390625 -4025.05322265625 L -7822.95263671875 -4025.05322265625 L -7821.88525390625 -4030.2548828125 L -7818.72021484375 -4030.34423828125 L -7818.93408203125 -4029.308349609375 L -7821.04443359375 -4029.308349609375 L -7821.26904296875 -4028.25048828125 L -7819.259765625 -4028.25048828125 L -7819.47265625 -4027.15869140625 L -7821.48193359375 -4027.15869140625 L -7821.88525390625 -4025.05322265625 Z" stroke="none" fill="#eceff1"/>
    </g>
    <g id="Subtração_2" data-name="Subtração 2" transform="translate(8.877 6.55)" fill="#78909c">
      <path d="M 2.048788785934448 7.977659225463867 L 2.027814626693726 7.977659225463867 C 1.361507415771484 7.95811653137207 0.9377948045730591 7.695934295654297 0.6224053502082825 7.104695796966553 C 0.228957399725914 5.308516979217529 0.8626393675804138 3.809378147125244 1.467838883399963 2.863969087600708 C 2.215398788452148 1.696519136428833 3.08539891242981 1.079349160194397 3.25213885307312 1.018139123916626 L 3.359388828277588 0.9816291332244873 L 3.427134037017822 0.9150238037109375 C 3.616575717926025 0.7901529669761658 4.528108596801758 0.4999991357326508 5.448878765106201 0.4999991357326508 C 6.847579002380371 0.4999991357326508 6.905738830566406 1.13611912727356 6.924849033355713 1.345149159431458 L 6.925258636474609 1.349679112434387 L 6.925758838653564 1.354209184646606 C 7.061989307403564 2.594814300537109 6.617644786834717 3.781189441680908 6.391005992889404 4.289319038391113 L 1.889058828353882 4.289319038391113 L 1.528088808059692 4.289319038391113 L 1.414478778839111 4.631938934326172 C 1.344518780708313 4.842879295349121 1.019778847694397 5.928668975830078 1.497718811035156 6.590589046478271 C 1.647838830947876 6.798748970031738 1.936438798904419 7.047149181365967 2.45780873298645 7.047149181365967 C 2.961222171783447 7.047149181365967 3.607567548751831 6.807292461395264 4.430778503417969 6.314518928527832 L 5.203575611114502 6.314518928527832 C 5.085355281829834 6.466664791107178 4.945008277893066 6.630254745483398 4.782758712768555 6.792129039764404 C 4.240908622741699 7.333009243011475 3.326838731765747 7.977659225463867 2.048788785934448 7.977659225463867 Z M 5.115938663482666 1.130089163780212 C 4.487418651580811 1.130089163780212 3.267488718032837 1.358229160308838 2.158878803253174 2.886169195175171 L 1.583048820495605 3.67979907989502 L 2.563578844070435 3.67979907989502 L 5.562188625335693 3.67979907989502 L 5.884368896484375 3.67979907989502 L 6.017498970031738 3.386409044265747 C 6.096697807312012 3.212492704391479 6.351980209350586 2.612390756607056 6.331894397735596 2.152099370956421 C 6.326279640197754 1.761438608169556 6.092554569244385 1.157699108123779 5.47800874710083 1.157699108123779 C 5.476970195770264 1.157699108123779 5.475931644439697 1.157701134681702 5.474895000457764 1.157704830169678 C 5.398179531097412 1.144893646240234 5.275087356567383 1.130089163780212 5.115938663482666 1.130089163780212 Z" stroke="none"/>
      <path d="M 1.920319557189941 7.470756053924561 C 1.583423137664795 7.369349956512451 1.298519492149353 7.16916561126709 1.092338800430298 6.883289337158203 C 1.089976072311401 6.880016803741455 1.087668418884277 6.876795768737793 1.085334420204163 6.873512268066406 C 1.088867783546448 6.891963481903076 1.092473149299622 6.910211563110352 1.096246004104614 6.928731918334961 C 1.298640131950378 7.282110691070557 1.531273603439331 7.435536861419678 1.920319557189941 7.470756053924561 M 2.048788785934448 8.477659225463867 L 2.020728826522827 8.477659225463867 C 1.146018862724304 8.454109191894531 0.5513688325881958 8.072769165039062 0.1488188207149506 7.277619361877441 C -0.311471164226532 5.285408973693848 0.3830088376998901 3.631229162216187 1.046728849411011 2.594399213790894 C 1.820528864860535 1.385969161987305 2.774568796157837 0.6525191068649292 3.090238809585571 0.5450791120529175 C 3.286118745803833 0.3537291288375854 4.391238689422607 -8.64105231812573e-07 5.448878765106201 -8.64105231812573e-07 C 6.294988632202148 -8.64105231812573e-07 7.324558734893799 0.2254491299390793 7.422768592834473 1.299629092216492 C 7.621888637542725 3.112949132919312 6.713718891143799 4.772809028625488 6.704548835754395 4.789319038391113 L 1.889058828353882 4.789319038391113 C 1.885828852653503 4.79905891418457 1.555048823356628 5.815869331359863 1.903088808059692 6.297889232635498 C 2.022348880767822 6.463249206542969 2.208508729934692 6.547149181365967 2.45780873298645 6.547149181365967 C 2.88464879989624 6.547149181365967 3.501418828964233 6.300599098205566 4.290868759155273 5.814518928527832 L 6.120148658752441 5.814518928527832 C 6.120688915252686 5.815598964691162 6.119608879089355 5.817229270935059 6.117989063262939 5.820199012756348 C 6.059178829193115 5.936849117279053 5.734869003295898 6.548509120941162 5.135898590087891 7.14608907699585 C 4.527218818664551 7.753689289093018 3.497098922729492 8.477659225463867 2.048788785934448 8.477659225463867 Z M 5.115938663482666 1.630089163780212 C 4.582798957824707 1.630089163780212 3.54188871383667 1.831449151039124 2.563578844070435 3.17979907989502 L 5.562188625335693 3.17979907989502 C 5.564888954162598 3.173849105834961 5.853038787841797 2.544059038162231 5.831998825073242 2.16650915145874 C 5.831998825073242 2.16136908531189 5.810948848724365 1.657699108123779 5.47800874710083 1.657699108123779 C 5.463449001312256 1.657699108123779 5.451028823852539 1.658509135246277 5.438618659973145 1.659859180450439 C 5.437538623809814 1.659589171409607 5.318288803100586 1.630089163780212 5.115938663482666 1.630089163780212 Z" stroke="none" fill="#78909c"/>
    </g>
    <g id="Subtração_1" data-name="Subtração 1" transform="translate(8.324 5.996)" fill="#fff">
      <path d="M 2.048788785934448 7.977659225463867 L 2.027814626693726 7.977659225463867 C 1.361507415771484 7.95811653137207 0.9377948045730591 7.695934295654297 0.6224053502082825 7.104695796966553 C 0.228957399725914 5.308516979217529 0.8626393675804138 3.809378147125244 1.467838883399963 2.863969087600708 C 2.215398788452148 1.696519136428833 3.08539891242981 1.079349160194397 3.25213885307312 1.018139123916626 L 3.359388828277588 0.9816291332244873 L 3.427134037017822 0.9150238037109375 C 3.616575717926025 0.7901529669761658 4.528108596801758 0.4999991357326508 5.448878765106201 0.4999991357326508 C 6.847579002380371 0.4999991357326508 6.905738830566406 1.13611912727356 6.924849033355713 1.345149159431458 L 6.925258636474609 1.349679112434387 L 6.925758838653564 1.354209184646606 C 7.061989307403564 2.594814300537109 6.617644786834717 3.781189441680908 6.391005992889404 4.289319038391113 L 1.889058828353882 4.289319038391113 L 1.528088808059692 4.289319038391113 L 1.414478778839111 4.631938934326172 C 1.344518780708313 4.842879295349121 1.019778847694397 5.928668975830078 1.497718811035156 6.590589046478271 C 1.647838830947876 6.798748970031738 1.936438798904419 7.047149181365967 2.45780873298645 7.047149181365967 C 2.961222171783447 7.047149181365967 3.607567548751831 6.807292461395264 4.430778503417969 6.314518928527832 L 5.203575611114502 6.314518928527832 C 5.085355281829834 6.466664791107178 4.945008277893066 6.630254745483398 4.782758712768555 6.792129039764404 C 4.240908622741699 7.333009243011475 3.326838731765747 7.977659225463867 2.048788785934448 7.977659225463867 Z M 5.115938663482666 1.130089163780212 C 4.487418651580811 1.130089163780212 3.267488718032837 1.358229160308838 2.158878803253174 2.886169195175171 L 1.583048820495605 3.67979907989502 L 2.563578844070435 3.67979907989502 L 5.562188625335693 3.67979907989502 L 5.884368896484375 3.67979907989502 L 6.017498970031738 3.386409044265747 C 6.096697807312012 3.212492704391479 6.351980209350586 2.612390756607056 6.331894397735596 2.152099370956421 C 6.326279640197754 1.761438608169556 6.092554569244385 1.157699108123779 5.47800874710083 1.157699108123779 C 5.476970195770264 1.157699108123779 5.475931644439697 1.157701134681702 5.474895000457764 1.157704830169678 C 5.398179531097412 1.144893646240234 5.275087356567383 1.130089163780212 5.115938663482666 1.130089163780212 Z" stroke="none"/>
      <path d="M 1.920319557189941 7.470756053924561 C 1.583423137664795 7.369349956512451 1.298519492149353 7.16916561126709 1.092338800430298 6.883289337158203 C 1.089976072311401 6.880016803741455 1.087668418884277 6.876795768737793 1.085334420204163 6.873512268066406 C 1.088867783546448 6.891963481903076 1.092473149299622 6.910211563110352 1.096246004104614 6.928731918334961 C 1.298640131950378 7.282110691070557 1.531273603439331 7.435536861419678 1.920319557189941 7.470756053924561 M 2.048788785934448 8.477659225463867 L 2.020728826522827 8.477659225463867 C 1.146018862724304 8.454109191894531 0.5513688325881958 8.072769165039062 0.1488188207149506 7.277619361877441 C -0.311471164226532 5.285408973693848 0.3830088376998901 3.631229162216187 1.046728849411011 2.594399213790894 C 1.820528864860535 1.385969161987305 2.774568796157837 0.6525191068649292 3.090238809585571 0.5450791120529175 C 3.286118745803833 0.3537291288375854 4.391238689422607 -8.64105231812573e-07 5.448878765106201 -8.64105231812573e-07 C 6.294988632202148 -8.64105231812573e-07 7.324558734893799 0.2254491299390793 7.422768592834473 1.299629092216492 C 7.621888637542725 3.112949132919312 6.713718891143799 4.772809028625488 6.704548835754395 4.789319038391113 L 1.889058828353882 4.789319038391113 C 1.885828852653503 4.79905891418457 1.555048823356628 5.815869331359863 1.903088808059692 6.297889232635498 C 2.022348880767822 6.463249206542969 2.208508729934692 6.547149181365967 2.45780873298645 6.547149181365967 C 2.88464879989624 6.547149181365967 3.501418828964233 6.300599098205566 4.290868759155273 5.814518928527832 L 6.120148658752441 5.814518928527832 C 6.120688915252686 5.815598964691162 6.119608879089355 5.817229270935059 6.117989063262939 5.820199012756348 C 6.059178829193115 5.936849117279053 5.734869003295898 6.548509120941162 5.135898590087891 7.14608907699585 C 4.527218818664551 7.753689289093018 3.497098922729492 8.477659225463867 2.048788785934448 8.477659225463867 Z M 5.115938663482666 1.630089163780212 C 4.582798957824707 1.630089163780212 3.54188871383667 1.831449151039124 2.563578844070435 3.17979907989502 L 5.562188625335693 3.17979907989502 C 5.564888954162598 3.173849105834961 5.853038787841797 2.544059038162231 5.831998825073242 2.16650915145874 C 5.831998825073242 2.16136908531189 5.810948848724365 1.657699108123779 5.47800874710083 1.657699108123779 C 5.463449001312256 1.657699108123779 5.451028823852539 1.658509135246277 5.438618659973145 1.659859180450439 C 5.437538623809814 1.659589171409607 5.318288803100586 1.630089163780212 5.115938663482666 1.630089163780212 Z" stroke="none" fill="#fff"/>
    </g>
    <g id="Elipse_63" data-name="Elipse 63" transform="matrix(0.809, 0.588, -0.588, 0.809, 14.267, 0)" fill="none" stroke="#388e3c" stroke-width="0.6">
      <ellipse cx="4.702" cy="9.218" rx="4.702" ry="9.218" stroke="none"/>
      <ellipse cx="4.702" cy="9.218" rx="4.402" ry="8.918" fill="none"/>
    </g>
  </g>
  <g id="Ordem_de_serviço" data-name="Ordem de serviço" transform="translate(9.183 7.908)">
    <path id="Caminho_23094" data-name="Caminho 23094" d="M-7658.392-4277.489v7.316h8.345v-4.644l-2.7-2.672Z" transform="translate(7661.572 4277.489)" fill="#fff" stroke="#a6abb1" stroke-linecap="round" stroke-linejoin="round" stroke-width="1"/>
    <path id="Caminho_23093" data-name="Caminho 23093" d="M-7647.23-4263.6v-5.219h-14.706v5.219Z" transform="translate(7661.936 4276.132)" fill="#35404d" stroke="#35404d" stroke-linecap="round" stroke-linejoin="round" stroke-width="1"/>
    <line id="Linha_514" data-name="Linha 514" y2="2.062" transform="translate(3.805 9.925) rotate(90)" fill="none" stroke="#448666" stroke-linecap="round" stroke-width="1"/>
    <line id="Linha_517" data-name="Linha 517" y2="2.062" transform="translate(6.682 9.925) rotate(90)" fill="none" stroke="#835258" stroke-linecap="round" stroke-width="1"/>
    <line id="Linha_515" data-name="Linha 515" y2="2.043" transform="translate(2.774 8.904)" fill="none" stroke="#448666" stroke-linecap="round" stroke-width="1"/>
    <line id="Linha_518" data-name="Linha 518" y2="2.043" transform="translate(5.651 8.903)" fill="none" stroke="#835258" stroke-linecap="round" stroke-width="1"/>
    <line id="Linha_516" data-name="Linha 516" y1="0.071" transform="translate(2.774 9.854)" fill="none" stroke="#00bb43" stroke-linecap="round" stroke-width="1"/>
    <line id="Linha_519" data-name="Linha 519" y1="0.071" transform="translate(5.651 9.854)" fill="none" stroke="#c01a18" stroke-linecap="round" stroke-width="1"/>
    <path id="Caminho_23095" data-name="Caminho 23095" d="M-7651.6-4277.489l2.753,2.717h-2.753Z" transform="translate(7660.4 4277.489)" fill="#35404d" stroke="#35404d" stroke-linecap="round" stroke-linejoin="round" stroke-width="1"/>
    <path id="Caminho_23096" data-name="Caminho 23096" d="M-7651.73-4270.515v-1.957h-4.826v1.957Z" transform="translate(7660.975 4276.672)" fill="#afeeff" stroke="#81e4ff" stroke-linejoin="round" stroke-width="1"/>
  </g>
</svg>
