<svg xmlns="http://www.w3.org/2000/svg" width="25" height="25" viewBox="0 0 25 25">
  <g id="Componente_78_2" data-name="Componente 78 – 2" transform="translate(0.5 0.5)">
    <path id="Caminho_23003" data-name="Caminho 23003" d="M-1804.893-7961.335v-16.241l-6.381-6.473h-16.618c-.616,0-1,.407-1,1.3v21.3c0,.859.253,1.4,1,1.4h21.924A1.166,1.166,0,0,0-1804.893-7961.335Z" transform="translate(1828.893 7984.049)" fill="#0087b1" stroke="#0087b1" stroke-linecap="round" stroke-linejoin="round" stroke-width="1"/>
    <path id="Caminho_23004" data-name="Caminho 23004" d="M-1806.451-7960.463v-6.7h-17.585v6.7Z" transform="translate(1827.16 7980.516)" fill="#fff" stroke="#fff" stroke-linecap="round" stroke-linejoin="round" stroke-width="1"/>
    <path id="Caminho_23006" data-name="Caminho 23006" d="M-1820.361-7960.47h13.646" transform="translate(1825.364 7975.764)" fill="#2f2f2f" stroke="#2f2f2f" stroke-linecap="round" stroke-width="1.5"/>
    <path id="Caminho_23009" data-name="Caminho 23009" d="M-1820.361-7960.47h13.646" transform="translate(1825.364 7977.994)" fill="#2f2f2f" stroke="#2f2f2f" stroke-linecap="round" stroke-width="1.5"/>
    <path id="Caminho_23007" data-name="Caminho 23007" d="M-1812.983-7977.916v-5.969h-11.242v5.969Z" transform="translate(1827.227 7984.316)" fill="#fff" stroke="#fff" stroke-linecap="round" stroke-linejoin="round" stroke-width="1"/>
    <path id="Caminho_23008" data-name="Caminho 23008" d="M-1814.1-7978.9v-3.758h1.758v3.758Z" transform="translate(1825.996 7984.197)" stroke="#000" stroke-linecap="round" stroke-linejoin="round" stroke-width="1"/>
  </g>
</svg>
