<svg xmlns="http://www.w3.org/2000/svg" width="23.696" height="26.002" viewBox="0 0 23.696 26.002">
  <g id="Componente_94_2" data-name="Componente 94 – 2" transform="translate(1.017 1)">
    <path id="Caminho_23217" data-name="Caminho 23217" d="M-7302.883-4779.978c2.535,2.388,5.572,6.181,3.908,13.169s-10.316,7.067-11.716,7.032" transform="translate(7319.999 4781.882)" fill="none" stroke="#35404d" stroke-linecap="round" stroke-linejoin="round" stroke-width="2.4"/>
    <path id="Caminho_23218" data-name="Caminho 23218" d="M-7308.5-4766.907v4.875l-3.468-2.478Z" transform="translate(7317.147 4786.534)" fill="#35404d" stroke="#35404d" stroke-linecap="round" stroke-linejoin="round" stroke-width="1"/>
    <text id="_24" data-name="24" transform="translate(10.999 14.882)" fill="#05a5ff" font-size="9" font-family="Roboto-Medium, Roboto" font-weight="500"><tspan x="-5.115" y="0">24</tspan></text>
    <path id="Caminho_23219" data-name="Caminho 23219" d="M-7306.559-4781.882V-4779" transform="translate(7318.156 4781.882)" fill="none" stroke="#c01a18" stroke-linecap="round" stroke-width="2"/>
    <path id="Caminho_23220" data-name="Caminho 23220" d="M0,0V2.878" transform="translate(5.871 1.206) rotate(-31)" fill="none" stroke="#c01a18" stroke-linecap="round" stroke-width="2"/>
    <path id="Caminho_23221" data-name="Caminho 23221" d="M0,0V2.878" transform="translate(1.168 6.076) rotate(-62)" fill="none" stroke="#c01a18" stroke-linecap="round" stroke-width="2"/>
    <path id="Caminho_23222" data-name="Caminho 23222" d="M0,0V2.878" transform="matrix(0.017, -1, 1, 0.017, 0, 11.763)" fill="none" stroke="#c01a18" stroke-linecap="round" stroke-width="2"/>
    <path id="Caminho_23223" data-name="Caminho 23223" d="M0,0V2.878" transform="matrix(-0.602, -0.799, 0.799, -0.602, 1.12, 17.769)" fill="none" stroke="#c01a18" stroke-linecap="round" stroke-width="2"/>
  </g>
</svg>
