<svg xmlns="http://www.w3.org/2000/svg" width="21.104" height="21.104" viewBox="0 0 21.104 21.104">
  <g id="Consultar_pedido" data-name="Consultar pedido" transform="translate(0.5 0.5)">
    <path id="Caminho_23082" data-name="Caminho 23082" d="M-7270.459-4210.511v3.12h13.92v-3.12Z" transform="translate(7270.459 4210.511)" fill="#0676b7" stroke="#0676b7" stroke-linecap="round" stroke-linejoin="round" stroke-width="1"/>
    <path id="Caminho_23084" data-name="Caminho 23084" d="M-7270.459-4210.511v3.12h13.92v-3.12Z" transform="translate(7270.459 4215.511)" fill="#35404d" stroke="#35404d" stroke-linecap="round" stroke-linejoin="round" stroke-width="1"/>
    <path id="Caminho_23086" data-name="Caminho 23086" d="M-7270.459-4210.511v3.12h13.92v-3.12Z" transform="translate(7270.459 4220.511)" fill="#0676b7" stroke="#0676b7" stroke-linecap="round" stroke-linejoin="round" stroke-width="1"/>
    <path id="Caminho_23083" data-name="Caminho 23083" d="M-7269.486-4209.538v.906" transform="translate(7271.459 4210.645)" fill="none" stroke="#f5f5f5" stroke-linecap="round" stroke-width="1"/>
    <path id="Caminho_23085" data-name="Caminho 23085" d="M-7269.486-4209.538v.906" transform="translate(7271.459 4215.645)" fill="none" stroke="#f5f5f5" stroke-linecap="round" stroke-width="1"/>
    <path id="Caminho_23087" data-name="Caminho 23087" d="M-7269.486-4209.538v.906" transform="translate(7271.459 4220.645)" fill="none" stroke="#f5f5f5" stroke-linecap="round" stroke-width="1"/>
    <g id="Elipse_54" data-name="Elipse 54" transform="translate(7.459 6.511)" fill="none" stroke="#0ade19" stroke-width="1">
      <circle cx="5" cy="5" r="5" stroke="none"/>
      <circle cx="5" cy="5" r="4.5" fill="none"/>
    </g>
    <path id="Caminho_23088" data-name="Caminho 23088" d="M-7255.515-4194.9l3.89,4.5.844-.547.427-.879-4.077-4Z" transform="translate(7270.459 4210.511)" fill="#00dd10" stroke="#00dd10" stroke-linecap="round" stroke-linejoin="round" stroke-width="1"/>
  </g>
</svg>
