<svg xmlns="http://www.w3.org/2000/svg" width="20.393" height="23.982" viewBox="0 0 20.393 23.982">
  <g id="Solicitar_Autorização" data-name="Solicitar Autorização" transform="translate(0.5 0.5)">
    <g id="Relatório" transform="translate(4.709 5.163)">
      <g id="Retângulo_689" data-name="Retângulo 689" fill="none" stroke="#707070" stroke-width="1">
        <rect width="15.184" height="18.319" rx="3" stroke="none"/>
        <rect x="0.5" y="0.5" width="14.184" height="17.319" rx="2.5" fill="none"/>
      </g>
      <g id="Grupo_4334" data-name="Grupo 4334" transform="translate(2.239 2.389)">
        <path id="Caminho_22776" data-name="Caminho 22776" d="M83.1-1302.289l1.12,1.117L86.158-1303" transform="translate(-83.102 1303)" fill="none" stroke="#2af1ff" stroke-linecap="round" stroke-linejoin="round" stroke-width="1"/>
        <path id="Caminho_22777" data-name="Caminho 22777" d="M89.249,244.147H95.8" transform="translate(-85.136 -243.234)" fill="none" stroke="#707070" stroke-linecap="round" stroke-width="1"/>
      </g>
      <g id="Grupo_4335" data-name="Grupo 4335" transform="translate(2.239 5.575)">
        <path id="Caminho_22776-2" data-name="Caminho 22776" d="M83.1-1302.289l1.12,1.117L86.158-1303" transform="translate(-83.102 1303)" fill="none" stroke="#2af1ff" stroke-linecap="round" stroke-linejoin="round" stroke-width="1"/>
        <path id="Caminho_22777-2" data-name="Caminho 22777" d="M89.249,244.147H95.8" transform="translate(-85.136 -243.234)" fill="none" stroke="#707070" stroke-linecap="round" stroke-width="1"/>
      </g>
      <g id="Grupo_4336" data-name="Grupo 4336" transform="translate(2.239 8.761)">
        <path id="Caminho_22776-3" data-name="Caminho 22776" d="M83.1-1302.289l1.12,1.117L86.158-1303" transform="translate(-83.102 1303)" fill="none" stroke="#2af1ff" stroke-linecap="round" stroke-linejoin="round" stroke-width="1"/>
        <path id="Caminho_22777-3" data-name="Caminho 22777" d="M89.249,244.147H95.8" transform="translate(-85.136 -243.234)" fill="none" stroke="#707070" stroke-linecap="round" stroke-width="1"/>
      </g>
      <g id="Grupo_4337" data-name="Grupo 4337" transform="translate(2.259 11.947)">
        <path id="Caminho_22776-4" data-name="Caminho 22776" d="M83.1-1302.289l1.12,1.117L86.158-1303" transform="translate(-83.102 1303)" fill="none" stroke="#2af1ff" stroke-linecap="round" stroke-linejoin="round" stroke-width="1"/>
        <path id="Caminho_22777-4" data-name="Caminho 22777" d="M89.249,244.147H95.8" transform="translate(-85.136 -243.234)" fill="none" stroke="#707070" stroke-linecap="round" stroke-width="1"/>
      </g>
      <path id="Caminho_22778" data-name="Caminho 22778" d="M83.8-1286.643H94.673" transform="translate(-81.646 1302.857)" fill="none" stroke="#707070" stroke-linecap="round" stroke-width="1"/>
    </g>
    <path id="Caminho_23116" data-name="Caminho 23116" d="M-7803.673-4348.16h-2.6v-8.419h-2.489l3.979-5.9,3.84,5.9h-2.728Z" transform="translate(7808.766 4362.482)" fill="#00a3ff" stroke="#707070" stroke-linecap="round" stroke-linejoin="round" stroke-width="1"/>
  </g>
</svg>
