<svg xmlns="http://www.w3.org/2000/svg" width="24.437" height="27.523" viewBox="0 0 24.437 27.523">
  <g id="Alterar_Produto" data-name="Alterar Produto" transform="translate(0.1 0.5)">
    <g id="Grupo_4763" data-name="Grupo 4763" transform="translate(6.604)">
      <g id="Grupo_4761" data-name="Grupo 4761">
        <path id="Caminho_23057" data-name="Caminho 23057" d="M-5293.67-2468.96l4.66,5.776,5.141-5.776h-4.106v-2.713h-1.462v2.713Z" transform="translate(5293.67 2471.673)" fill="#00acee" stroke="#00acee" stroke-linecap="round" stroke-linejoin="round" stroke-width="1"/>
      </g>
    </g>
    <g id="Grupo_4766" data-name="Grupo 4766" transform="translate(0 9.513)">
      <path id="Caminho_23055" data-name="Caminho 23055" d="M-5297.342-2449.293c5.068,1.331,9.556,2.662,9.7,2.07s.022-16.271.022-16.271l-1.641.3-8.082,1.477v12.423" transform="translate(5299.691 2464.088)" fill="#35404d" stroke="#35404d" stroke-linecap="round" stroke-linejoin="round" stroke-width="1"/>
      <path id="Caminho_23056" data-name="Caminho 23056" d="M-5290-2447.079l8.773-1.361v-13.3l-8.773-1.75Z" transform="translate(5302.131 2464.089)" fill="#fff" stroke="#35404d" stroke-linecap="square" stroke-linejoin="round" stroke-width="1"/>
      <path id="Caminho_23058" data-name="Caminho 23058" d="M-5289.547-2463.4l2.868,5.668,8.6.7-3.385-5.093Z" transform="translate(5302.263 2464.122)" fill="#35404d" stroke="#35404d" stroke-linecap="round" stroke-linejoin="round" stroke-width="0.3"/>
      <g id="Grupo_4762" data-name="Grupo 4762">
        <path id="Caminho_23059" data-name="Caminho 23059" d="M-5289.917-2457.071l2.494-6.538-10.286,1.719-1.848,5.221Z" transform="translate(5299.558 2463.609)" fill="#35404d" stroke="#fff" stroke-linecap="round" stroke-linejoin="round" stroke-width="0.2"/>
      </g>
    </g>
  </g>
</svg>
