<svg xmlns="http://www.w3.org/2000/svg" width="21.04" height="20.45" viewBox="0 0 21.04 20.45">
  <g id="Boleto" transform="translate(0.5 0.5)">
    <g id="Retângulo_862" data-name="Retângulo 862" transform="translate(0.5 7)" fill="#fff" stroke="#81b6d6" stroke-linejoin="round" stroke-width="1">
      <rect width="19" height="5" stroke="none"/>
      <rect x="0.5" y="0.5" width="18" height="4" fill="none"/>
    </g>
    <path id="Caminho_23231" data-name="Caminho 23231" d="M0,0H12.5l2.821,2.579V16.5H0Z" transform="translate(2.357)" fill="#fff" stroke="#59a0c9" stroke-width="1"/>
    <line id="Linha_531" data-name="Linha 531" x2="12.824" transform="translate(3.608 10.02)" fill="none" stroke="#b9d7e8" stroke-linecap="round" stroke-width="1"/>
    <line id="Linha_532" data-name="Linha 532" x2="12.824" transform="translate(3.608 11.198)" fill="none" stroke="#b9d7e8" stroke-linecap="round" stroke-width="1"/>
    <path id="Subtração_4" data-name="Subtração 4" d="M20.04,8.251H0V0H5.3V1.982A1.581,1.581,0,0,0,5.738,3.05l.02.02A1.723,1.723,0,0,0,6.826,3.5h6.583a1.458,1.458,0,0,0,1.076-.465,1.366,1.366,0,0,0,.376-.935V0H20.04V8.25Z" transform="translate(0 11.198)" fill="#2d86ba" stroke="#2d86ba" stroke-linejoin="round" stroke-width="1"/>
    <path id="Caminho_23232" data-name="Caminho 23232" d="M-7570.712-3664.978v2.552h2.9Z" transform="translate(7585.394 3665.004)" fill="none" stroke="#59a0c9" stroke-linecap="round" stroke-linejoin="round" stroke-width="1"/>
    <line id="Linha_528" data-name="Linha 528" x2="7.073" transform="translate(4.715 2.947)" fill="none" stroke="#73aed1" stroke-linecap="round" stroke-width="1"/>
    <line id="Linha_529" data-name="Linha 529" x2="7.073" transform="translate(4.715 5.305)" fill="none" stroke="#73aed1" stroke-linecap="round" stroke-width="1"/>
    <line id="Linha_530" data-name="Linha 530" x2="10.609" transform="translate(4.715 7.662)" fill="none" stroke="#73aed1" stroke-linecap="round" stroke-width="1"/>
  </g>
</svg>
