<svg id="trash" xmlns="http://www.w3.org/2000/svg" width="18.708" height="21.586" viewBox="0 0 18.708 21.586">
  <path id="Caminho_22407" data-name="Caminho 22407" d="M11.716,12.375a.466.466,0,0,1,.466.466v5.593a.466.466,0,0,1-.932,0V12.841A.466.466,0,0,1,11.716,12.375Zm2.33,0a.466.466,0,0,1,.466.466v5.593a.466.466,0,1,1-.932,0V12.841A.466.466,0,0,1,14.046,12.375Zm2.8.466a.466.466,0,0,0-.932,0v5.593a.466.466,0,1,0,.932,0Z" transform="translate(-4.693 -2.021)" fill="#016eaf"/>
  <path id="Caminho_22408" data-name="Caminho 22408" d="M22.083,4.317a1.439,1.439,0,0,1-1.439,1.439h-.72V18.708a2.878,2.878,0,0,1-2.878,2.878H8.412a2.878,2.878,0,0,1-2.878-2.878V5.756h-.72A1.439,1.439,0,0,1,3.375,4.317V2.878A1.439,1.439,0,0,1,4.814,1.439H9.851A1.439,1.439,0,0,1,11.29,0h2.878a1.439,1.439,0,0,1,1.439,1.439h5.037a1.439,1.439,0,0,1,1.439,1.439ZM7.143,5.756l-.17.085V18.708a1.439,1.439,0,0,0,1.439,1.439h8.634a1.439,1.439,0,0,0,1.439-1.439V5.841l-.169-.085ZM4.814,4.317V2.878h15.83V4.317Z" transform="translate(-3.375 0)" fill="#016eaf" fill-rule="evenodd"/>
</svg>
