<svg xmlns="http://www.w3.org/2000/svg" xmlns:svg="http://www.w3.org/2000/svg" version="1.1" id="svg153" viewBox="9.08 62.01 335.74 130.53">
  <defs id="defs157"/>
  <g id="Layer1000"/>
  <path d="m 162.29476,96.682963 c 4.824,-4.8291 10.5991,-7.2451 17.324,-7.2451 2.1441,0 3.217,1.3558 3.217,4.0669 0,2.711 -1.0729,4.066 -3.217,4.066 -4.483,0 -8.333,1.6081 -11.5489,4.821997 -3.2159,3.2162 -4.824,7.064 -4.824,11.5461 0,4.5799 1.6081,8.475 4.824,11.6921 3.2159,3.2159 7.0659,4.822 11.5489,4.822 6.8221,0 12.619,2.3899 17.3962,7.1679 4.775,4.7801 7.164,10.5809 7.164,17.407 0,6.7281 -2.389,12.5039 -7.1632,17.3339 -4.7758,4.824 -10.5749,7.2391 -17.3959,7.2391 -2.0469,0 -3.0699,-1.3561 -3.0699,-4.066 0,-2.7119 1.023,-4.066 3.0699,-4.066 4.5799,0 8.4529,-1.607 11.6201,-4.8169 3.168,-3.2142 4.752,-7.0592 4.752,-11.5362 0,-4.576 -1.584,-8.445 -4.752,-11.607 -3.1672,-3.1629 -7.0402,-4.7449 -11.6201,-4.7449 -6.726,0 -12.5011,-2.4152 -17.3251,-7.246 -4.8228,-4.8299 -7.2348,-10.6599 -7.2348,-17.4911 0,-6.732 2.412,-12.513 7.2348,-17.343797 z" style="fill:#ffffff;fill-rule:evenodd" id="path12"/>
  <path d="m 221.57606,98.646263 c 6.139,-6.1379 13.5459,-9.2081 22.2219,-9.2081 8.674,0 16.0781,3.0702 22.2202,9.2081 6.139,6.140097 9.2089,13.544997 9.2089,22.217097 v 28.3549 c 0,2.0461 -1.3581,3.068 -4.0719,3.068 -2.7151,0 -4.072,-1.0231 -4.072,-3.0711 v -28.383 c 0,-6.4358 -2.2672,-11.9228 -6.8,-16.4588 -4.5332,-4.535197 -10.016,-6.803197 -16.4492,-6.803197 -6.4318,0 -11.9149,2.266 -16.4478,6.798897 -4.5351,4.534 -6.7991,10.0151 -6.7991,16.4481 0,6.4352 2.262,11.9171 6.7909,16.452 4.5281,4.5311 10.0052,6.7972 16.4322,6.7972 2.7269,0 4.0909,1.3708 4.0909,4.1099 0,2.7408 -1.366,4.11 -4.0949,4.11 -8.676,0 -16.0872,-3.068 -22.227,-9.2061 -6.1421,-6.1399 -9.2132,-13.5459 -9.2132,-22.2168 0,-8.6721 3.0682,-16.077 9.2101,-22.217097 z" style="fill:#ffffff;fill-rule:evenodd" id="path14"/>
  <path d="m 298.17776,120.85566 c 0,6.423 2.2658,11.899 6.7978,16.422 4.532,4.5272 9.9652,6.7881 16.3012,6.7881 6.431,0 11.937,-2.2799 16.52,-6.8411 0.779,-0.7759 1.7518,-1.1648 2.9208,-1.1648 2.7312,0 4.0961,1.3637 4.0961,4.0929 0,1.1699 -0.4411,2.1459 -1.317,2.924 -6.1401,6.1421 -13.547,9.2089 -22.2199,9.2089 -8.674,0 -16.0571,-3.0699 -22.1471,-9.216 -6.0931,-6.143 -9.1369,-13.5558 -9.1369,-22.2378 V 97.570763 h -3.5082 c -2.0469,0 -3.071,-1.3581 -3.071,-4.0731 0,-2.715 1.0241,-4.072 3.071,-4.072 h 3.5082 V 65.335762 c 0,-2.1399 1.364,-3.2131 4.0938,-3.2131 2.728,0 4.0912,1.0732 4.0912,3.2131 v 24.089901 h 36.1089 c 2.0469,0 3.071,1.357 3.071,4.072 0,2.715 -1.0241,4.0731 -3.071,4.0731 h -36.1089 l -0.026,23.284897 z" style="fill:#ffffff;fill-rule:evenodd" id="path16"/>
  <path d="M 75.623056,69.718462 A 59.2091,59.4082 0 0 1 134.83216,129.12666 59.2091,59.4082 0 1 1 75.623056,69.718462 Z" style="fill:#046da7;fill-rule:evenodd;stroke:#000000;stroke-width:0.5669;stroke-linecap:butt;stroke-linejoin:miter;stroke-dasharray:none" id="path18"/>
  <path d="m 134.83216,128.06706 c 0,32.2652 -26.509,58.4123 -59.205804,58.4123 -32.7003,0 -59.2123,-26.1471 -59.2123,-58.4123 0,-32.259397 26.512,-58.409398 59.2123,-58.409398 32.696804,0 59.205804,26.150001 59.205804,58.409398 z" style="fill:none;stroke:#ffffff;stroke-width:0.669;stroke-linecap:butt;stroke-linejoin:miter;stroke-dasharray:none" id="path79"/>
  <path d="m 128.63426,128.06706 c 0,32.2652 -23.7358,58.4123 -53.007904,58.4123 -29.2749,0 -53.0095,-26.1471 -53.0095,-58.4123 0,-32.259397 23.7346,-58.409398 53.0095,-58.409398 29.272104,0 53.007904,26.150001 53.007904,58.409398 z" style="fill:none;stroke:#ffffff;stroke-width:0.669;stroke-linecap:butt;stroke-linejoin:miter;stroke-dasharray:none" id="path81"/>
  <path d="m 119.19876,128.06706 c 0,32.2652 -19.447004,58.4123 -43.437304,58.4123 -23.996,0 -43.442,-26.1471 -43.442,-58.4123 0,-32.259397 19.446,-58.409398 43.442,-58.409398 23.9903,0 43.437304,26.150001 43.437304,58.409398 z" style="fill:none;stroke:#ffffff;stroke-width:0.669;stroke-linecap:butt;stroke-linejoin:miter;stroke-dasharray:none" id="path83"/>
  <path d="m 107.06926,128.06706 c 0,32.2652 -13.938704,58.4123 -31.130604,58.4123 -17.1926,0 -31.134,-26.1471 -31.134,-58.4123 0,-32.259397 13.9414,-58.409398 31.134,-58.409398 17.1919,0 31.130604,26.150001 31.130604,58.409398 z" style="fill:none;stroke:#ffffff;stroke-width:0.669;stroke-linecap:butt;stroke-linejoin:miter;stroke-dasharray:none" id="path85"/>
  <path d="m 91.705056,128.06706 c 0,32.2652 -7.3626,58.4123 -16.4413,58.4123 -9.0796,0 -16.4392,-26.1471 -16.4392,-58.4123 0,-32.259397 7.3596,-58.409398 16.4392,-58.409398 9.0787,0 16.4413,26.150001 16.4413,58.409398 z" style="fill:none;stroke:#ffffff;stroke-width:0.669;stroke-linecap:butt;stroke-linejoin:miter;stroke-dasharray:none" id="path87"/>
  <path d="M 40.491656,176.74756 H 109.22696" style="fill:none;stroke:#ffffff;stroke-width:0.669;stroke-linecap:butt;stroke-linejoin:miter;stroke-dasharray:none" id="path89"/>
  <path d="M 40.491656,79.835362 H 109.22696" style="fill:none;stroke:#ffffff;stroke-width:0.669;stroke-linecap:butt;stroke-linejoin:miter;stroke-dasharray:none" id="path91"/>
  <path d="M 40.491656,79.835362 H 109.22696" style="fill:none;stroke:#ffffff;stroke-width:0.669;stroke-linecap:butt;stroke-linejoin:miter;stroke-dasharray:none" id="path93"/>
  <path d="M 30.252656,88.045963 H 120.54426" style="fill:none;stroke:#ffffff;stroke-width:0.669;stroke-linecap:butt;stroke-linejoin:miter;stroke-dasharray:none" id="path95"/>
  <path d="M 30.252656,168.28046 H 120.54426" style="fill:none;stroke:#ffffff;stroke-width:0.669;stroke-linecap:butt;stroke-linejoin:miter;stroke-dasharray:none" id="path97"/>
  <path d="M 21.355156,156.36016 H 129.71026" style="fill:none;stroke:#ffffff;stroke-width:0.669;stroke-linecap:butt;stroke-linejoin:miter;stroke-dasharray:none" id="path99"/>
  <path d="M 21.355156,100.22696 H 129.71026" style="fill:none;stroke:#ffffff;stroke-width:0.669;stroke-linecap:butt;stroke-linejoin:miter;stroke-dasharray:none" id="path101"/>
  <path d="M 14.884356,113.99466 H 135.64286" style="fill:none;stroke:#ffffff;stroke-width:0.669;stroke-linecap:butt;stroke-linejoin:miter;stroke-dasharray:none" id="path103"/>
  <path d="M 14.884356,143.11976 H 135.64286" style="fill:none;stroke:#ffffff;stroke-width:0.669;stroke-linecap:butt;stroke-linejoin:miter;stroke-dasharray:none" id="path105"/>
  <path d="M 13.181956,128.06706 H 136.98606" style="fill:none;stroke:#ffffff;stroke-width:0.669;stroke-linecap:butt;stroke-linejoin:miter;stroke-dasharray:none" id="path107"/>
  <path d="M 75.263756,69.657962 V 186.54586" style="fill:none;stroke:#ffffff;stroke-width:0.669;stroke-linecap:butt;stroke-linejoin:miter;stroke-dasharray:none" id="path109"/>
  <path d="m 137.20876,127.27296 c 0,33.5242 -27.6582,60.6916 -61.777204,60.6916 -34.1211,0 -61.7793,-27.1674 -61.7793,-60.6916 0,-33.518097 27.6582,-60.688398 61.7793,-60.688398 34.119004,0 61.777204,27.170301 61.777204,60.688398 z" style="fill:none;stroke:#ffffff;stroke-width:9.15;stroke-linecap:butt;stroke-linejoin:miter;stroke-dasharray:none" id="path111"/>
  <path d="m 45.603656,82.798162 c 0,0 0.5421,1.9882 2.9659,1.0647 2.4258,-0.9317 5.2552,-2.5208 5.2552,0.9235 0,3.442501 -4.715,6.885701 -2.1577,13.502201 2.5663,6.621297 4.3135,11.252497 5.3938,11.120297 1.0793,-0.1267 0.8101,0.1322 0,-2.3812 -0.8066,-2.5189 -2.8275,-8.475497 -0.8066,-4.5008 2.0212,3.9702 3.9049,6.7553 4.3124,6.882 0.4018,0.1322 0.5334,2.7814 0.5334,3.5773 0,0.7924 -1.2119,0.2644 3.9136,2.1178 5.1206,1.8534 6.4663,0.5296 7.9511,1.8534 1.4792,1.3246 0.5372,1.4576 2.0212,1.4576 1.4819,0 3.234,-0.7948 4.714,1.3228 1.4859,2.1189 4.0443,4.9022 6.3325,4.6359 2.2971,-0.2673 3.3744,-0.4003 3.3744,0.657 0,1.0632 -0.2702,4.1035 -2.022,6.2192 -1.755,2.1215 -7.0091,0.662 -2.9659,6.6297 4.0452,5.9529 4.5824,4.3639 4.5824,7.0142 0,2.6445 3.0985,2.9155 4.715,3.9702 1.6167,1.0565 1.2149,6.4864 -0.2673,10.3318 -1.4848,3.8343 -2.8275,7.4068 -4.1748,7.9422 -1.3533,0.5306 -2.1558,1.0547 -2.1558,2.6408 0,1.5964 -0.6793,6.2294 -1.353,7.5512 -0.672,1.3201 1.7548,1.7222 2.4284,1.7222 0.6718,0 1.8867,0.3985 1.6176,-1.7222 -0.27,-2.115 -1.3473,-1.1877 0.539,-2.3794 1.884,-1.2006 4.0395,-1.332 4.176,-3.0455 0.1337,-1.7279 3.238,-2.911 4.4469,-3.0496 1.212004,-0.1314 6.067504,-3.1743 10.110704,-6.749 4.0422,-3.5802 3.0994,-5.8273 5.3898,-6.492 2.2901,-0.657 5.1187,-1.5842 6.0634,-5.29 0.9446,-3.7132 0.4018,-3.4432 2.2903,-5.0389 1.8875,-1.5842 6.0642,-5.4241 3.0983,-7.8044 -2.9618,-2.3867 -6.8735,-3.0438 -7.8181,-4.7726 -0.9353,-1.7184 -1.7457,-3.704 -5.1161,-5.6904 -3.3704,-1.9875 -5.257,-1.3217 -6.0652,-3.1788 -0.8093,-1.8524 -2.4295,-2.6429 -6.3345,-2.6429 -3.909704,0 -4.178904,-0.5333 -5.258904,-0.6618 -1.0776,-0.1341 -1.4822,-1.4558 -3.3688,0.2615 -1.8837,1.7241 -0.4037,2.1188 -3.5001,1.9866 -3.1035,-0.1314 -5.7973,-0.3947 -5.7973,-2.9099 0,-2.5181 1.8856,-3.9768 -1.2111,-3.8417 -3.1013,0.1341 -4.5834,1.1924 -2.9659,-1.7212 1.6157,-2.9108 2.2904,-4.2354 0.1346,-3.7068 -2.1566,0.5298 -2.4257,3.1754 -6.0672,2.383 -3.6376,-0.7959 -4.0395,-5.6922 -2.1558,-7.9441 1.8905,-2.2479 12.8056,-2.7778 12.941,-1.455 0.1345,1.3228 3.2331,6.2194 2.8302,3.4406 -0.4072,-2.7804 -2.2938,-4.8963 0,-6.0898 2.2915,-1.190597 2.4268,-1.985397 2.693,-3.574397 0.271,-1.5882 -0.4015,-1.3209 2.0223,-2.3822 2.4228,-1.0613 3.2329,-1.8534 3.2329,-2.7823 0,-0.9272 0.1346,-0.795 1.7513,-0.662 1.6231,0.1351 2.4265,1.0576 2.8313,-0.6607 0.4045,-1.7231 0.9457,-1.8553 1.888504,-1.8553 0.9428,0 1.8845,-1.0576 0.5372,-1.0576 -1.345704,0 -2.425704,-0.133 -2.830504,-1.459501 -0.4015,-1.319 -0.4015,-2.3803 -1.4819,-2.3803 -1.0773,0 -3.9086,-1.1924 -1.8855,-1.1924 2.0201,0 7.142604,1.8552 7.008004,0.1322 -0.1345,-1.7213 -3.909504,-1.5854 -1.6194,-1.7213 2.2912,-0.1322 5.1225,2.2537 5.1225,1.0584 0,-1.1906 -6.334404,-5.8215 -14.957304,-7.8082 -8.6275,-1.9856 -37.4666,-2.2508 -45.552,7.5438 -0.2729,0.7951 0.6706,0.6621 0.6706,0.6621 z" style="fill:#9c9e9f;fill-rule:evenodd" id="path113"/>
  <path d="m 44.814556,82.022062 c 0,0 0.5418,1.9885 2.9659,1.065 2.4257,-0.9317 5.2552,-2.52 5.2552,0.9235 0,3.442201 -4.7153,6.885501 -2.1577,13.502201 2.5651,6.621297 4.3132,11.252497 5.3924,11.120297 1.0803,-0.1267 0.8104,0.1322 0,-2.3812 -0.8052,-2.5189 -2.8273,-8.475697 -0.8052,-4.5 2.0212,3.9694 3.9049,6.7545 4.3113,6.8812 0.4018,0.1322 0.5345,2.7815 0.5345,3.5773 0,0.7921 -1.2119,0.2652 3.9135,2.1178 5.1196,1.8534 6.4661,0.5296 7.9509,1.8534 1.4781,1.3246 0.5372,1.4587 2.0212,1.4587 1.4819,0 3.2332,-0.795 4.7142,1.3217 1.4857,2.1186 4.0433,4.9019 6.3315,4.6357 2.2979,-0.2671 3.3752,-0.4003 3.3752,0.6573 0,1.0631 -0.2699,4.1031 -2.0231,6.2191 -1.7539,2.1215 -7.008,0.6618 -2.9648,6.6297 4.0451,5.9529 4.5815,4.3639 4.5815,7.0132 0,2.6466 3.0986,2.9173 4.7151,3.972 1.6164,1.0557 1.2148,6.4846 -0.2662,10.3307 -1.4849,3.8335 -2.8287,7.4061 -4.176,7.9433 -1.3521,0.5306 -2.1547,1.0536 -2.1547,2.639 0,1.5974 -0.6795,6.2312 -1.3543,7.5532 -0.6717,1.3199 1.7559,1.721 2.4298,1.721 0.6718,0 1.8864,0.3976 1.6175,-1.721 -0.2702,-2.1159 -1.3476,-1.1887 0.5391,-2.3803 1.8829,-1.2009 4.0395,-1.3331 4.1749,-3.0448 0.1345,-1.7286 3.2387,-2.911 4.448,-3.0514 1.2119,-0.1304 6.066104,-3.1736 10.109304,-6.749 4.0433,-3.5791 3.1005,-5.8262 5.3898,-6.4899 2.2914,-0.6573 5.1198,-1.5853 6.0636,-5.2911 0.9455,-3.7124 0.4016,-3.4424 2.2912,-5.0388 1.8875,-1.5843 6.0645,-5.4244 3.0986,-7.8045 -2.9621,-2.3867 -6.8738,-3.044 -7.8184,-4.7734 -0.9361,-1.7175 -1.7465,-3.7021 -5.1169,-5.6896 -3.3696,-1.9874 -5.2571,-1.322 -6.0645,-3.1791 -0.809,-1.8523 -2.4295,-2.6426 -6.334404,-2.6426 -3.9097,0 -4.1797,-0.5333 -5.26,-0.6618 -1.0763,-0.1333 -1.4811,-1.456 -3.3675,0.2615 -1.8839,1.7241 -0.4047,2.1186 -3.5004,1.9864 -3.1031,-0.1311 -5.798,-0.3945 -5.798,-2.9097 0,-2.5181 1.8864,-3.9768 -1.2111,-3.8409 -3.1005,0.133 -4.5823,1.1914 -2.9648,-1.722 1.6145,-2.911 2.2901,-4.2356 0.1345,-3.7068 -2.1568,0.5296 -2.426,3.1751 -6.0682,2.383 -3.6377,-0.7958 -4.0395,-5.6922 -2.1558,-7.9441 1.8904,-2.2471 12.8064,-2.7777 12.9409,-1.455 0.1346,1.3228 3.2332,6.2192 2.8314,3.4406 -0.4086,-2.7806 -2.2942,-4.8963 0,-6.0898 2.2911,-1.189797 2.4257,-1.985597 2.693,-3.573597 0.271,-1.589 -0.4019,-1.322 2.0212,-2.383 2.4228,-1.0613 3.2329,-1.8534 3.2329,-2.7825 0,-0.927 0.1356,-0.795 1.7521,-0.6618 1.6223,0.1349 2.4268,1.0576 2.8313,-0.6599 0.4048,-1.7241 0.9446,-1.8563 1.8885,-1.8563 0.942804,0 1.883704,-1.057401 0.537204,-1.057401 -1.345404,0 -2.425704,-0.1332 -2.830204,-1.4597 -0.4019,-1.3191 -0.4019,-2.3801 -1.4822,-2.3801 -1.0773,0 -3.9087,-1.1924 -1.8864,-1.1924 2.021,0 7.143504,1.8552 7.009204,0.1322 -0.1346,-1.7205 -3.910804,-1.5846 -1.619404,-1.7205 2.291204,-0.1329 5.121404,2.2538 5.121404,1.0576 0,-1.1905 -6.333304,-5.8217 -14.956204,-7.8081 -8.6278,-1.9856 -37.4669,-2.25 -45.5534,7.5437 -0.2719,0.7951 0.672,0.6618 0.672,0.6618 z" style="fill:#ffffff;fill-rule:evenodd" id="path115"/>
  <path d="m 44.629456,80.060262 c 0,0 0.5421,1.9874 2.9659,1.0641 2.4258,-0.9319 5.2552,-2.5199 5.2552,0.9233 0,3.4425 -4.715,6.886701 -2.1577,13.503301 2.5652,6.621297 4.3135,11.252397 5.3935,11.120197 1.0793,-0.1266 0.8104,0.1322 0,-2.3811 -0.8063,-2.5189 -2.8283,-8.475797 -0.8063,-4.500797 2.0212,3.970097 3.9049,6.755297 4.3116,6.881897 0.4015,0.1322 0.5342,2.7815 0.5342,3.5773 0,0.7921 -1.2119,0.2644 3.9136,2.1178 5.1195,1.8524 6.466,0.5296 7.9508,1.8524 1.4792,1.3257 0.5375,1.4587 2.0212,1.4587 1.4822,0 3.2332,-0.7951 4.7143,1.3227 1.4856,2.1187 4.0432,4.9012 6.3325,4.6349 2.2968,-0.2662 3.3742,-0.3995 3.3742,0.6581 0,1.0631 -0.27,4.1032 -2.0229,6.2191 -1.7539,2.1216 -7.0083,0.6618 -2.9651,6.6298 4.0452,5.9521 4.5816,4.363 4.5816,7.0131 0,2.6455 3.0994,2.9173 4.715,3.972 1.6167,1.0558 1.2149,6.4846 -0.2662,10.331 -1.4848,3.8333 -2.8284,7.4061 -4.1749,7.943 -1.3532,0.5296 -2.1558,1.0537 -2.1558,2.639 0,1.5964 -0.6795,6.2313 -1.354,7.5533 -0.6709,1.3198 1.7559,1.7212 2.4295,1.7212 0.6718,0 1.8867,0.3974 1.6175,-1.7212 -0.2702,-2.1168 -1.3475,-1.1898 0.5391,-2.3812 1.8829,-1.2001 4.0395,-1.3323 4.176,-3.0451 0.1335,-1.7275 3.2377,-2.9099 4.4469,-3.0503 1.212,-0.1303 6.067204,-3.1733 10.110404,-6.749 4.0425,-3.5791 3.0997,-5.8262 5.389,-6.4909 2.2911,-0.657 5.1195,-1.5853 6.0634,-5.2901 0.9457,-3.7123 0.4018,-3.4432 2.2911,-5.0388 1.8878,-1.5843 6.0645,-5.4241 3.0986,-7.8053 -2.9621,-2.3859 -6.8735,-3.0432 -7.8184,-4.7726 -0.9353,-1.7186 -1.7462,-3.7031 -5.1158,-5.6895 -3.3704,-1.9875 -5.2581,-1.322 -6.0653,-3.1791 -0.8093,-1.8524 -2.4297,-2.6427 -6.334704,-2.6427 -3.9094,0 -4.1797,-0.5333 -5.2597,-0.6618 -1.0766,-0.134 -1.4811,-1.456 -3.3677,0.2607 -1.8837,1.7249 -0.4037,2.1194 -3.5004,1.9872 -3.1032,-0.1311 -5.7972,-0.3955 -5.7972,-2.9107 0,-2.5171 1.8858,-3.9757 -1.2109,-3.8409 -3.1015,0.1333 -4.5834,1.1916 -2.9659,-1.721 1.6146,-2.911 2.2904,-4.2356 0.1346,-3.7068 -2.1566,0.5296 -2.4258,3.1751 -6.0672,2.383 -3.6387,-0.7958 -4.0406,-5.6922 -2.1569,-7.9448 1.8905,-2.2474 12.8064,-2.776997 12.941,-1.4542 0.1356,1.3228 3.2339,6.2191 2.8313,3.4406 -0.4083,-2.7815 -2.2941,-4.896397 0,-6.089897 2.2912,-1.1906 2.4257,-1.9856 2.693,-3.5746 0.271,-1.588 -0.4018,-1.3209 2.022,-2.382 2.4231,-1.0612 3.2324,-1.8534 3.2324,-2.7833 0,-0.9261 0.1353,-0.7939 1.7521,-0.661 1.6231,0.1351 2.4265,1.0576 2.8313,-0.6609 0.4045,-1.723101 0.9455,-1.855301 1.8882,-1.855301 0.943104,0 1.884804,-1.0573 0.537504,-1.0573 -1.345704,0 -2.425704,-0.1341 -2.830504,-1.4598 -0.4018,-1.3198 -0.4018,-2.3801 -1.4819,-2.3801 -1.0773,0 -3.9087,-1.1934 -1.8866,-1.1934 2.0212,0 7.143704,1.8552 7.009104,0.1332 -0.1346,-1.7212 -3.910504,-1.5853 -1.619404,-1.7212 2.291204,-0.1322 5.122504,2.2537 5.122504,1.0584 0,-1.1906 -6.334404,-5.8218 -14.957304,-7.8082 -8.6275,-1.9856 -37.4666,-2.2508 -45.5523,7.5438 -0.2729,0.794 0.6709,0.6618 0.6709,0.6618 z" style="fill:#ffffff;fill-rule:evenodd" id="path117"/>
  <path d="m 92.313956,111.74096 c 0.1136,-0.3827 -1.8829,-0.1349 -3.5034,-0.927 -1.6164,-0.7932 -3.3704,-2.3841 -5.7931,-1.8545 -2.4279,0.5288 -3.1024,1.9867 -1.0774,1.9867 2.021,0 1.7491,-1.3265 3.902,0 0,0 5.9326,2.6455 6.4719,0.7948 z" style="fill:#9c9e9f;fill-rule:evenodd" id="path119"/>
  <path d="m 91.904056,111.33876 c 0.1136,-0.3836 -1.8829,-0.1351 -3.5023,-0.9283 -1.6175,-0.7929 -3.3714,-2.3838 -5.7942,-1.8531 -2.4268,0.5277 -3.1024,1.9864 -1.0777,1.9864 2.0213,0 1.7494,-1.3265 3.9023,0 0,0 5.9326,2.6455 6.4719,0.795 z" style="fill:#ffffff;fill-rule:evenodd" id="path121"/>
  <path d="m 92.109056,111.54016 c 0.1136,-0.3837 -1.8829,-0.1351 -3.5034,-0.9283 -1.6164,-0.793 -3.3704,-2.3838 -5.7932,-1.8532 -2.4268,0.5277 -3.1023,1.9864 -1.0776,1.9864 2.0212,0 1.7494,-1.3265 3.9022,0 0,0 5.9326,2.6456 6.472,0.7951 z" style="fill:#ffffff;fill-rule:evenodd" id="path123"/>
  <path d="m 89.351256,112.66606 c 0,0 -0.6747,1.4565 0.27,1.4565 0.9439,0 1.884,-0.1311 3.2294,0 1.3494,0.1333 7.552204,1.7223 6.7429,0.2637 -0.8101,-1.455 -1.7539,-0.2637 -3.1015,-1.455 -1.3492,-1.1906 -2.292,-2.2545 -3.0975,-1.0566 -0.8112,1.1896 -2.6968,2.5116 -4.0433,0.7914 z" style="fill:#9c9e9f;fill-rule:evenodd" id="path125"/>
  <path d="m 88.941456,112.26316 c 0,0 -0.6748,1.4568 0.2699,1.4568 0.9439,0 1.884,-0.1312 3.2294,0 1.3494,0.1332 7.552,1.7223 6.743,0.2636 -0.8104,-1.455 -1.754,-0.2636 -3.1016,-1.455 -1.3492,-1.1898 -2.292,-2.2545 -3.0975,-1.0565 -0.8112,1.1895 -2.6967,2.5115 -4.0432,0.7911 z" style="fill:#ffffff;fill-rule:evenodd" id="path127"/>
  <path d="m 89.146356,112.46446 c 0,0 -0.6747,1.4568 0.2699,1.4568 0.9439,0 1.884,-0.1311 3.2294,0 1.3495,0.1333 7.552004,1.7223 6.743,0.2636 -0.8101,-1.455 -1.754,-0.2636 -3.1015,-1.455 -1.3492,-1.1897 -2.292,-2.2545 -3.0984,-1.0565 -0.8103,1.1895 -2.6959,2.5115 -4.0424,0.7911 z" style="fill:#ffffff;fill-rule:evenodd" id="path129"/>
  <path d="m 215.12186,168.45196 h 120.526 c 2.5531,0 4.642,2.088 4.642,4.64 v 8e-4 c 0,2.5521 -2.0889,4.6401 -4.642,4.6401 h -120.526 c -2.5529,0 -4.6409,-2.088 -4.6409,-4.6401 v -8e-4 c 0,-2.552 2.088,-4.64 4.6409,-4.64 z" style="fill:#ffffff;fill-rule:evenodd" id="path150"/>
</svg>