<svg xmlns="http://www.w3.org/2000/svg" width="22.5" height="21.5" viewBox="0 0 22.5 21.5">
  <g id="Componente_192_6" data-name="Componente 192 – 6" transform="translate(0.5 0.5)">
    <g id="Impressões">
      <path id="Caminho_22781" data-name="Caminho 22781" d="M134.6-1201.033v5.366h9.124v-3.509l-1.573-1.858Z" transform="translate(-129.471 1201.033)" fill="#6b6f63" stroke="#6b6f63" stroke-width="1"/>
      <path id="Caminho_22782" data-name="Caminho 22782" d="M131.39-1197.719l-3.168,2.89v5.985l3.168,2.477v-3.715H144.7v3.715l2.9-2.477v-5.985l-2.9-2.89v2.89H131.39Z" transform="translate(-128.222 1201.671)" fill="#00b9e5" stroke="#01bbe7" stroke-width="1"/>
      <path id="Caminho_22783" data-name="Caminho 22783" d="M133.928-1186.434v4.446h9.124v-4.446Z" transform="translate(-128.805 1199.515)" fill="#6b6f63" stroke="#6b6f63" stroke-width="1"/>
      <path id="Caminho_22784" data-name="Caminho 22784" d="M135.678-1200.514h6.516" transform="translate(-129.543 1202.203)" fill="none" stroke="#fff" stroke-width="0.5"/>
      <path id="Caminho_22785" data-name="Caminho 22785" d="M135.678-1200.514h6.516" transform="translate(-129.543 1203.822)" fill="none" stroke="#fff" stroke-width="0.5"/>
      <path id="Caminho_22786" data-name="Caminho 22786" d="M135.678-1200.514h6.516" transform="translate(-129.543 1205.442)" fill="none" stroke="#fff" stroke-width="0.5"/>
      <g id="Grupo_5480" data-name="Grupo 5480" transform="translate(7 14)">
        <g id="Retângulo_912" data-name="Retângulo 912" fill="#fff" stroke="#4d4d4d" stroke-width="1">
          <rect width="15" height="7" stroke="none"/>
          <rect x="0.5" y="0.5" width="14" height="6" fill="none"/>
        </g>
        <path id="Caminho_23655" data-name="Caminho 23655" d="M8.316,15.641h2.529L9.6,17.3l1.246,1.472H8.316L9.6,17.3Z" transform="translate(-6.46 -13.707)" fill="#00b9e5" stroke="#00b9e5" stroke-linecap="round" stroke-linejoin="round" stroke-width="1"/>
        <line id="Linha_654" data-name="Linha 654" x2="1" transform="translate(5.5 2.5)" fill="none" stroke="#707070" stroke-width="1"/>
        <line id="Linha_655" data-name="Linha 655" x2="1" transform="translate(7.5 2.5)" fill="none" stroke="#707070" stroke-width="1"/>
        <line id="Linha_656" data-name="Linha 656" x2="1" transform="translate(9.5 2.5)" fill="none" stroke="#707070" stroke-width="1"/>
        <line id="Linha_657" data-name="Linha 657" x2="1" transform="translate(6.5 4.5)" fill="none" stroke="#707070" stroke-width="1"/>
        <line id="Linha_658" data-name="Linha 658" x2="4" transform="translate(8.5 4.5)" fill="none" stroke="#707070" stroke-width="1"/>
      </g>
    </g>
  </g>
</svg>
