<svg xmlns="http://www.w3.org/2000/svg" width="21.117" height="21.937" viewBox="0 0 21.117 21.937">
  <g id="Editar" transform="translate(0.5 0.5)">
    <g id="Grupo_4775" data-name="Grupo 4775">
      <path id="Caminho_23062" data-name="Caminho 23062" d="M-5013.485-2515.428v20.937h15.168v-14.9l-6.121-6.033Z" transform="translate(5013.485 2515.428)" fill="#157efb" stroke="#157efb" stroke-width="1"/>
      <path id="Caminho_23063" data-name="Caminho 23063" d="M-5007.547-2515.5v4.9l1.308,1.238,4.883-.088Z" transform="translate(5016.596 2515.505)" fill="#80b8fd" stroke="#80b8fd" stroke-linejoin="round" stroke-width="1"/>
    </g>
    <g id="Grupo_4776" data-name="Grupo 4776" transform="translate(3.92 2.378)">
      <path id="Caminho_23061" data-name="Caminho 23061" d="M-5003.138-2503.23s-1.3,2.316-.547,2.934,2.88-.869,2.88-.869l13.332-12.863-2.189-2.3-5.715,5.554Z" transform="translate(5003.919 2516.328)" fill="#e1e1e1" stroke="#9fcafd" stroke-linecap="round" stroke-linejoin="round" stroke-width="0.5"/>
      <path id="Caminho_23064" data-name="Caminho 23064" d="M-5034.827-2508.781a6.526,6.526,0,0,0-.428.962,3.629,3.629,0,0,0-.167.869,3.648,3.648,0,0,0,.881-.211,4.686,4.686,0,0,0,.857-.469Z" transform="translate(5036.169 2522.397)" fill="#5f6266" stroke="#5f6266" stroke-linejoin="round" stroke-width="0.5"/>
    </g>
  </g>
</svg>
