<svg xmlns="http://www.w3.org/2000/svg" width="22.196" height="21.77" viewBox="0 0 22.196 21.77">
  <g id="Alterar" transform="translate(0.5 0.5)">
    <path id="Caminho_22952" data-name="Caminho 22952" d="M-1469.6,21.234l2.732-3.012V29.78h-18.214V11.987h11.629l-3.222,2.522h-5.814V27.4h12.89Z" transform="translate(1485.084 -9.01)" fill="#e89800" stroke="#e89800" stroke-linecap="round" stroke-linejoin="round" stroke-width="1"/>
    <path id="Caminho_22953" data-name="Caminho 22953" d="M-1475.678,23.258a10.992,10.992,0,0,0-1.528-2,5.77,5.77,0,0,0-1.729-1.133l-1.378,4.7Z" transform="translate(1485.351 -8.744)" fill="#e89800" stroke="#e89800" stroke-linecap="round" stroke-linejoin="round" stroke-width="1"/>
    <path id="Caminho_22954" data-name="Caminho 22954" d="M-1478.189,18.615l7.844-7.812a7.77,7.77,0,0,1,1.817,1.275,7.989,7.989,0,0,1,1.307,1.818l-7.785,7.895a14.944,14.944,0,0,0-1.493-1.9A8.129,8.129,0,0,0-1478.189,18.615Z" transform="translate(1485.739 -8.06)" fill="#e89800" stroke="#e89800" stroke-linecap="round" stroke-linejoin="round" stroke-width="1"/>
    <path id="Caminho_22955" data-name="Caminho 22955" d="M-1469.678,10.569l1.658-1.594,3.157,3.188-1.626,1.626a6.2,6.2,0,0,0-1.212-1.881A7.655,7.655,0,0,0-1469.678,10.569Z" transform="translate(1486.059 -8.975)" fill="#e89800" stroke="#e89800" stroke-linecap="round" stroke-linejoin="round" stroke-width="1"/>
  </g>
</svg>
