<svg id="Componente_205_2" data-name="Componente 205 – 2" xmlns="http://www.w3.org/2000/svg" width="20" height="18" viewBox="0 0 20 18">
  <g id="Retângulo_960" data-name="Retângulo 960" transform="translate(0 6)" fill="#343434" stroke="#343434" stroke-width="1">
    <rect width="3" height="9" stroke="none"/>
    <rect x="0.5" y="0.5" width="2" height="8" fill="none"/>
  </g>
  <g id="Retângulo_961" data-name="Retângulo 961" transform="translate(4 9)" fill="#009fef" stroke="#009fef" stroke-width="1">
    <rect width="3" height="6" stroke="none"/>
    <rect x="0.5" y="0.5" width="2" height="5" fill="none"/>
  </g>
  <g id="Retângulo_962" data-name="Retângulo 962" transform="translate(8 3)" fill="#343434" stroke="#343434" stroke-width="1">
    <rect width="3" height="12" stroke="none"/>
    <rect x="0.5" y="0.5" width="2" height="11" fill="none"/>
  </g>
  <g id="Retângulo_963" data-name="Retângulo 963" transform="translate(12)" fill="#009fef" stroke="#009fef" stroke-width="1">
    <rect width="3" height="15" stroke="none"/>
    <rect x="0.5" y="0.5" width="2" height="14" fill="none"/>
  </g>
  <g id="Grupo_5497" data-name="Grupo 5497" transform="translate(3218 -3932)">
    <g id="Elipse_120" data-name="Elipse 120" transform="translate(-3212 3936)" fill="#343434" stroke="#343434" stroke-width="1">
      <circle cx="7" cy="7" r="7" stroke="none"/>
      <circle cx="7" cy="7" r="6.5" fill="none"/>
    </g>
    <g id="Interseção_2" data-name="Interseção 2" transform="translate(-3212 3936.101)" fill="#343434" stroke-linejoin="round">
      <path d="M 11.32798385620117 11.15575695037842 L 7.662190437316895 6.995213985443115 L 11.26495456695557 2.779805660247803 C 12.37326335906982 3.899670124053955 13 5.411574840545654 13 7.000200748443604 C 13 8.554423332214355 12.39608573913574 10.04276466369629 11.32798385620117 11.15575695037842 Z" stroke="none"/>
      <path d="M 11.32568264007568 10.39680194854736 C 12.08037757873535 9.435146331787109 12.5 8.240545272827148 12.5 7.000200748443604 C 12.5 5.728569030761719 12.06187152862549 4.510529518127441 11.27424335479736 3.538532257080078 L 8.324198722839355 6.990227222442627 L 11.32568264007568 10.39680194854736 M 11.29728031158447 11.87723064422607 L 7.000200271606445 7.000200748443604 L 11.22335052490234 2.058911085128784 C 12.61676979064941 3.250981092453003 13.5 5.022400856018066 13.5 7.000200748443604 C 13.5 8.942940711975098 12.64811992645264 10.68623065948486 11.29728031158447 11.87723064422607 Z" stroke="none" fill="#343434"/>
    </g>
    <g id="Interseção_1" data-name="Interseção 1" transform="translate(-3213.539 3933.368)" fill="#009fef">
      <path d="M 8.306450843811035 9.131595611572266 L 2.058038949966431 9.131595611572266 C 2.314192295074463 5.78021240234375 5.123106002807617 3.131596088409424 8.538991928100586 3.131596088409424 C 9.903420448303223 3.131596088409424 11.23256778717041 3.562308549880981 12.33266639709473 4.35294246673584 L 8.306450843811035 9.131595611572266 Z" stroke="none"/>
      <path d="M 8.073908805847168 8.631595611572266 L 11.58640956878662 4.462662220001221 C 10.66903209686279 3.922245502471924 9.615932464599609 3.631596088409424 8.538991928100586 3.631596088409424 C 5.571236610412598 3.631596088409424 3.099812507629395 5.797516822814941 2.622332811355591 8.631595611572266 L 8.073908805847168 8.631595611572266 M 8.538991928100586 9.631595611572266 L 1.539001941680908 9.631595611572266 C 1.539001941680908 5.765215873718262 4.672611713409424 2.631596088409424 8.538991928100586 2.631596088409424 C 10.25767230987549 2.631596088409424 11.83131217956543 3.250616073608398 13.04952239990234 4.278116226196289 L 8.538991928100586 9.631595611572266 Z" stroke="none" fill="#009fef"/>
    </g>
    <g id="Interseção_3" data-name="Interseção 3" transform="translate(-3212 3936)" fill="#009fef">
      <path d="M 7.500205039978027 13.48097324371338 L 7.500205039978027 8.341446876525879 L 10.86486053466797 12.2271203994751 C 9.884408950805664 12.95244884490967 8.717801094055176 13.38714790344238 7.500205039978027 13.48097324371338 Z" stroke="none"/>
      <path d="M 8.000195503234863 9.682692527770996 L 8.000195503234863 12.91640186309814 C 8.749724388122559 12.78984260559082 9.468419075012207 12.5220947265625 10.11728954315186 12.12761878967285 L 8.000195503234863 9.682692527770996 M 7.000195503234863 7.000200271606445 L 11.58262538909912 12.29222011566162 C 10.35475540161133 13.35643005371094 8.752864837646484 14.00020027160645 7.000195503234863 14.00020027160645 L 7.000195503234863 7.000200271606445 Z" stroke="none" fill="#009fef"/>
    </g>
  </g>
</svg>
