<svg xmlns="http://www.w3.org/2000/svg" width="18.437" height="20.523" viewBox="0 0 18.437 20.523">
  <g id="insert_something.svg" transform="translate(0.1 0.5)">
    <g id="Grupo_4763" data-name="Grupo 4763" transform="translate(5298.108 2471.673)">
      <g id="Grupo_4761" data-name="Grupo 4761" transform="translate(0.528)">
        <path id="Caminho_23057" data-name="Caminho 23057" d="M-5293.671-2469.677l3.5,4.252,3.865-4.252h-3.087v-2h-1.1v2Z" fill="#00acee" stroke="#00acee" stroke-linecap="round" stroke-linejoin="round" stroke-width="1"/>
      </g>
    </g>
    <g id="Grupo_4766" data-name="Grupo 4766" transform="translate(5299.108 2470.934)">
      <path id="Caminho_23055" data-name="Caminho 23055" d="M-5297.342-2453.042c3.811.98,7.185,1.96,7.294,1.524s.017-11.977.017-11.977l-1.234.221-6.077,1.087v9.145" fill="#35404d" stroke="#35404d" stroke-linecap="round" stroke-linejoin="round" stroke-width="1"/>
      <path id="Caminho_23056" data-name="Caminho 23056" d="M-5290-2451.411l6.6-1v-9.792l-6.6-1.288Z" transform="translate(0.013)" fill="#fff" stroke="#35404d" stroke-linecap="square" stroke-linejoin="round" stroke-width="1"/>
      <path id="Caminho_23058" data-name="Caminho 23058" d="M-5289.547-2463.4l2.156,4.172,6.469.516-2.545-3.749Z" fill="#35404d" stroke="#35404d" stroke-linecap="round" stroke-linejoin="round" stroke-width="0.3"/>
      <g id="Grupo_4762" data-name="Grupo 4762" transform="translate(0.45 -0.322)">
        <path id="Caminho_23059" data-name="Caminho 23059" d="M-5292.309-2458.8l1.875-4.812-7.734,1.266-1.39,3.843Z" fill="#35404d" stroke="#fff" stroke-linecap="round" stroke-linejoin="round" stroke-width="0.2"/>
      </g>
    </g>
  </g>
</svg>
