<svg id="Componente_90_4" data-name="Componente 90 – 4" xmlns="http://www.w3.org/2000/svg" width="24.132" height="23.326" viewBox="0 0 24.132 23.326">
  <g id="Componente_87_3" data-name="Componente 87 – 3">
    <g id="Elipse_64" data-name="Elipse 64" transform="matrix(0.809, 0.588, -0.588, 0.809, 16.082, 0)" fill="none" stroke="#ffc107" stroke-width="0.6">
      <ellipse cx="4.926" cy="9.659" rx="4.926" ry="9.659" stroke="none"/>
      <ellipse cx="4.926" cy="9.659" rx="4.626" ry="9.359" fill="none"/>
    </g>
    <path id="Caminho_23205" data-name="Caminho 23205" d="M-7861.592-4013.53s2.047-2.011,2.047-2.137a15.157,15.157,0,0,1,.334-1.8,31.12,31.12,0,0,1,3.174-1.257l.627-.377.919-2.053.375-2.766.377.251.919-1.215s1.88-1.551.669-2.976l-1,.21-1.337-1.383h-1.17l-.752-.5-.459.5-.166-.8-1.714-.5-.793.5.793-.921h-1.421l.628-.8-.919-.377-.209-1.173-.752,1.341-.836-.168h-.877l.209.377-.669-.209-1.253.461a1.184,1.184,0,0,1-.251-1.467l-.375-.712-2.13.964.5.963-1.588.5-.584-.712-1.421.209.334,1.718-.334,1.467a3.986,3.986,0,0,0-1.671,1.34l.252,1.467.918.335.5-.335v.922h1.421l1.295-.922s-.042,1.173.626,1.634l1.88.5v1.3h1.295l.376.964-.376,1.005.167,1.048h1.086l.209.8.626.168-.167.921.5.293-.335.46-1.5,1.634Z" transform="translate(7873.943 4035.972)" fill="#8bd6f7" stroke="#49c3f2" stroke-linecap="round" stroke-linejoin="round" stroke-width="0.6"/>
    <g id="Caminho_23213" data-name="Caminho 23213" transform="translate(7832.053 4033.953)" fill="#78909c">
      <path d="M -7828.02099609375 -4025.266357421875 L -7828.15087890625 -4025.266357421875 L -7827.80029296875 -4026.927734375 L -7827.2021484375 -4029.763427734375 L -7827.15478515625 -4029.763427734375 L -7828.02099609375 -4025.266357421875 Z M -7828.26123046875 -4025.266357421875 L -7828.3642578125 -4025.266357421875 L -7829.23388671875 -4028.177001953125 L -7830.203125 -4028.1328125 L -7830.33642578125 -4027.471435546875 L -7829.94921875 -4029.763427734375 L -7829.66845703125 -4029.763427734375 L -7828.7666015625 -4026.881591796875 L -7828.26123046875 -4025.266357421875 Z" stroke="none"/>
      <path d="M -7830.3720703125 -4030.263427734375 L -7829.30126953125 -4030.263427734375 L -7828.28955078125 -4027.031005859375 L -7827.60791015625 -4030.263427734375 L -7826.54931640625 -4030.263427734375 L -7827.60791015625 -4024.766357421875 L -7828.73681640625 -4024.766357421875 L -7829.712890625 -4028.033935546875 L -7830.3720703125 -4024.766357421875 L -7831.30029296875 -4024.766357421875 L -7830.3720703125 -4030.263427734375 Z" stroke="none" fill="#78909c"/>
    </g>
    <g id="Caminho_23206" data-name="Caminho 23206" transform="translate(7831.3 4033.373)" fill="#eceff1">
      <path d="M -7828.02099609375 -4025.266357421875 L -7828.15087890625 -4025.266357421875 L -7827.80029296875 -4026.927734375 L -7827.2021484375 -4029.763427734375 L -7827.15478515625 -4029.763427734375 L -7828.02099609375 -4025.266357421875 Z M -7828.26123046875 -4025.266357421875 L -7828.3642578125 -4025.266357421875 L -7829.23388671875 -4028.177001953125 L -7830.203125 -4028.1328125 L -7830.33642578125 -4027.471435546875 L -7829.94921875 -4029.763427734375 L -7829.66845703125 -4029.763427734375 L -7828.7666015625 -4026.881591796875 L -7828.26123046875 -4025.266357421875 Z" stroke="none"/>
      <path d="M -7830.3720703125 -4030.263427734375 L -7829.30126953125 -4030.263427734375 L -7828.28955078125 -4027.031005859375 L -7827.60791015625 -4030.263427734375 L -7826.54931640625 -4030.263427734375 L -7827.60791015625 -4024.766357421875 L -7828.73681640625 -4024.766357421875 L -7829.712890625 -4028.033935546875 L -7830.3720703125 -4024.766357421875 L -7831.30029296875 -4024.766357421875 L -7830.3720703125 -4030.263427734375 Z" stroke="none" fill="#eceff1"/>
    </g>
    <g id="Caminho_23212" data-name="Caminho 23212" transform="translate(7828.54 4033.987)" fill="#78909c">
      <path d="M -7822.24755859375 -4025.30029296875 L -7822.33984375 -4025.30029296875 L -7821.42431640625 -4029.761962890625 L -7819.13525390625 -4029.82666015625 L -7819.1494140625 -4029.7587890625 L -7820.953125 -4029.7587890625 L -7821.35791015625 -4029.7587890625 L -7821.4423828125 -4029.362548828125 L -7821.677734375 -4028.254150390625 L -7821.8056640625 -4027.650390625 L -7821.1884765625 -4027.650390625 L -7819.6904296875 -4027.650390625 L -7819.71875 -4027.50634765625 L -7821.41162109375 -4027.50634765625 L -7821.82470703125 -4027.50634765625 L -7821.90283203125 -4027.1005859375 L -7822.24755859375 -4025.30029296875 Z" stroke="none"/>
      <path d="M -7821.83447265625 -4024.80029296875 L -7822.95263671875 -4024.80029296875 L -7821.83447265625 -4030.25048828125 L -7818.51806640625 -4030.34423828125 L -7818.7421875 -4029.2587890625 L -7820.953125 -4029.2587890625 L -7821.1884765625 -4028.150390625 L -7819.08349609375 -4028.150390625 L -7819.306640625 -4027.00634765625 L -7821.41162109375 -4027.00634765625 L -7821.83447265625 -4024.80029296875 Z" stroke="none" fill="#78909c"/>
    </g>
    <g id="Caminho_23207" data-name="Caminho 23207" transform="translate(7827.786 4033.406)" fill="#eceff1">
      <path d="M -7822.24755859375 -4025.30029296875 L -7822.33984375 -4025.30029296875 L -7821.42431640625 -4029.761962890625 L -7819.13525390625 -4029.82666015625 L -7819.1494140625 -4029.7587890625 L -7820.953125 -4029.7587890625 L -7821.35791015625 -4029.7587890625 L -7821.4423828125 -4029.362548828125 L -7821.677734375 -4028.254150390625 L -7821.8056640625 -4027.650390625 L -7821.1884765625 -4027.650390625 L -7819.6904296875 -4027.650390625 L -7819.71875 -4027.50634765625 L -7821.41162109375 -4027.50634765625 L -7821.82470703125 -4027.50634765625 L -7821.90283203125 -4027.1005859375 L -7822.24755859375 -4025.30029296875 Z" stroke="none"/>
      <path d="M -7821.83447265625 -4024.80029296875 L -7822.95263671875 -4024.80029296875 L -7821.83447265625 -4030.25048828125 L -7818.51806640625 -4030.34423828125 L -7818.7421875 -4029.2587890625 L -7820.953125 -4029.2587890625 L -7821.1884765625 -4028.150390625 L -7819.08349609375 -4028.150390625 L -7819.306640625 -4027.00634765625 L -7821.41162109375 -4027.00634765625 L -7821.83447265625 -4024.80029296875 Z" stroke="none" fill="#eceff1"/>
    </g>
    <g id="Subtração_2" data-name="Subtração 2" transform="translate(9.301 6.863)" fill="#78909c">
      <path d="M 2.146685361862183 8.382742881774902 L 2.124346494674683 8.382742881774902 C 1.415135025978088 8.362048149108887 0.9646711349487305 8.082742691040039 0.6295110583305359 7.452527523040771 C 0.2140836715698242 5.561167240142822 0.8809427618980408 3.98289680480957 1.517855405807495 2.987932920455933 C 2.308725357055664 1.752862930297852 3.224285364151001 1.107142925262451 3.399385452270508 1.044322848320007 L 3.506635427474976 1.007822871208191 L 3.575725793838501 0.9401204586029053 C 3.752835750579834 0.8219635486602783 4.722554683685303 0.5000028610229492 5.709235668182373 0.5000028610229492 C 7.196585655212402 0.5000028610229492 7.259015560150146 1.182862877845764 7.279535293579102 1.407252907752991 L 7.279945373535156 1.41178286075592 L 7.280445575714111 1.41631281375885 C 7.425078392028809 2.733469486236572 6.94835901260376 3.991503715515137 6.711877346038818 4.518162727355957 L 1.979325413703918 4.518162727355957 L 1.618495464324951 4.518162727355957 L 1.504795432090759 4.860602855682373 C 1.460225462913513 4.994863033294678 1.083865404129028 6.192442893981934 1.588655471801758 6.891522884368896 C 1.742705464363098 7.10511302947998 2.039075374603271 7.359992980957031 2.575255393981934 7.359992980957031 C 3.099469423294067 7.359992980957031 3.774442434310913 7.108713150024414 4.635892868041992 6.592352867126465 L 5.500726699829102 6.592352867126465 C 5.370291233062744 6.763267993927002 5.212666988372803 6.949515342712402 5.028165340423584 7.133593082427979 C 4.457235336303711 7.703502655029297 3.493985414505005 8.382742881774902 2.146685361862183 8.382742881774902 Z M 5.360385417938232 1.207982897758484 C 4.706395626068115 1.207982897758484 3.436735391616821 1.445742845535278 2.281375408172607 3.038112878799438 L 1.705545425415039 3.831742763519287 L 2.686075448989868 3.831742763519287 L 5.827975273132324 3.831742763519287 L 6.150705337524414 3.831742763519287 L 6.283605575561523 3.537652969360352 C 6.365859985351562 3.356767892837524 6.631491184234619 2.731681823730469 6.6105637550354 2.255629777908325 C 6.604951858520508 1.855553269386292 6.366635322570801 1.236902832984924 5.739765644073486 1.236902832984924 C 5.737977981567383 1.236902832984924 5.736192226409912 1.236908555030823 5.734409809112549 1.236919164657593 C 5.655378818511963 1.22364068031311 5.526878833770752 1.207982897758484 5.360385417938232 1.207982897758484 Z" stroke="none"/>
      <path d="M 2.146685361862183 7.882742881774902 C 2.282814741134644 7.882742881774902 2.414520025253296 7.87471342086792 2.541825532913208 7.859728336334229 C 1.97304904460907 7.850715637207031 1.491444230079651 7.611494541168213 1.183285474777222 7.184232711791992 C 1.132168650627136 7.113440036773682 1.087742924690247 7.039751052856445 1.049259185791016 6.963858127593994 C 1.06376576423645 7.067184925079346 1.081705093383789 7.171504974365234 1.103365898132324 7.277002334594727 C 1.345752716064453 7.704610347747803 1.627109050750732 7.866702556610107 2.131934404373169 7.882742881774902 L 2.146685361862183 7.882742881774902 M 2.146685361862183 8.882742881774902 L 2.117285490036011 8.882742881774902 C 1.200775504112244 8.858073234558105 0.5777154564857483 8.458513259887695 0.155925452709198 7.625372886657715 C -0.3263545334339142 5.537962913513184 0.401315450668335 3.804742813110352 1.096745491027832 2.718362808227539 C 1.907525420188904 1.452192902565002 2.907145500183105 0.6837028861045837 3.237895488739014 0.5711228847503662 C 3.443135499954224 0.3706328570842743 4.601065635681152 2.871398919523926e-06 5.709235668182373 2.871398919523926e-06 C 6.595775604248047 2.871398919523926e-06 7.67455530166626 0.2362228780984879 7.77745532989502 1.361732840538025 C 7.986085414886475 3.261692762374878 7.034525394439697 5.00087308883667 7.024915218353271 5.018162727355957 L 1.979325413703918 5.018162727355957 C 1.975935459136963 5.028372764587402 1.629345417022705 6.093772888183594 1.994025468826294 6.598823070526123 C 2.118985414505005 6.772082805633545 2.314045429229736 6.859992980957031 2.575255393981934 6.859992980957031 C 3.022485494613647 6.859992980957031 3.668725490570068 6.601653099060059 4.49590539932251 6.092352867126465 L 6.412585258483887 6.092352867126465 C 6.413155555725098 6.093492984771729 6.412025451660156 6.095192909240723 6.410325527191162 6.098312854766846 C 6.348695278167725 6.220532894134521 6.008895397186279 6.86141300201416 5.38130521774292 7.487552642822266 C 4.743545532226562 8.12418270111084 3.664205551147461 8.882742881774902 2.146685361862183 8.882742881774902 Z M 5.360385417938232 1.707982897758484 C 4.801775455474854 1.707982897758484 3.711135387420654 1.918962836265564 2.686075448989868 3.331742763519287 L 5.827975273132324 3.331742763519287 C 5.830795288085938 3.325502872467041 6.132715225219727 2.665612936019897 6.110665321350098 2.27003288269043 C 6.110665321350098 2.264642953872681 6.088615417480469 1.736902832984924 5.739765644073486 1.736902832984924 C 5.724505424499512 1.736902832984924 5.711495399475098 1.737752914428711 5.698495388031006 1.73917281627655 C 5.697365283966064 1.738892912864685 5.572415351867676 1.707982897758484 5.360385417938232 1.707982897758484 Z" stroke="none" fill="#78909c"/>
    </g>
    <g id="Subtração_1" data-name="Subtração 1" transform="translate(8.722 6.282)" fill="#fff">
      <path d="M 2.146685361862183 8.382742881774902 L 2.124346494674683 8.382742881774902 C 1.415135025978088 8.362048149108887 0.9646711349487305 8.082742691040039 0.6295110583305359 7.452527523040771 C 0.2140836715698242 5.561167240142822 0.8809427618980408 3.98289680480957 1.517855405807495 2.987932920455933 C 2.308725357055664 1.752862930297852 3.224285364151001 1.107142925262451 3.399385452270508 1.044322848320007 L 3.506635427474976 1.007822871208191 L 3.575725793838501 0.9401204586029053 C 3.752835750579834 0.8219635486602783 4.722554683685303 0.5000028610229492 5.709235668182373 0.5000028610229492 C 7.196585655212402 0.5000028610229492 7.259015560150146 1.182862877845764 7.279535293579102 1.407252907752991 L 7.279945373535156 1.41178286075592 L 7.280445575714111 1.41631281375885 C 7.425078392028809 2.733469486236572 6.94835901260376 3.991503715515137 6.711877346038818 4.518162727355957 L 1.979325413703918 4.518162727355957 L 1.618495464324951 4.518162727355957 L 1.504795432090759 4.860602855682373 C 1.460225462913513 4.994863033294678 1.083865404129028 6.192442893981934 1.588655471801758 6.891522884368896 C 1.742705464363098 7.10511302947998 2.039075374603271 7.359992980957031 2.575255393981934 7.359992980957031 C 3.099469423294067 7.359992980957031 3.774442434310913 7.108713150024414 4.635892868041992 6.592352867126465 L 5.500726699829102 6.592352867126465 C 5.370291233062744 6.763267993927002 5.212666988372803 6.949515342712402 5.028165340423584 7.133593082427979 C 4.457235336303711 7.703502655029297 3.493985414505005 8.382742881774902 2.146685361862183 8.382742881774902 Z M 5.360385417938232 1.207982897758484 C 4.706395626068115 1.207982897758484 3.436735391616821 1.445742845535278 2.281375408172607 3.038112878799438 L 1.705545425415039 3.831742763519287 L 2.686075448989868 3.831742763519287 L 5.827975273132324 3.831742763519287 L 6.150705337524414 3.831742763519287 L 6.283605575561523 3.537652969360352 C 6.365859985351562 3.356767892837524 6.631491184234619 2.731681823730469 6.6105637550354 2.255629777908325 C 6.604951858520508 1.855553269386292 6.366635322570801 1.236902832984924 5.739765644073486 1.236902832984924 C 5.737977981567383 1.236902832984924 5.736192226409912 1.236908555030823 5.734409809112549 1.236919164657593 C 5.655378818511963 1.22364068031311 5.526878833770752 1.207982897758484 5.360385417938232 1.207982897758484 Z" stroke="none"/>
      <path d="M 2.146685361862183 7.882742881774902 C 2.282814741134644 7.882742881774902 2.414520025253296 7.87471342086792 2.541825532913208 7.859728336334229 C 1.97304904460907 7.850715637207031 1.491444230079651 7.611494541168213 1.183285474777222 7.184232711791992 C 1.132168650627136 7.113440036773682 1.087742924690247 7.039751052856445 1.049259185791016 6.963858127593994 C 1.06376576423645 7.067184925079346 1.081705093383789 7.171504974365234 1.103365898132324 7.277002334594727 C 1.345752716064453 7.704610347747803 1.627109050750732 7.866702556610107 2.131934404373169 7.882742881774902 L 2.146685361862183 7.882742881774902 M 2.146685361862183 8.882742881774902 L 2.117285490036011 8.882742881774902 C 1.200775504112244 8.858073234558105 0.5777154564857483 8.458513259887695 0.155925452709198 7.625372886657715 C -0.3263545334339142 5.537962913513184 0.401315450668335 3.804742813110352 1.096745491027832 2.718362808227539 C 1.907525420188904 1.452192902565002 2.907145500183105 0.6837028861045837 3.237895488739014 0.5711228847503662 C 3.443135499954224 0.3706328570842743 4.601065635681152 2.871398919523926e-06 5.709235668182373 2.871398919523926e-06 C 6.595775604248047 2.871398919523926e-06 7.67455530166626 0.2362228780984879 7.77745532989502 1.361732840538025 C 7.986085414886475 3.261692762374878 7.034525394439697 5.00087308883667 7.024915218353271 5.018162727355957 L 1.979325413703918 5.018162727355957 C 1.975935459136963 5.028372764587402 1.629345417022705 6.093772888183594 1.994025468826294 6.598823070526123 C 2.118985414505005 6.772082805633545 2.314045429229736 6.859992980957031 2.575255393981934 6.859992980957031 C 3.022485494613647 6.859992980957031 3.668725490570068 6.601653099060059 4.49590539932251 6.092352867126465 L 6.412585258483887 6.092352867126465 C 6.413155555725098 6.093492984771729 6.412025451660156 6.095192909240723 6.410325527191162 6.098312854766846 C 6.348695278167725 6.220532894134521 6.008895397186279 6.86141300201416 5.38130521774292 7.487552642822266 C 4.743545532226562 8.12418270111084 3.664205551147461 8.882742881774902 2.146685361862183 8.882742881774902 Z M 5.360385417938232 1.707982897758484 C 4.801775455474854 1.707982897758484 3.711135387420654 1.918962836265564 2.686075448989868 3.331742763519287 L 5.827975273132324 3.331742763519287 C 5.830795288085938 3.325502872467041 6.132715225219727 2.665612936019897 6.110665321350098 2.27003288269043 C 6.110665321350098 2.264642953872681 6.088615417480469 1.736902832984924 5.739765644073486 1.736902832984924 C 5.724505424499512 1.736902832984924 5.711495399475098 1.737752914428711 5.698495388031006 1.73917281627655 C 5.697365283966064 1.738892912864685 5.572415351867676 1.707982897758484 5.360385417938232 1.707982897758484 Z" stroke="none" fill="#fff"/>
    </g>
    <g id="Elipse_63" data-name="Elipse 63" transform="matrix(0.809, 0.588, -0.588, 0.809, 14.949, 0)" fill="none" stroke="#388e3c" stroke-width="0.6">
      <ellipse cx="4.926" cy="9.659" rx="4.926" ry="9.659" stroke="none"/>
      <ellipse cx="4.926" cy="9.659" rx="4.626" ry="9.359" fill="none"/>
    </g>
  </g>
  <g id="Excluir_X" data-name="Excluir X" transform="translate(12.027 11.221)">
    <line id="Linha_474" data-name="Linha 474" x2="11.221" y2="11.221" fill="none" stroke="#c01a18" stroke-width="2.5"/>
    <line id="Linha_475" data-name="Linha 475" x2="11.221" y2="11.221" transform="translate(11.221) rotate(90)" fill="none" stroke="#c01a18" stroke-width="2.5"/>
  </g>
</svg>
