<svg xmlns="http://www.w3.org/2000/svg" width="23.003" height="24.977" viewBox="0 0 23.003 24.977">
  <g id="Grupo_4368" data-name="Grupo 4368" transform="translate(-92.997 -540.023)">
    <g id="Grupo_4358" data-name="Grupo 4358" transform="translate(-147 -11.597)">
      <g id="Grupo_4357" data-name="Grupo 4357" transform="translate(239.997 553.97)">
        <g id="Retângulo_689" data-name="Retângulo 689" fill="none" stroke="#707070" stroke-width="1">
          <rect width="19" height="21" rx="3" stroke="none"/>
          <rect x="0.5" y="0.5" width="18" height="20" rx="2.5" fill="none"/>
        </g>
        <g id="Grupo_4334" data-name="Grupo 4334" transform="translate(2.801 3)">
          <path id="Caminho_22776" data-name="Caminho 22776" d="M83.1-1302.108l1.4,1.4L86.926-1303" transform="translate(-83.102 1303)" fill="none" stroke="#2af1ff" stroke-linecap="round" stroke-linejoin="round" stroke-width="1"/>
          <path id="Caminho_22777" data-name="Caminho 22777" d="M89.249,244.147h8.2" transform="translate(-84.102 -243)" fill="none" stroke="#707070" stroke-linecap="round" stroke-width="1"/>
        </g>
        <g id="Grupo_4335" data-name="Grupo 4335" transform="translate(2.801 7.395)">
          <path id="Caminho_22776-2" data-name="Caminho 22776" d="M83.1-1302.108l1.4,1.4L86.926-1303" transform="translate(-83.102 1303)" fill="none" stroke="#2af1ff" stroke-linecap="round" stroke-linejoin="round" stroke-width="1"/>
          <path id="Caminho_22777-2" data-name="Caminho 22777" d="M89.249,244.147h8.2" transform="translate(-84.102 -243)" fill="none" stroke="#707070" stroke-linecap="round" stroke-width="1"/>
        </g>
        <g id="Grupo_4336" data-name="Grupo 4336" transform="translate(2.801 11.79)">
          <path id="Caminho_22776-3" data-name="Caminho 22776" d="M83.1-1302.108l1.4,1.4L86.926-1303" transform="translate(-83.102 1303)" fill="none" stroke="#2af1ff" stroke-linecap="round" stroke-linejoin="round" stroke-width="1"/>
          <path id="Caminho_22777-3" data-name="Caminho 22777" d="M89.249,244.147h8.2" transform="translate(-84.102 -243)" fill="none" stroke="#707070" stroke-linecap="round" stroke-width="1"/>
        </g>
        <g id="Grupo_4337" data-name="Grupo 4337" transform="translate(2.826 16.185)">
          <path id="Caminho_22776-4" data-name="Caminho 22776" d="M83.1-1302.108l1.4,1.4L86.926-1303" transform="translate(-83.102 1303)" fill="none" stroke="#2af1ff" stroke-linecap="round" stroke-linejoin="round" stroke-width="1"/>
          <path id="Caminho_22777-4" data-name="Caminho 22777" d="M89.249,244.147h8.2" transform="translate(-84.102 -243)" fill="none" stroke="#707070" stroke-linecap="round" stroke-width="1"/>
        </g>
      </g>
      <path id="Caminho_22791" data-name="Caminho 22791" d="M765.141-989.9v-.936H751.6v.936Z" transform="translate(-509 1544.811)" fill="#2af1ff" stroke="#2af1ff" stroke-width="1"/>
      <path id="Caminho_22793" data-name="Caminho 22793" d="M760.062-990.336v-1.545h-2.815v1.545" transform="translate(-509.158 1544)" fill="none" stroke="#2af1ff" stroke-linejoin="round" stroke-width="1"/>
    </g>
    <g id="Grupo_4360" data-name="Grupo 4360" transform="translate(89.997 552.394)">
      <circle id="Elipse_11" data-name="Elipse 11" cx="5.5" cy="5.5" r="5.5" transform="translate(15.003 1.606)" fill="#00e827"/>
      <path id="Caminho_22779" data-name="Caminho 22779" d="M19.174,11.342l2.32,2.061,3.7-3.291" transform="translate(-1.502 -4.175)" fill="none" stroke="#fff" stroke-width="1"/>
    </g>
  </g>
</svg>
