<svg xmlns="http://www.w3.org/2000/svg" width="19" height="23" viewBox="0 0 19 23">
  <g id="Grupo_4338" data-name="Grupo 4338" transform="translate(-81 -239)">
    <g id="Retângulo_689" data-name="Retângulo 689" transform="translate(81 239)" fill="none" stroke="#707070" stroke-width="1">
      <rect width="19" height="23" rx="3" stroke="none"/>
      <rect x="0.5" y="0.5" width="18" height="22" rx="2.5" fill="none"/>
    </g>
    <g id="Grupo_4334" data-name="Grupo 4334" transform="translate(-0.301 -1)">
      <path id="Caminho_22776" data-name="Caminho 22776" d="M83.1-1302.108l1.4,1.4L86.926-1303" transform="translate(1 1546)" fill="none" stroke="#2af1ff" stroke-linecap="round" stroke-linejoin="round" stroke-width="1"/>
      <path id="Caminho_22777" data-name="Caminho 22777" d="M89.249,244.147h8.2" transform="translate(0 0)" fill="none" stroke="#707070" stroke-linecap="round" stroke-width="1"/>
    </g>
    <g id="Grupo_4335" data-name="Grupo 4335" transform="translate(-0.301 3)">
      <path id="Caminho_22776-2" data-name="Caminho 22776" d="M83.1-1302.108l1.4,1.4L86.926-1303" transform="translate(1 1546)" fill="none" stroke="#2af1ff" stroke-linecap="round" stroke-linejoin="round" stroke-width="1"/>
      <path id="Caminho_22777-2" data-name="Caminho 22777" d="M89.249,244.147h8.2" transform="translate(0 0)" fill="none" stroke="#707070" stroke-linecap="round" stroke-width="1"/>
    </g>
    <g id="Grupo_4336" data-name="Grupo 4336" transform="translate(-0.301 7)">
      <path id="Caminho_22776-3" data-name="Caminho 22776" d="M83.1-1302.108l1.4,1.4L86.926-1303" transform="translate(1 1546)" fill="none" stroke="#2af1ff" stroke-linecap="round" stroke-linejoin="round" stroke-width="1"/>
      <path id="Caminho_22777-3" data-name="Caminho 22777" d="M89.249,244.147h8.2" transform="translate(0 0)" fill="none" stroke="#707070" stroke-linecap="round" stroke-width="1"/>
    </g>
    <g id="Grupo_4337" data-name="Grupo 4337" transform="translate(-0.276 11)">
      <path id="Caminho_22776-4" data-name="Caminho 22776" d="M83.1-1302.108l1.4,1.4L86.926-1303" transform="translate(1 1546)" fill="none" stroke="#2af1ff" stroke-linecap="round" stroke-linejoin="round" stroke-width="1"/>
      <path id="Caminho_22777-4" data-name="Caminho 22777" d="M89.249,244.147h8.2" transform="translate(0 0)" fill="none" stroke="#707070" stroke-linecap="round" stroke-width="1"/>
    </g>
    <path id="Caminho_22778" data-name="Caminho 22778" d="M83.8-1286.643h13.6" transform="translate(-0.104 1546)" fill="none" stroke="#707070" stroke-linecap="round" stroke-width="1"/>
  </g>
</svg>
