<svg xmlns="http://www.w3.org/2000/svg" width="23.715" height="23.41" viewBox="0 0 23.715 23.41">
  <g id="Grupo_4367" data-name="Grupo 4367" transform="translate(-13 -1)">
    <g id="Grupo_4354" data-name="Grupo 4354" transform="translate(13 1)">
      <g id="Retângulo_689" data-name="Retângulo 689" fill="none" stroke="#707070" stroke-width="1">
        <rect width="19" height="23" rx="3" stroke="none"/>
        <rect x="0.5" y="0.5" width="18" height="22" rx="2.5" fill="none"/>
      </g>
      <g id="Grupo_4334" data-name="Grupo 4334" transform="translate(2.801 3)">
        <path id="Caminho_22776" data-name="Caminho 22776" d="M83.1-1302.108l1.4,1.4L86.926-1303" transform="translate(-83.102 1303)" fill="none" stroke="#2af1ff" stroke-linecap="round" stroke-linejoin="round" stroke-width="1"/>
        <path id="Caminho_22777" data-name="Caminho 22777" d="M89.249,244.147h8.2" transform="translate(-84.102 -243)" fill="none" stroke="#707070" stroke-linecap="round" stroke-width="1"/>
      </g>
      <g id="Grupo_4335" data-name="Grupo 4335" transform="translate(2.801 7)">
        <path id="Caminho_22776-2" data-name="Caminho 22776" d="M83.1-1302.108l1.4,1.4L86.926-1303" transform="translate(-83.102 1303)" fill="none" stroke="#2af1ff" stroke-linecap="round" stroke-linejoin="round" stroke-width="1"/>
        <path id="Caminho_22777-2" data-name="Caminho 22777" d="M89.249,244.147h8.2" transform="translate(-84.102 -243)" fill="none" stroke="#707070" stroke-linecap="round" stroke-width="1"/>
      </g>
      <g id="Grupo_4336" data-name="Grupo 4336" transform="translate(2.801 11)">
        <path id="Caminho_22776-3" data-name="Caminho 22776" d="M83.1-1302.108l1.4,1.4L86.926-1303" transform="translate(-83.102 1303)" fill="none" stroke="#2af1ff" stroke-linecap="round" stroke-linejoin="round" stroke-width="1"/>
        <path id="Caminho_22777-3" data-name="Caminho 22777" d="M89.249,244.147h8.2" transform="translate(-84.102 -243)" fill="none" stroke="#707070" stroke-linecap="round" stroke-width="1"/>
      </g>
      <g id="Grupo_4337" data-name="Grupo 4337" transform="translate(2.826 15)">
        <path id="Caminho_22776-4" data-name="Caminho 22776" d="M83.1-1302.108l1.4,1.4L86.926-1303" transform="translate(-83.102 1303)" fill="none" stroke="#2af1ff" stroke-linecap="round" stroke-linejoin="round" stroke-width="1"/>
        <path id="Caminho_22777-4" data-name="Caminho 22777" d="M89.249,244.147h8.2" transform="translate(-84.102 -243)" fill="none" stroke="#707070" stroke-linecap="round" stroke-width="1"/>
      </g>
      <path id="Caminho_22778" data-name="Caminho 22778" d="M83.8-1286.643h13.6" transform="translate(-81.104 1307)" fill="none" stroke="#707070" stroke-linecap="round" stroke-width="1"/>
    </g>
    <g id="Grupo_4355" data-name="Grupo 4355" transform="translate(776.593 1148.053)">
      <line id="Linha_7" data-name="Linha 7" x2="7.212" y2="8.447" transform="translate(-748.5 -1133.5)" fill="none" stroke="#c41218" stroke-linecap="round" stroke-width="2"/>
      <line id="Linha_8" data-name="Linha 8" x2="8.447" y2="7.212" transform="translate(-741.288 -1133.5) rotate(90)" fill="none" stroke="#c41218" stroke-linecap="round" stroke-width="2"/>
    </g>
  </g>
</svg>
