<svg xmlns="http://www.w3.org/2000/svg" width="32.697" height="32.651" viewBox="0 0 32.697 32.651">
  <path id="search_FILL0_wght400_GRAD0_opsz48" d="M36.2,38.185l-11.13-11.13a10.177,10.177,0,0,1-3.233,1.87,11.429,11.429,0,0,1-3.926.67,11.5,11.5,0,0,1-8.451-3.464A11.391,11.391,0,0,1,6,17.773,11.391,11.391,0,0,1,9.464,9.414,11.445,11.445,0,0,1,17.869,5.95,11.315,11.315,0,0,1,26.2,9.414a11.429,11.429,0,0,1,3.441,8.359A11.52,11.52,0,0,1,29,21.606a11.722,11.722,0,0,1-1.94,3.464L38.282,36.2a1.21,1.21,0,0,1,.416.947,1.436,1.436,0,0,1-.462,1.039,1.45,1.45,0,0,1-2.032,0ZM17.869,26.825a8.643,8.643,0,0,0,6.373-2.656,8.757,8.757,0,0,0,2.632-6.4,8.757,8.757,0,0,0-2.632-6.4,8.643,8.643,0,0,0-6.373-2.656,8.772,8.772,0,0,0-6.442,2.656,8.719,8.719,0,0,0-2.656,6.4,8.719,8.719,0,0,0,2.656,6.4A8.772,8.772,0,0,0,17.869,26.825Z" transform="translate(-6 -5.95)" fill="#016eaf"/>
</svg>
