<svg xmlns="http://www.w3.org/2000/svg" width="19.31" height="14.399" viewBox="0 0 19.31 14.399">
  <g id="Grupo_4395" data-name="Grupo 4395" transform="translate(-5050.805 1517.399)">
    <path id="Caminho_22851" data-name="Caminho 22851" d="M5051.3-1516.9v10.555h18.31V-1516.9Z" fill="none" stroke="#1a782d" stroke-linejoin="round" stroke-width="1"/>
    <path id="Caminho_22852" data-name="Caminho 22852" d="M5058.007-1514.212c-1.906,2.383,0,5.989,0,5.989s-4.528.467-4.558-2.922S5058.007-1514.212,5058.007-1514.212Z" transform="translate(-0.341 -0.364)" fill="none" stroke="#1a782d" stroke-linejoin="round" stroke-width="1"/>
    <g id="Caminho_22853" data-name="Caminho 22853" transform="translate(5062.528 -1515.186)" fill="none" stroke-linecap="round" stroke-linejoin="round">
      <path d="M.518.692A3.869,3.869,0,0,1,1.389,2.6a6.019,6.019,0,0,1-.021,1.949A8.752,8.752,0,0,1,.974,6.067c-.136.38-.247.61-.247.61a6.307,6.307,0,0,0,.708,0,6.649,6.649,0,0,0,1.552-.264,3.44,3.44,0,0,0,1.535-.9A2.6,2.6,0,0,0,5.18,3.6a2.616,2.616,0,0,0-.766-1.883,3.555,3.555,0,0,0-1.6-.84A6.839,6.839,0,0,0,1.234.669,6.445,6.445,0,0,0,.518.692Z" stroke="none"/>
      <path d="M 1.288402080535889 7.179565906524658 C 1.466358423233032 7.173351287841797 1.664613485336304 7.160743236541748 1.875895261764526 7.138067722320557 C 2.087177038192749 7.115392208099365 2.311485290527344 7.082649707794189 2.541548252105713 7.036164283752441 C 2.771610975265503 6.989678859710693 3.007428407669067 6.929452896118164 3.241728067398071 6.851810455322266 C 3.476027965545654 6.774167537689209 3.708810567855835 6.679109573364258 3.932803630828857 6.562961578369141 C 4.227249145507812 6.410280227661133 4.485832214355469 6.231411457061768 4.707531452178955 6.028094291687012 C 4.929230690002441 5.824776649475098 5.114046573638916 5.597011566162109 5.260958671569824 5.346536636352539 C 5.407871246337891 5.096061229705811 5.516880035400391 4.822877407073975 5.586965560913086 4.52872371673584 C 5.657051086425781 4.234569549560547 5.688213348388672 3.919446229934692 5.679431438446045 3.585091352462769 C 5.673324584960938 3.352617740631104 5.64857292175293 3.130548238754272 5.605317115783691 2.919214010238647 C 5.562061786651611 2.707880258560181 5.500301837921143 2.50728178024292 5.420177459716797 2.317750930786133 C 5.340053558349609 2.128219604492188 5.241565704345703 1.949756026268005 5.12485408782959 1.782691359519958 C 5.008142471313477 1.615626692771912 4.873206615447998 1.459961175918579 4.720187664031982 1.316026210784912 C 4.424190521240234 1.037601709365845 4.080732822418213 0.8252313733100891 3.719848155975342 0.6637154817581177 C 3.358963489532471 0.5021995902061462 2.980652093887329 0.3915381729602814 2.614947319030762 0.3165316581726074 C 2.249242305755615 0.2415251433849335 1.896144151687622 0.2021734714508057 1.585686445236206 0.1832771301269531 C 1.275228500366211 0.1643807291984558 1.007411479949951 0.1659396290779114 0.8122677803039551 0.172754168510437 C 0.7604188919067383 0.1745647788047791 0.7136659622192383 0.1767246425151825 0.672487735748291 0.1789685487747192 C 0.6313095092773438 0.1812125146389008 0.5957050323486328 0.1835405826568604 0.5661554336547852 0.1856875121593475 C 0.5366058349609375 0.1878344416618347 0.5131092071533203 0.189800351858139 0.4961466789245605 0.1913199722766876 C 0.4791831970214844 0.1928396224975586 0.4687542915344238 0.1939129829406738 0.4653372764587402 0.1942749619483948 C 0.4191188812255859 0.1991409361362457 0.3745303153991699 0.2103169858455658 0.3325719833374023 0.2270433902740479 C 0.290614128112793 0.2437697649002075 0.2512874603271484 0.2660464644432068 0.2155919075012207 0.2931136786937714 C 0.1798973083496094 0.3201808929443359 0.1478347778320312 0.3520386219024658 0.1204071044921875 0.3879270851612091 C 0.09297943115234375 0.4238155484199524 0.07018613815307617 0.4637346863746643 0.05302715301513672 0.5069248676300049 C 0.03586864471435547 0.5501124858856201 0.0250554084777832 0.5947889685630798 0.02037858963012695 0.639714241027832 C 0.0157017707824707 0.6846395134925842 0.01716232299804688 0.7298135757446289 0.0245518684387207 0.7739963531494141 C 0.03194141387939453 0.8181791305541992 0.04525995254516602 0.8613706231117249 0.0643010139465332 0.9023306965827942 C 0.08334159851074219 0.9432908296585083 0.1081042289733887 0.9820196032524109 0.1383805274963379 1.017277002334595 C 0.5753364562988281 1.526082277297974 0.8034672737121582 2.11850643157959 0.8996214866638184 2.721468448638916 C 0.9957761764526367 3.324430227279663 0.959953784942627 3.937929630279541 0.8690032958984375 4.488885879516602 C 0.7780523300170898 5.039842128753662 0.6319723129272461 5.52825403213501 0.5076117515563965 5.88104248046875 C 0.3832507133483887 6.233829975128174 0.2806086540222168 6.450993537902832 0.2765336036682129 6.459450244903564 C 0.2585272789001465 6.496829509735107 0.2454423904418945 6.535850048065186 0.2372479438781738 6.575596809387207 C 0.2290534973144531 6.61534309387207 0.2257494926452637 6.655815124511719 0.2273039817810059 6.696097850799561 C 0.2288589477539062 6.736381053924561 0.2352728843688965 6.776473999023438 0.2465152740478516 6.815461158752441 C 0.2577571868896484 6.854449272155762 0.273827075958252 6.892331600189209 0.2946934700012207 6.928192138671875 C 0.3155579566955566 6.964053153991699 0.3405227661132812 6.996758937835693 0.3688206672668457 7.025821208953857 C 0.3971185684204102 7.05488395690918 0.4287500381469727 7.080303192138672 0.4629478454589844 7.101592063903809 C 0.4971456527709961 7.122881412506104 0.5339088439941406 7.140039443969727 0.5724711418151855 7.152579784393311 C 0.6110343933105469 7.165121078491211 0.6513962745666504 7.173043251037598 0.6927895545959473 7.175859928131104 C 0.6952195167541504 7.176025390625 0.7115654945373535 7.177111148834229 0.7402405738830566 7.178453922271729 C 0.7689170837402344 7.179796695709229 0.8099231719970703 7.181396961212158 0.8616724014282227 7.182590484619141 C 0.913421630859375 7.183783531188965 0.9759149551391602 7.1845703125 1.04756498336792 7.184288024902344 C 1.119215250015259 7.184004783630371 1.200023174285889 7.182651996612549 1.288402080535889 7.179565906524658 Z M 1.4451904296875 1.177942633628845 C 1.632583856582642 1.187490940093994 1.844599008560181 1.205458879470825 2.068099737167358 1.237280249595642 C 2.291600227355957 1.269101500511169 2.526586294174194 1.314776182174683 2.759921550750732 1.379737854003906 C 2.993256807327271 1.44469952583313 3.224940776824951 1.528948187828064 3.441837787628174 1.637917518615723 C 3.658735036849976 1.746886968612671 3.860844612121582 1.880576968193054 4.035031318664551 2.044421434402466 C 4.139142036437988 2.142350196838379 4.230406284332275 2.247831344604492 4.309012413024902 2.361321926116943 C 4.387618541717529 2.474812984466553 4.453566074371338 2.596313714981079 4.507043838500977 2.726281642913818 C 4.560521602630615 2.856249332427979 4.601529598236084 2.994684219360352 4.630256175994873 3.142043828964233 C 4.658982276916504 3.289403676986694 4.675427436828613 3.445688009262085 4.679779052734375 3.611354827880859 C 4.693012237548828 4.11512279510498 4.581138610839844 4.521764278411865 4.38535213470459 4.849640846252441 C 4.189566135406494 5.177517414093018 3.90986704826355 5.426629543304443 3.58745002746582 5.615338802337646 C 3.265033006668091 5.80404806137085 2.899897336959839 5.932353496551514 2.533238172531128 6.018619537353516 C 2.166578769683838 6.104884624481201 1.798395156860352 6.149109363555908 1.469882249832153 6.169654369354248 C 1.565518379211426 5.896947383880615 1.669412612915039 5.560102939605713 1.757053375244141 5.180360794067383 C 1.844694375991821 4.800618648529053 1.916082143783569 4.37798023223877 1.94670581817627 3.933683633804321 C 1.977329254150391 3.489387512207031 1.967188596725464 3.023434162139893 1.891772747039795 2.557063817977905 C 1.816357374191284 2.090693473815918 1.675666809082031 1.623906373977661 1.4451904296875 1.177942633628845 Z" stroke="none" fill="#1a782d"/>
    </g>
    <text id="_" data-name="$" transform="translate(5058 -1509)" fill="#1a782d" font-size="7" font-family="Roboto-Medium, Roboto" font-weight="500" letter-spacing="-0.01em"><tspan x="0" y="0">$</tspan></text>
    <g id="Grupo_4392" data-name="Grupo 4392" transform="translate(5044.95 -1514.606)">
      <circle id="Elipse_11" data-name="Elipse 11" cx="5" cy="5" r="5" transform="translate(15.049 1.606)" fill="#00e827"/>
      <g id="Grupo_4393" data-name="Grupo 4393" transform="translate(17.496 4.264)">
        <line id="Linha_17" data-name="Linha 17" y2="5.022" transform="translate(5.022 2.342) rotate(90)" fill="none" stroke="#fff" stroke-linecap="round" stroke-width="1"/>
      </g>
      <g id="Grupo_4394" data-name="Grupo 4394" transform="translate(22.349 4.095) rotate(90)">
        <line id="Linha_17-2" data-name="Linha 17" y2="5.022" transform="translate(5.022 2.342) rotate(90)" fill="none" stroke="#fff" stroke-linecap="round" stroke-width="1"/>
      </g>
    </g>
  </g>
</svg>
