<svg xmlns="http://www.w3.org/2000/svg" width="20.169" height="24.379" viewBox="0 0 20.169 24.379">
  <g id="Grupo_4353" data-name="Grupo 4353" transform="translate(-53.675 -649.059)">
    <g id="Retângulo_695" data-name="Retângulo 695" transform="translate(59.277 655.498)" fill="#54584c" stroke="#53574b" stroke-width="1">
      <rect width="14.203" height="17.94" rx="2" stroke="none"/>
      <rect x="0.5" y="0.5" width="13.203" height="16.94" rx="1.5" fill="none"/>
    </g>
    <g id="Grupo_4349" data-name="Grupo 4349" transform="translate(62.641 658.862)">
      <line id="Linha_4" data-name="Linha 4" y2="11.213" transform="translate(3.738 0)" fill="none" stroke="#fff" stroke-linecap="round" stroke-width="2"/>
      <line id="Linha_5" data-name="Linha 5" y2="11.213" transform="translate(7.475 0)" fill="none" stroke="#fff" stroke-linecap="round" stroke-width="2"/>
      <line id="Linha_6" data-name="Linha 6" y2="11.213" transform="translate(0 0)" fill="none" stroke="#fff" stroke-linecap="round" stroke-width="2"/>
    </g>
    <g id="Grupo_4350" data-name="Grupo 4350" transform="translate(61.099 648.182) rotate(20)">
      <path id="Caminho_22788" data-name="Caminho 22788" d="M13.469,1.216H0V0H13.469Z" transform="translate(0 1.616)" fill="#54584c" stroke="#54584c" stroke-linejoin="round" stroke-width="1"/>
      <path id="Caminho_22789" data-name="Caminho 22789" d="M0,1.615V0H2.283V1.615" transform="translate(5.641 0)" fill="#54584c" stroke="#54584c" stroke-linejoin="round" stroke-width="1"/>
    </g>
    <path id="Caminho_22788-2" data-name="Caminho 22788" d="M-748.766-1185.645c-5.342-.517-5.025,3.47-5.025,3.47H-755l1.9,1.958,1.982-1.958h-1.358a3.843,3.843,0,0,1,3.713-3.47" transform="translate(809.173 1839.079)" fill="#0da03f" stroke="#0da03f" stroke-linecap="round" stroke-linejoin="round" stroke-width="1"/>
  </g>
</svg>
