<svg xmlns="http://www.w3.org/2000/svg" width="25.054" height="30.587" viewBox="0 0 25.054 30.587">
  <g id="Grupo_4353" data-name="Grupo 4353" transform="translate(-49.747 -646.456)">
    <g id="Retângulo_695" data-name="Retângulo 695" transform="translate(56.592 654.411)" fill="#54584c" stroke="#53574b" stroke-width="1">
      <rect width="17.917" height="22.632" rx="2" stroke="none"/>
      <rect x="0.5" y="0.5" width="16.917" height="21.632" rx="1.5" fill="none"/>
    </g>
    <g id="Grupo_4349" data-name="Grupo 4349" transform="translate(60.836 658.655)">
      <line id="Linha_4" data-name="Linha 4" y2="14.145" transform="translate(4.715 0)" fill="none" stroke="#fff" stroke-linecap="round" stroke-width="2"/>
      <line id="Linha_5" data-name="Linha 5" y2="14.145" transform="translate(9.43 0)" fill="none" stroke="#fff" stroke-linecap="round" stroke-width="2"/>
      <line id="Linha_6" data-name="Linha 6" y2="14.145" transform="translate(0 0)" fill="none" stroke="#fff" stroke-linecap="round" stroke-width="2"/>
    </g>
    <g id="Grupo_4350" data-name="Grupo 4350" transform="translate(58.891 645.182) rotate(20)">
      <path id="Caminho_22788" data-name="Caminho 22788" d="M16.991,1.533H0V0H16.991Z" transform="translate(0 2.038)" fill="#54584c" stroke="#54584c" stroke-linejoin="round" stroke-width="1"/>
      <path id="Caminho_22789" data-name="Caminho 22789" d="M0,2.038V0H2.88V2.038" transform="translate(7.116 0)" fill="#54584c" stroke="#54584c" stroke-linejoin="round" stroke-width="1"/>
    </g>
    <g id="Caminho_22788-2" data-name="Caminho 22788" transform="translate(49.747 648.455)" fill="#0da03f" stroke-linecap="round" stroke-linejoin="round">
      <path d="M.561,8.357A7.927,7.927,0,0,1,.97,4.525,3.924,3.924,0,0,1,2.505,2.663a4.285,4.285,0,0,1,1.657-.6,3.816,3.816,0,0,1,.776-.043V.5l2.47,2.389-2.47,2.5V3.676a3.883,3.883,0,0,0-.568.108,5.443,5.443,0,0,0-1.307.526A4.847,4.847,0,0,0,1.611,5.553a5.337,5.337,0,0,0-1,2.263c0-.025,0-.025,0,0s-.008.06-.013.113-.012.12-.017.194-.011.156-.015.239" stroke="none"/>
      <path d="M 7.908315658569336 2.888728857040405 C 7.908315658569336 2.888265132904053 7.908315658569336 2.887802839279175 7.908314228057861 2.887340784072876 C 7.90831184387207 2.886878728866577 7.908309936523438 2.886417150497437 7.908307552337646 2.885955572128296 C 7.908305168151855 2.885493993759155 7.908301830291748 2.885032653808594 7.908297538757324 2.884570121765137 C 7.908293724060059 2.884107828140259 7.908289432525635 2.883644819259644 7.908284187316895 2.883181095123291 C 7.907905101776123 2.849830865859985 7.904194355010986 2.816864728927612 7.897341728210449 2.784724473953247 C 7.890490055084229 2.752584457397461 7.880497455596924 2.721271276473999 7.867554187774658 2.691226959228516 C 7.854611396789551 2.661182641983032 7.838716983795166 2.632407426834106 7.820064544677734 2.605344533920288 C 7.801411628723145 2.578281402587891 7.779999732971191 2.552930593490601 7.756019592285156 2.52973461151123 L 5.285882472991943 0.1405763328075409 C 5.249822616577148 0.1057007014751434 5.209418773651123 0.07705759257078171 5.166210651397705 0.05493326857686043 C 5.123002052307129 0.03280898556113243 5.076987743377686 0.01720337197184563 5.029706001281738 0.00840272381901741 C 4.982423782348633 -0.000397917436202988 4.933874130249023 -0.002393523463979363 4.885593414306641 0.002702048746868968 C 4.837313175201416 0.007797683123499155 4.789301872253418 0.0199845377355814 4.743098258972168 0.03954896330833435 C 4.696897029876709 0.05911342427134514 4.65474271774292 0.08510705828666687 4.617501258850098 0.1162263676524162 C 4.580258846282959 0.1473457515239716 4.547928333282471 0.1835908740758896 4.521373271942139 0.2236582487821579 C 4.494818210601807 0.2637257874011993 4.474038124084473 0.3076156675815582 4.459898471832275 0.354024350643158 C 4.44575834274292 0.4004332721233368 4.438257694244385 0.4493610858917236 4.438259601593018 0.4995042383670807 L 4.438313484191895 1.530452370643616 C 4.271152973175049 1.543215036392212 4.07275915145874 1.566985368728638 3.8538818359375 1.6095951795578 C 3.635003566741943 1.652205109596252 3.395641803741455 1.7136549949646 3.146545171737671 1.801776766777039 C 2.897446870803833 1.889899373054504 2.638612985610962 2.004695177078247 2.380792617797852 2.153997182846069 C 2.122968912124634 2.303300857543945 1.866156935691833 2.487112760543823 1.621106266975403 2.713266849517822 C 1.352641224861145 2.961031198501587 1.117251396179199 3.24127984046936 0.9151730537414551 3.553358793258667 C 0.7130892276763916 3.8654465675354 0.5443174839019775 4.209368228912354 0.4090951085090637 4.584470748901367 C 0.2738682925701141 4.959586143493652 0.1721922755241394 5.365885734558105 0.1043048352003098 5.802718162536621 C 0.03641477599740028 6.239567279815674 0.002315416699275374 6.706954479217529 0.002245181938633323 7.204226970672607 C 0.002231718506664038 7.299476146697998 0.003493886208161712 7.396168231964111 0.006022817920893431 7.494125366210938 C 0.008551771752536297 7.592084407806396 0.01234751287847757 7.691309928894043 0.01740117371082306 7.791625499725342 C 0.0224548801779747 7.891942501068115 0.02876655757427216 7.993351459503174 0.03632731735706329 8.095676422119141 C 0.0438881441950798 8.198000907897949 0.0526980422437191 8.301241874694824 0.06274817883968353 8.40522575378418 C 0.06905547529459 8.47046947479248 0.08770226687192917 8.531723022460938 0.1162219494581223 8.586803436279297 C 0.1447418034076691 8.641884803771973 0.1831346303224564 8.690788269042969 0.2289338260889053 8.731335639953613 C 0.2747331857681274 8.771882057189941 0.3279389142990112 8.804070472717285 0.3860842287540436 8.825716018676758 C 0.4442296922206879 8.847360610961914 0.5073146224021912 8.858462333679199 0.5728722810745239 8.856837272644043 C 0.6384300589561462 8.855213165283203 0.700889527797699 8.840997695922852 0.7578954100608826 8.816499710083008 C 0.8149010539054871 8.792000770568848 0.8664529323577881 8.757218360900879 0.9101952314376831 8.714451789855957 C 0.9539373517036438 8.671687126159668 0.9898699522018433 8.620940208435059 1.015637516975403 8.564515113830566 C 1.041404962539673 8.508090019226074 1.057007312774658 8.445987701416016 1.060089230537415 8.380510330200195 C 1.062308311462402 8.333324432373047 1.065013527870178 8.287004470825195 1.067968845367432 8.242752075195312 C 1.070924282073975 8.19849967956543 1.074130177497864 8.156316757202148 1.077350735664368 8.117403030395508 C 1.080571174621582 8.078488349914551 1.08380651473999 8.042842864990234 1.08682119846344 8.011672019958496 C 1.089835643768311 7.980498313903809 1.092629551887512 7.953797817230225 1.094966888427734 7.932770252227783 C 1.095320224761963 7.93129301071167 1.095667362213135 7.929814338684082 1.096007943153381 7.928332328796387 C 1.096348524093628 7.926851749420166 1.096682667732239 7.92536735534668 1.097010612487793 7.923880100250244 C 1.097338318824768 7.92239236831665 1.097659826278687 7.920902729034424 1.09797465801239 7.919409275054932 C 1.098289847373962 7.917916297912598 1.09859836101532 7.91641902923584 1.098900556564331 7.914918422698975 C 1.17073380947113 7.558518409729004 1.270373344421387 7.224957466125488 1.39750063419342 6.914695262908936 C 1.524624824523926 6.604442119598389 1.679235458374023 6.317485332489014 1.861014485359192 6.054282665252686 C 2.042789459228516 5.791086196899414 2.251732349395752 5.551641941070557 2.487525701522827 5.336409091949463 C 2.723314523696899 5.121181011199951 2.985953330993652 4.930160999298096 3.275124549865723 4.763810157775879 C 3.383336544036865 4.701557636260986 3.490550756454468 4.645706176757812 3.595402717590332 4.595619678497314 C 3.700254678726196 4.545534133911133 3.802744388580322 4.501213073730469 3.901507616043091 4.462021827697754 C 4.000271320343018 4.422830581665039 4.095308303833008 4.388769626617432 4.185254573822021 4.35920238494873 C 4.275200843811035 4.329635143280029 4.36005687713623 4.304562091827393 4.43845796585083 4.283347606658936 L 4.438515663146973 5.387248992919922 C 4.438518524169922 5.437921047210693 4.446176528930664 5.487339019775391 4.460591793060303 5.534165859222412 C 4.475008487701416 5.580993175506592 4.496182441711426 5.625228881835938 4.523220062255859 5.665537357330322 C 4.550257682800293 5.705845832824707 4.583157062530518 5.742226600646973 4.62102222442627 5.773341655731201 C 4.65888786315918 5.804457664489746 4.701718807220459 5.830308437347412 4.748619556427002 5.849558353424072 C 4.795518398284912 5.868810176849365 4.84416389465332 5.880507946014404 4.892979145050049 5.884971618652344 C 4.941793918609619 5.8894362449646 4.99077844619751 5.886666774749756 5.03835391998291 5.8769850730896 C 5.085929870605469 5.867303371429443 5.132097244262695 5.850709915161133 5.175277709960938 5.827523708343506 C 5.218459129333496 5.804338932037354 5.258652687072754 5.774562358856201 5.294283390045166 5.73851490020752 L 7.764059543609619 3.23992657661438 C 7.787185192108154 3.216531991958618 7.807766437530518 3.191097021102905 7.825628757476807 3.164050817489624 C 7.843491077423096 3.137004375457764 7.858634471893311 3.108346939086914 7.870887279510498 3.078508377075195 C 7.883139610290527 3.048669338226318 7.892499446868896 3.017648220062256 7.898795604705811 2.985875368118286 C 7.905091285705566 2.954102277755737 7.908322811126709 2.921576976776123 7.908315658569336 2.888728857040405 Z M 5.438236713409424 1.678448438644409 L 6.697646617889404 2.896644830703735 L 5.4384765625 4.170426368713379 L 5.438428401947021 3.675524950027466 C 5.438425540924072 3.640506267547607 5.434745311737061 3.605889320373535 5.427611827850342 3.572182416915894 C 5.420478820800781 3.538476467132568 5.409892559051514 3.505680799484253 5.396078109741211 3.47430419921875 C 5.382264137268066 3.442928552627563 5.365220069885254 3.41297173500061 5.345171451568604 3.384944200515747 C 5.325122833251953 3.356915473937988 5.302069664001465 3.330816030502319 5.276235103607178 3.307153463363647 C 5.250403881072998 3.283493518829346 5.222383975982666 3.262813568115234 5.192702770233154 3.245292901992798 C 5.163020610809326 3.227771759033203 5.131678104400635 3.213409900665283 5.09920072555542 3.202385663986206 C 5.066723823547363 3.191361427307129 5.033111572265625 3.183675050735474 4.998892784118652 3.179505586624146 C 4.96467399597168 3.175336360931396 4.929848194122314 3.174683809280396 4.894941329956055 3.177726745605469 C 4.884761333465576 3.178613662719727 4.816568851470947 3.184924364089966 4.70332145690918 3.203306913375854 C 4.590073108673096 3.221689701080322 4.431768417358398 3.252143621444702 4.241362571716309 3.30131721496582 C 4.050956249237061 3.350491046905518 3.828448534011841 3.418384552001953 3.58679461479187 3.511645793914795 C 3.345138311386108 3.604907989501953 3.084334373474121 3.723538637161255 2.817337989807129 3.874186754226685 C 2.693781852722168 3.943902254104614 2.565836191177368 4.022361278533936 2.435674428939819 4.110498428344727 C 2.305511474609375 4.198635578155518 2.173131227493286 4.296450614929199 2.040705680847168 4.404876708984375 C 1.908279418945312 4.513304710388184 1.775807738304138 4.632344245910645 1.64546263217926 4.762929439544678 C 1.515115976333618 4.893516063690186 1.386895775794983 5.035648822784424 1.262974381446838 5.190262317657471 C 1.316579818725586 5.010077476501465 1.37842071056366 4.83851146697998 1.448465824127197 4.675652503967285 C 1.51850962638855 4.512794494628906 1.596757531166077 4.358642101287842 1.683178424835205 4.213286876678467 C 1.769598245620728 4.067933082580566 1.864190816879272 3.931373119354248 1.966925382614136 3.80369758605957 C 2.069658756256104 3.676023721694946 2.180533647537231 3.557232856750488 2.299519538879395 3.447415351867676 C 2.579337358474731 3.189159154891968 2.880775928497314 3.001945734024048 3.1757652759552 2.866412878036499 C 3.470750570297241 2.730881214141846 3.759289503097534 2.647026777267456 4.01331090927124 2.595489501953125 C 4.267330646514893 2.543952703475952 4.486835479736328 2.524732351303101 4.643750667572021 2.518468618392944 C 4.800667285919189 2.512205600738525 4.894996166229248 2.51889967918396 4.898663520812988 2.519191980361938 C 4.933426856994629 2.521957635879517 4.96808385848999 2.521063089370728 5.00211763381958 2.516688346862793 C 5.036150455474854 2.512313365936279 5.069558143615723 2.504457950592041 5.101823806762695 2.493301630020142 C 5.13408899307251 2.482145309448242 5.165210723876953 2.467687845230103 5.194669723510742 2.450108051300049 C 5.224130153656006 2.432529211044312 5.251926898956299 2.411827802658081 5.277544021606445 2.388185262680054 C 5.303163051605225 2.364539623260498 5.326018810272217 2.338488340377808 5.34589147567749 2.310533761978149 C 5.365764141082764 2.28257942199707 5.382653713226318 2.252722263336182 5.396340370178223 2.221464872360229 C 5.410026550292969 2.19020676612854 5.420511245727539 2.157548666000366 5.427572250366211 2.123992681503296 C 5.434634208679199 2.090436935424805 5.438272953033447 2.055983066558838 5.43826961517334 2.021133899688721 L 5.438236713409424 1.678448438644409 Z" stroke="none" fill="#0da03f"/>
    </g>
  </g>
</svg>
