<svg xmlns="http://www.w3.org/2000/svg" width="25.277" height="22.013" viewBox="0 0 25.277 22.013">
  <g id="Grupo_4409" data-name="Grupo 4409" transform="translate(0.099 0.5)">
    <path id="Caminho_22856" data-name="Caminho 22856" d="M5593.771-1052.263l-1.32,4.3-10.978-3.061,1.677-3.836,10.621,2.6,10.619-2.6v10.62l-10.619,2.295-10.621-2.295v-10.62l10.621-1.864,10.619,1.864,1.361,3.836-10.766,3.061-1.214-4.3" transform="translate(-5581.072 1062.962)" fill="none" stroke="#707070" stroke-linecap="round" stroke-linejoin="round" stroke-width="1"/>
    <path id="Caminho_22857" data-name="Caminho 22857" d="M5601.113-1049.9v-8.1l2.192,3.333h-1.715" transform="translate(-5587.138 1058)" fill="#35af61" stroke="#35af61" stroke-linecap="round" stroke-linejoin="round" stroke-width="1"/>
    <path id="Caminho_22858" data-name="Caminho 22858" d="M0,8.1V0L2.191,3.333H.476" transform="translate(11.105 8.099) rotate(180)" fill="#c32e2d" stroke="#c32e2d" stroke-linecap="round" stroke-linejoin="round" stroke-width="1"/>
    <g id="Caminho_22859" data-name="Caminho 22859" transform="translate(14.562 7.954)" fill="#707070">
      <path d="M -0.1834269464015961 6.171061515808105 L -0.9800548553466797 3.212024927139282 L 8.122157096862793 1.007796287536621 L 9.494658470153809 3.604947090148926 L -0.1834269464015961 6.171061515808105 Z" stroke="none"/>
      <path d="M 7.861830711364746 1.585296154022217 L -0.3639192581176758 3.577276945114136 L 0.1698951721191406 5.560103416442871 L 8.758879661560059 3.282760620117188 L 7.861830711364746 1.585296154022217 M 8.382501602172852 0.4303021430969238 L 10.2304515838623 3.927132368087769 L -0.536747932434082 6.782022476196289 L -1.596187591552734 2.846782207489014 L 8.382501602172852 0.4303021430969238 Z" stroke="none" fill="#707070"/>
    </g>
    <g id="Caminho_22860" data-name="Caminho 22860" transform="translate(10.242 17.368) rotate(-150)" fill="#707070">
      <path d="M 1.412761807441711 6.186654090881348 L 0.6144639849662781 3.221406936645508 L 10.79304122924805 0.6202870011329651 L 11.262038230896 3.57513952255249 L 1.412761807441711 6.186654090881348 Z" stroke="none"/>
      <path d="M 10.38523197174072 1.240557193756104 L 1.228927612304688 3.580445289611816 L 1.766083717346191 5.575686454772949 L 10.69743633270264 3.207565546035767 L 10.38523197174072 1.240557193756104 M 11.20085048675537 -4.76837158203125e-06 L 11.82664012908936 3.942715167999268 L 1.059440612792969 6.797605037689209 L 9.5367431640625e-07 2.862365245819092 L 11.20085048675537 -4.76837158203125e-06 Z" stroke="none" fill="#707070"/>
    </g>
  </g>
</svg>
