<svg id="Componente_245_2" data-name="Componente 245 – 2" xmlns="http://www.w3.org/2000/svg" width="22.915" height="22.229" viewBox="0 0 22.915 22.229">
  <g id="Componente_228_4" data-name="Componente 228 – 4">
    <g id="Retângulo_697" data-name="Retângulo 697" transform="translate(0 1.5)" fill="#fff" stroke="#707070" stroke-width="1" opacity="0">
      <rect width="20" height="19" stroke="none"/>
      <rect x="0.5" y="0.5" width="19" height="18" fill="none"/>
    </g>
    <g id="Grupo_4371" data-name="Grupo 4371">
      <text id="_31" data-name="31" transform="translate(4 16.5)" fill="#555869" font-size="13" font-family="Roboto-Medium, Roboto" font-weight="500" letter-spacing="0.004em"><tspan x="0" y="0">31</tspan></text>
      <path id="Retângulo_698" data-name="Retângulo 698" d="M2,0H18a2,2,0,0,1,2,2V4a0,0,0,0,1,0,0H0A0,0,0,0,1,0,4V2A2,2,0,0,1,2,0Z" transform="translate(0 1.5)" fill="#3a3d54"/>
      <line id="Linha_9" data-name="Linha 9" y2="2.675" transform="translate(4.846)" fill="none" stroke="#cf666b" stroke-width="3"/>
      <line id="Linha_10" data-name="Linha 10" y2="2.675" transform="translate(15.615)" fill="none" stroke="#cf666b" stroke-width="3"/>
    </g>
  </g>
  <path id="Caminho_23754" data-name="Caminho 23754" d="M-1476.108,22.967a9.974,9.974,0,0,0-1.387-1.814,5.234,5.234,0,0,0-1.568-1.028l-1.25,4.262Z" transform="translate(1488.068 -2.659)" fill="#016eaf" stroke="#016eaf" stroke-linecap="round" stroke-linejoin="round" stroke-width="1"/>
  <path id="Caminho_23752" data-name="Caminho 23752" d="M-1478.189,17.891l7.117-7.088a7.051,7.051,0,0,1,1.649,1.157,7.25,7.25,0,0,1,1.186,1.649l-7.064,7.163a13.559,13.559,0,0,0-1.355-1.724A7.373,7.373,0,0,0-1478.189,17.891Z" transform="translate(1488.224 -1.175)" fill="#016eaf" stroke="#016eaf" stroke-linecap="round" stroke-linejoin="round" stroke-width="1"/>
  <path id="Caminho_23753" data-name="Caminho 23753" d="M-1469.677,10.421l1.5-1.447,2.864,2.893-1.475,1.476a5.626,5.626,0,0,0-1.1-1.707A6.947,6.947,0,0,0-1469.677,10.421Z" transform="translate(1487.725 -1.835)" fill="#016eaf" stroke="#016eaf" stroke-linecap="round" stroke-linejoin="round" stroke-width="1"/>
</svg>
